<?xml version="1.0" encoding="UTF-8" standalone="no"?>
<!-- Created with Inkscape (http://www.inkscape.org/) -->

<svg
   xmlns:dc="http://purl.org/dc/elements/1.1/"
   xmlns:cc="http://creativecommons.org/ns#"
   xmlns:rdf="http://www.w3.org/1999/02/22-rdf-syntax-ns#"
   xmlns:svg="http://www.w3.org/2000/svg"
   xmlns="http://www.w3.org/2000/svg"
   xmlns:sodipodi="http://sodipodi.sourceforge.net/DTD/sodipodi-0.dtd"
   xmlns:inkscape="http://www.inkscape.org/namespaces/inkscape"
   width="300mm"
   height="250mm"
   viewBox="0 0 300 250"
   version="1.1"
   id="svg3164"
   inkscape:version="0.92.1 r15371"
   sodipodi:docname="all.svg">
  <sodipodi:namedview
     id="base"
     pagecolor="#ffffff"
     bordercolor="#666666"
     borderopacity="1.0"
     inkscape:pageopacity="0.0"
     inkscape:pageshadow="2"
     inkscape:zoom="0.35"
     inkscape:cx="1353.4165"
     inkscape:cy="267.53504"
     inkscape:document-units="mm"
     inkscape:current-layer="layer1"
     showgrid="false"
     inkscape:window-width="1920"
     inkscape:window-height="1017"
     inkscape:window-x="1912"
     inkscape:window-y="-8"
     inkscape:window-maximized="1" />
  <defs
     id="defs3158" />
  <metadata
     id="metadata3161">
    <rdf:RDF>
      <cc:Work
         rdf:about="">
        <dc:format>image/svg+xml</dc:format>
        <dc:type
           rdf:resource="http://purl.org/dc/dcmitype/StillImage" />
        <dc:title></dc:title>
      </cc:Work>
    </rdf:RDF>
  </metadata>
  <g
     transform="translate(0,-47)"
     id="layer1"
     inkscape:groupmode="layer"
     inkscape:label="Layer 1">
    <path
       id="path3169"
       inkscape:label="part"
       style="stroke:#000000;stroke-width:1;fill:none"
       d="M 209.799999952,370.699999928 L 216.195588189,370.699999928 L 216.195588189,367.699999928 L 222.345588186,367.699999928 L 222.345588186,370.699999928 L 228.666176425,370.699999928 L 228.666176425,367.699999928 L 234.816176421,367.699999928 L 234.816176421,370.699999928 L 241.13676466,370.699999928 L 241.13676466,367.699999928 L 247.286764657,367.699999928 L 247.286764657,370.699999928 L 253.607352895,370.699999928 L 253.607352895,367.699999928 L 259.757352892,367.699999928 L 259.757352892,370.699999928 L 266.07794113,370.699999928 L 266.07794113,367.699999928 L 272.227941127,367.699999928 L 272.227941127,370.699999928 L 278.548529366,370.699999928 L 278.548529366,367.699999928 L 284.698529362,367.699999928 L 284.698529362,370.699999928 L 291.019117601,370.699999928 L 291.019117601,367.699999928 L 297.169117598,367.699999928 L 297.169117598,370.699999928 L 303.489705836,370.699999928 L 303.489705836,367.699999928 L 309.639705833,367.699999928 L 309.639705833,370.699999928 L 315.960294072,370.699999928 L 315.960294072,367.699999928 L 322.110294068,367.699999928 L 322.110294068,370.699999928 L 328.430882307,370.699999928 L 328.430882307,367.699999928 L 334.580882304,367.699999928 L 334.580882304,370.699999928 L 340.901470542,370.699999928 L 340.901470542,367.699999928 L 347.051470539,367.699999928 L 347.051470539,370.699999928 L 353.372058778,370.699999928 L 353.372058778,367.699999928 L 359.522058774,367.699999928 L 359.522058774,370.699999928 L 365.842647013,370.699999928 L 365.842647013,367.699999928 L 371.992647009,367.699999928 L 371.992647009,370.699999928 L 378.313235248,370.699999928 L 378.313235248,367.699999928 L 384.463235245,367.699999928 L 384.463235245,370.699999928 L 390.783823483,370.699999928 L 390.783823483,367.699999928 L 396.93382348,367.699999928 L 396.93382348,370.699999928 L 403.254411719,370.699999928 L 403.254411719,367.699999928 L 409.404411715,367.699999928 L 409.404411715,370.699999928 L 415.799999952,370.699999928 " />
    <path
       id="path3171"
       inkscape:label="part"
       style="stroke:#000000;stroke-width:1;fill:none"
       d="M 415.799999952,370.699999928 L 415.799999952,374.245588162 L 412.799999952,374.245588162 L 412.799999952,380.095588165 L 415.799999952,380.095588165 L 415.799999952,386.716176397 L 412.799999952,386.716176397 L 412.799999952,392.566176401 L 415.799999952,392.566176401 L 415.799999952,399.186764633 L 412.799999952,399.186764633 L 412.799999952,405.036764636 L 415.799999952,405.036764636 L 415.799999952,411.657352868 L 412.799999952,411.657352868 L 412.799999952,417.507352871 L 415.799999952,417.507352871 L 415.799999952,424.127941103 L 412.799999952,424.127941103 L 412.799999952,429.977941107 L 415.799999952,429.977941107 L 415.799999952,436.598529339 L 412.799999952,436.598529339 L 412.799999952,442.448529342 L 415.799999952,442.448529342 L 415.799999952,449.069117574 L 412.799999952,449.069117574 L 412.799999952,454.919117577 L 415.799999952,454.919117577 L 415.799999952,461.539705809 L 412.799999952,461.539705809 L 412.799999952,467.389705813 L 415.799999952,467.389705813 L 415.799999952,474.010294044 L 412.799999952,474.010294044 L 412.799999952,479.860294048 L 415.799999952,479.860294048 L 415.799999952,486.48088228 L 412.799999952,486.48088228 L 412.799999952,492.330882283 L 415.799999952,492.330882283 L 415.799999952,498.951470515 L 412.799999952,498.951470515 L 412.799999952,504.801470518 L 415.799999952,504.801470518 L 415.799999952,511.42205875 L 412.799999952,511.42205875 L 412.799999952,517.272058754 L 415.799999952,517.272058754 L 415.799999952,523.892646986 L 412.799999952,523.892646986 L 412.799999952,529.742646989 L 415.799999952,529.742646989 L 415.799999952,536.363235221 L 412.799999952,536.363235221 L 412.799999952,542.213235224 L 415.799999952,542.213235224 L 415.799999952,548.833823456 L 412.799999952,548.833823456 L 412.799999952,554.68382346 L 415.799999952,554.68382346 L 415.799999952,561.304411692 L 412.799999952,561.304411692 L 412.799999952,567.154411695 L 415.799999952,567.154411695 L 415.799999952,570.699999928 " />
    <path
       id="path3173"
       inkscape:label="part"
       style="stroke:#000000;stroke-width:1;fill:none"
       d="M 415.799999952,570.699999928 L 409.404411715,570.699999928 L 409.404411715,573.699999928 L 403.254411719,573.699999928 L 403.254411719,570.699999928 L 396.93382348,570.699999928 L 396.93382348,573.699999928 L 390.783823483,573.699999928 L 390.783823483,570.699999928 L 384.463235245,570.699999928 L 384.463235245,573.699999928 L 378.313235248,573.699999928 L 378.313235248,570.699999928 L 371.992647009,570.699999928 L 371.992647009,573.699999928 L 365.842647013,573.699999928 L 365.842647013,570.699999928 L 359.522058774,570.699999928 L 359.522058774,573.699999928 L 353.372058778,573.699999928 L 353.372058778,570.699999928 L 347.051470539,570.699999928 L 347.051470539,573.699999928 L 340.901470542,573.699999928 L 340.901470542,570.699999928 L 334.580882304,570.699999928 L 334.580882304,573.699999928 L 328.430882307,573.699999928 L 328.430882307,570.699999928 L 322.110294068,570.699999928 L 322.110294068,573.699999928 L 315.960294072,573.699999928 L 315.960294072,570.699999928 L 309.639705833,570.699999928 L 309.639705833,573.699999928 L 303.489705836,573.699999928 L 303.489705836,570.699999928 L 297.169117598,570.699999928 L 297.169117598,573.699999928 L 291.019117601,573.699999928 L 291.019117601,570.699999928 L 284.698529362,570.699999928 L 284.698529362,573.699999928 L 278.548529366,573.699999928 L 278.548529366,570.699999928 L 272.227941127,570.699999928 L 272.227941127,573.699999928 L 266.07794113,573.699999928 L 266.07794113,570.699999928 L 259.757352892,570.699999928 L 259.757352892,573.699999928 L 253.607352895,573.699999928 L 253.607352895,570.699999928 L 247.286764657,570.699999928 L 247.286764657,573.699999928 L 241.13676466,573.699999928 L 241.13676466,570.699999928 L 234.816176421,570.699999928 L 234.816176421,573.699999928 L 228.666176425,573.699999928 L 228.666176425,570.699999928 L 222.345588186,570.699999928 L 222.345588186,573.699999928 L 216.195588189,573.699999928 L 216.195588189,570.699999928 L 209.799999952,570.699999928 " />
    <path
       id="path3175"
       inkscape:label="part"
       style="stroke:#000000;stroke-width:1;fill:none"
       d="M 209.799999952,570.699999928 L 209.799999952,567.154411695 L 212.799999952,567.154411695 L 212.799999952,561.304411692 L 209.799999952,561.304411692 L 209.799999952,554.68382346 L 212.799999952,554.68382346 L 212.799999952,548.833823456 L 209.799999952,548.833823456 L 209.799999952,542.213235224 L 212.799999952,542.213235224 L 212.799999952,536.363235221 L 209.799999952,536.363235221 L 209.799999952,529.742646989 L 212.799999952,529.742646989 L 212.799999952,523.892646986 L 209.799999952,523.892646986 L 209.799999952,517.272058754 L 212.799999952,517.272058754 L 212.799999952,511.42205875 L 209.799999952,511.42205875 L 209.799999952,504.801470518 L 212.799999952,504.801470518 L 212.799999952,498.951470515 L 209.799999952,498.951470515 L 209.799999952,492.330882283 L 212.799999952,492.330882283 L 212.799999952,486.48088228 L 209.799999952,486.48088228 L 209.799999952,479.860294048 L 212.799999952,479.860294048 L 212.799999952,474.010294044 L 209.799999952,474.010294044 L 209.799999952,467.389705813 L 212.799999952,467.389705813 L 212.799999952,461.539705809 L 209.799999952,461.539705809 L 209.799999952,454.919117577 L 212.799999952,454.919117577 L 212.799999952,449.069117574 L 209.799999952,449.069117574 L 209.799999952,442.448529342 L 212.799999952,442.448529342 L 212.799999952,436.598529339 L 209.799999952,436.598529339 L 209.799999952,429.977941107 L 212.799999952,429.977941107 L 212.799999952,424.127941103 L 209.799999952,424.127941103 L 209.799999952,417.507352871 L 212.799999952,417.507352871 L 212.799999952,411.657352868 L 209.799999952,411.657352868 L 209.799999952,405.036764636 L 212.799999952,405.036764636 L 212.799999952,399.186764633 L 209.799999952,399.186764633 L 209.799999952,392.566176401 L 212.799999952,392.566176401 L 212.799999952,386.716176397 L 209.799999952,386.716176397 L 209.799999952,380.095588165 L 212.799999952,380.095588165 L 212.799999952,374.245588162 L 209.799999952,374.245588162 L 209.799999952,370.699999928 " />
    <path
       id="path3177"
       inkscape:label="part"
       style="stroke:#000000;stroke-width:1;fill:none"
       d="M 4.89999997616,212.799999952 L 8.29558821313,212.799999952 L 8.29558821313,209.799999952 L 14.4455882098,209.799999952 L 14.4455882098,212.799999952 L 20.7661764484,212.799999952 L 20.7661764484,209.799999952 L 26.9161764451,209.799999952 L 26.9161764451,212.799999952 L 33.2367646837,212.799999952 L 33.2367646837,209.799999952 L 39.3867646804,209.799999952 L 39.3867646804,212.799999952 L 45.707352919,212.799999952 L 45.707352919,209.799999952 L 51.8573529157,209.799999952 L 51.8573529157,212.799999952 L 58.1779411543,212.799999952 L 58.1779411543,209.799999952 L 64.327941151,209.799999952 L 64.327941151,212.799999952 L 70.6485293896,212.799999952 L 70.6485293896,209.799999952 L 76.7985293862,209.799999952 L 76.7985293862,212.799999952 L 83.1191176249,212.799999952 L 83.1191176249,209.799999952 L 89.2691176215,209.799999952 L 89.2691176215,212.799999952 L 95.5897058602,212.799999952 L 95.5897058602,209.799999952 L 101.739705857,209.799999952 L 101.739705857,212.799999952 L 108.060294095,212.799999952 L 108.060294095,209.799999952 L 114.210294092,209.799999952 L 114.210294092,212.799999952 L 120.530882331,212.799999952 L 120.530882331,209.799999952 L 126.680882327,209.799999952 L 126.680882327,212.799999952 L 133.001470566,212.799999952 L 133.001470566,209.799999952 L 139.151470563,209.799999952 L 139.151470563,212.799999952 L 145.472058801,212.799999952 L 145.472058801,209.799999952 L 151.622058798,209.799999952 L 151.622058798,212.799999952 L 157.942647037,212.799999952 L 157.942647037,209.799999952 L 164.092647033,209.799999952 L 164.092647033,212.799999952 L 170.413235272,212.799999952 L 170.413235272,209.799999952 L 176.563235269,209.799999952 L 176.563235269,212.799999952 L 182.883823507,212.799999952 L 182.883823507,209.799999952 L 189.033823504,209.799999952 L 189.033823504,212.799999952 L 195.354411743,212.799999952 L 195.354411743,209.799999952 L 201.504411739,209.799999952 L 201.504411739,212.799999952 L 204.899999976,212.799999952 " />
    <path
       id="path3179"
       inkscape:label="part"
       style="stroke:#000000;stroke-width:1;fill:none"
       d="M 204.899999976,212.799999952 L 204.899999976,216.186538416 L 207.899999976,216.186538416 L 207.899999976,222.336538412 L 204.899999976,222.336538412 L 204.899999976,228.648076877 L 207.899999976,228.648076877 L 207.899999976,234.798076874 L 204.899999976,234.798076874 L 204.899999976,241.109615339 L 207.899999976,241.109615339 L 207.899999976,247.259615335 L 204.899999976,247.259615335 L 204.899999976,253.5711538 L 207.899999976,253.5711538 L 207.899999976,259.721153797 L 204.899999976,259.721153797 L 204.899999976,266.032692262 L 207.899999976,266.032692262 L 207.899999976,272.182692258 L 204.899999976,272.182692258 L 204.899999976,278.494230723 L 207.899999976,278.494230723 L 207.899999976,284.64423072 L 204.899999976,284.64423072 L 204.899999976,290.955769185 L 207.899999976,290.955769185 L 207.899999976,297.105769181 L 204.899999976,297.105769181 L 204.899999976,303.417307646 L 207.899999976,303.417307646 L 207.899999976,309.567307643 L 204.899999976,309.567307643 L 204.899999976,315.878846108 L 207.899999976,315.878846108 L 207.899999976,322.028846104 L 204.899999976,322.028846104 L 204.899999976,328.340384569 L 207.899999976,328.340384569 L 207.899999976,334.490384566 L 204.899999976,334.490384566 L 204.899999976,340.801923031 L 207.899999976,340.801923031 L 207.899999976,346.951923028 L 204.899999976,346.951923028 L 204.899999976,353.263461492 L 207.899999976,353.263461492 L 207.899999976,359.413461489 L 204.899999976,359.413461489 L 204.899999976,362.799999952 " />
    <path
       id="path3181"
       inkscape:label="part"
       style="stroke:#000000;stroke-width:1;fill:none"
       d="M 204.899999976,362.799999952 L 201.504411739,362.799999952 L 201.504411739,365.799999952 L 195.354411743,365.799999952 L 195.354411743,362.799999952 L 189.033823504,362.799999952 L 189.033823504,365.799999952 L 182.883823507,365.799999952 L 182.883823507,362.799999952 L 176.563235269,362.799999952 L 176.563235269,365.799999952 L 170.413235272,365.799999952 L 170.413235272,362.799999952 L 164.092647033,362.799999952 L 164.092647033,365.799999952 L 157.942647037,365.799999952 L 157.942647037,362.799999952 L 151.622058798,362.799999952 L 151.622058798,365.799999952 L 145.472058801,365.799999952 L 145.472058801,362.799999952 L 139.151470563,362.799999952 L 139.151470563,365.799999952 L 133.001470566,365.799999952 L 133.001470566,362.799999952 L 126.680882327,362.799999952 L 126.680882327,365.799999952 L 120.530882331,365.799999952 L 120.530882331,362.799999952 L 114.210294092,362.799999952 L 114.210294092,365.799999952 L 108.060294095,365.799999952 L 108.060294095,362.799999952 L 101.739705857,362.799999952 L 101.739705857,365.799999952 L 95.5897058602,365.799999952 L 95.5897058602,362.799999952 L 89.2691176215,362.799999952 L 89.2691176215,365.799999952 L 83.1191176249,365.799999952 L 83.1191176249,362.799999952 L 76.7985293862,362.799999952 L 76.7985293862,365.799999952 L 70.6485293896,365.799999952 L 70.6485293896,362.799999952 L 64.327941151,362.799999952 L 64.327941151,365.799999952 L 58.1779411543,365.799999952 L 58.1779411543,362.799999952 L 51.8573529157,362.799999952 L 51.8573529157,365.799999952 L 45.707352919,365.799999952 L 45.707352919,362.799999952 L 39.3867646804,362.799999952 L 39.3867646804,365.799999952 L 33.2367646837,365.799999952 L 33.2367646837,362.799999952 L 26.9161764451,362.799999952 L 26.9161764451,365.799999952 L 20.7661764484,365.799999952 L 20.7661764484,362.799999952 L 14.4455882098,362.799999952 L 14.4455882098,365.799999952 L 8.29558821313,365.799999952 L 8.29558821313,362.799999952 L 4.89999997616,362.799999952 " />
    <path
       id="path3183"
       inkscape:label="part"
       style="stroke:#000000;stroke-width:1;fill:none"
       d="M 4.89999997616,362.799999952 L 4.89999997616,359.413461489 L 1.89999997616,359.413461489 L 1.89999997616,353.263461492 L 4.89999997616,353.263461492 L 4.89999997616,346.951923028 L 1.89999997616,346.951923028 L 1.89999997616,340.801923031 L 4.89999997616,340.801923031 L 4.89999997616,334.490384566 L 1.89999997616,334.490384566 L 1.89999997616,328.340384569 L 4.89999997616,328.340384569 L 4.89999997616,322.028846104 L 1.89999997616,322.028846104 L 1.89999997616,315.878846108 L 4.89999997616,315.878846108 L 4.89999997616,309.567307643 L 1.89999997616,309.567307643 L 1.89999997616,303.417307646 L 4.89999997616,303.417307646 L 4.89999997616,297.105769181 L 1.89999997616,297.105769181 L 1.89999997616,290.955769185 L 4.89999997616,290.955769185 L 4.89999997616,284.64423072 L 1.89999997616,284.64423072 L 1.89999997616,278.494230723 L 4.89999997616,278.494230723 L 4.89999997616,272.182692258 L 1.89999997616,272.182692258 L 1.89999997616,266.032692262 L 4.89999997616,266.032692262 L 4.89999997616,259.721153797 L 1.89999997616,259.721153797 L 1.89999997616,253.5711538 L 4.89999997616,253.5711538 L 4.89999997616,247.259615335 L 1.89999997616,247.259615335 L 1.89999997616,241.109615339 L 4.89999997616,241.109615339 L 4.89999997616,234.798076874 L 1.89999997616,234.798076874 L 1.89999997616,228.648076877 L 4.89999997616,228.648076877 L 4.89999997616,222.336538412 L 1.89999997616,222.336538412 L 1.89999997616,216.186538416 L 4.89999997616,216.186538416 L 4.89999997616,212.799999952 " />
    <path
       id="path3185"
       inkscape:label="part"
       style="stroke:#000000;stroke-width:1;fill:none"
       d="M 209.799999952,209.799999952 L 216.345588186,209.799999952 L 216.345588186,212.799999952 L 222.195588189,212.799999952 L 222.195588189,209.799999952 L 228.816176421,209.799999952 L 228.816176421,212.799999952 L 234.666176425,212.799999952 L 234.666176425,209.799999952 L 241.286764657,209.799999952 L 241.286764657,212.799999952 L 247.13676466,212.799999952 L 247.13676466,209.799999952 L 253.757352892,209.799999952 L 253.757352892,212.799999952 L 259.607352895,212.799999952 L 259.607352895,209.799999952 L 266.227941127,209.799999952 L 266.227941127,212.799999952 L 272.07794113,212.799999952 L 272.07794113,209.799999952 L 278.698529362,209.799999952 L 278.698529362,212.799999952 L 284.548529366,212.799999952 L 284.548529366,209.799999952 L 291.169117598,209.799999952 L 291.169117598,212.799999952 L 297.019117601,212.799999952 L 297.019117601,209.799999952 L 303.639705833,209.799999952 L 303.639705833,212.799999952 L 309.489705836,212.799999952 L 309.489705836,209.799999952 L 316.110294068,209.799999952 L 316.110294068,212.799999952 L 321.960294072,212.799999952 L 321.960294072,209.799999952 L 328.580882304,209.799999952 L 328.580882304,212.799999952 L 334.430882307,212.799999952 L 334.430882307,209.799999952 L 341.051470539,209.799999952 L 341.051470539,212.799999952 L 346.901470542,212.799999952 L 346.901470542,209.799999952 L 353.522058774,209.799999952 L 353.522058774,212.799999952 L 359.372058778,212.799999952 L 359.372058778,209.799999952 L 365.992647009,209.799999952 L 365.992647009,212.799999952 L 371.842647013,212.799999952 L 371.842647013,209.799999952 L 378.463235245,209.799999952 L 378.463235245,212.799999952 L 384.313235248,212.799999952 L 384.313235248,209.799999952 L 390.93382348,209.799999952 L 390.93382348,212.799999952 L 396.783823483,212.799999952 L 396.783823483,209.799999952 L 403.404411715,209.799999952 L 403.404411715,212.799999952 L 409.254411719,212.799999952 L 409.254411719,209.799999952 L 415.799999952,209.799999952 " />
    <path
       id="path3187"
       inkscape:label="part"
       style="stroke:#000000;stroke-width:1;fill:none"
       d="M 415.799999952,209.799999952 L 415.799999952,216.336538412 L 412.799999952,216.336538412 L 412.799999952,222.186538416 L 415.799999952,222.186538416 L 415.799999952,228.798076874 L 412.799999952,228.798076874 L 412.799999952,234.648076877 L 415.799999952,234.648076877 L 415.799999952,241.259615335 L 412.799999952,241.259615335 L 412.799999952,247.109615339 L 415.799999952,247.109615339 L 415.799999952,253.721153797 L 412.799999952,253.721153797 L 412.799999952,259.5711538 L 415.799999952,259.5711538 L 415.799999952,266.182692258 L 412.799999952,266.182692258 L 412.799999952,272.032692262 L 415.799999952,272.032692262 L 415.799999952,278.64423072 L 412.799999952,278.64423072 L 412.799999952,284.494230723 L 415.799999952,284.494230723 L 415.799999952,291.105769181 L 412.799999952,291.105769181 L 412.799999952,296.955769185 L 415.799999952,296.955769185 L 415.799999952,303.567307643 L 412.799999952,303.567307643 L 412.799999952,309.417307646 L 415.799999952,309.417307646 L 415.799999952,316.028846104 L 412.799999952,316.028846104 L 412.799999952,321.878846108 L 415.799999952,321.878846108 L 415.799999952,328.490384566 L 412.799999952,328.490384566 L 412.799999952,334.340384569 L 415.799999952,334.340384569 L 415.799999952,340.951923028 L 412.799999952,340.951923028 L 412.799999952,346.801923031 L 415.799999952,346.801923031 L 415.799999952,353.413461489 L 412.799999952,353.413461489 L 412.799999952,359.263461492 L 415.799999952,359.263461492 L 415.799999952,365.799999952 " />
    <path
       id="path3189"
       inkscape:label="part"
       style="stroke:#000000;stroke-width:1;fill:none"
       d="M 415.799999952,365.799999952 L 409.254411719,365.799999952 L 409.254411719,362.799999952 L 403.404411715,362.799999952 L 403.404411715,365.799999952 L 396.783823483,365.799999952 L 396.783823483,362.799999952 L 390.93382348,362.799999952 L 390.93382348,365.799999952 L 384.313235248,365.799999952 L 384.313235248,362.799999952 L 378.463235245,362.799999952 L 378.463235245,365.799999952 L 371.842647013,365.799999952 L 371.842647013,362.799999952 L 365.992647009,362.799999952 L 365.992647009,365.799999952 L 359.372058778,365.799999952 L 359.372058778,362.799999952 L 353.522058774,362.799999952 L 353.522058774,365.799999952 L 346.901470542,365.799999952 L 346.901470542,362.799999952 L 341.051470539,362.799999952 L 341.051470539,365.799999952 L 334.430882307,365.799999952 L 334.430882307,362.799999952 L 328.580882304,362.799999952 L 328.580882304,365.799999952 L 321.960294072,365.799999952 L 321.960294072,362.799999952 L 316.110294068,362.799999952 L 316.110294068,365.799999952 L 309.489705836,365.799999952 L 309.489705836,362.799999952 L 303.639705833,362.799999952 L 303.639705833,365.799999952 L 297.019117601,365.799999952 L 297.019117601,362.799999952 L 291.169117598,362.799999952 L 291.169117598,365.799999952 L 284.548529366,365.799999952 L 284.548529366,362.799999952 L 278.698529362,362.799999952 L 278.698529362,365.799999952 L 272.07794113,365.799999952 L 272.07794113,362.799999952 L 266.227941127,362.799999952 L 266.227941127,365.799999952 L 259.607352895,365.799999952 L 259.607352895,362.799999952 L 253.757352892,362.799999952 L 253.757352892,365.799999952 L 247.13676466,365.799999952 L 247.13676466,362.799999952 L 241.286764657,362.799999952 L 241.286764657,365.799999952 L 234.666176425,365.799999952 L 234.666176425,362.799999952 L 228.816176421,362.799999952 L 228.816176421,365.799999952 L 222.195588189,365.799999952 L 222.195588189,362.799999952 L 216.345588186,362.799999952 L 216.345588186,365.799999952 L 209.799999952,365.799999952 " />
    <path
       id="path3191"
       inkscape:label="part"
       style="stroke:#000000;stroke-width:1;fill:none"
       d="M 209.799999952,365.799999952 L 209.799999952,359.263461492 L 212.799999952,359.263461492 L 212.799999952,353.413461489 L 209.799999952,353.413461489 L 209.799999952,346.801923031 L 212.799999952,346.801923031 L 212.799999952,340.951923028 L 209.799999952,340.951923028 L 209.799999952,334.340384569 L 212.799999952,334.340384569 L 212.799999952,328.490384566 L 209.799999952,328.490384566 L 209.799999952,321.878846108 L 212.799999952,321.878846108 L 212.799999952,316.028846104 L 209.799999952,316.028846104 L 209.799999952,309.417307646 L 212.799999952,309.417307646 L 212.799999952,303.567307643 L 209.799999952,303.567307643 L 209.799999952,296.955769185 L 212.799999952,296.955769185 L 212.799999952,291.105769181 L 209.799999952,291.105769181 L 209.799999952,284.494230723 L 212.799999952,284.494230723 L 212.799999952,278.64423072 L 209.799999952,278.64423072 L 209.799999952,272.032692262 L 212.799999952,272.032692262 L 212.799999952,266.182692258 L 209.799999952,266.182692258 L 209.799999952,259.5711538 L 212.799999952,259.5711538 L 212.799999952,253.721153797 L 209.799999952,253.721153797 L 209.799999952,247.109615339 L 212.799999952,247.109615339 L 212.799999952,241.259615335 L 209.799999952,241.259615335 L 209.799999952,234.648076877 L 212.799999952,234.648076877 L 212.799999952,228.798076874 L 209.799999952,228.798076874 L 209.799999952,222.186538416 L 212.799999952,222.186538416 L 212.799999952,216.336538412 L 209.799999952,216.336538412 L 209.799999952,209.799999952 " />
    <path
       id="path3193"
       inkscape:label="part"
       style="stroke:#000000;stroke-width:1;fill:none"
       d="M 420.699999928,212.799999952 L 424.095588165,212.799999952 L 424.095588165,209.799999952 L 430.245588162,209.799999952 L 430.245588162,212.799999952 L 436.566176401,212.799999952 L 436.566176401,209.799999952 L 442.716176397,209.799999952 L 442.716176397,212.799999952 L 449.036764636,212.799999952 L 449.036764636,209.799999952 L 455.186764633,209.799999952 L 455.186764633,212.799999952 L 461.507352871,212.799999952 L 461.507352871,209.799999952 L 467.657352868,209.799999952 L 467.657352868,212.799999952 L 473.977941107,212.799999952 L 473.977941107,209.799999952 L 480.127941103,209.799999952 L 480.127941103,212.799999952 L 486.448529342,212.799999952 L 486.448529342,209.799999952 L 492.598529339,209.799999952 L 492.598529339,212.799999952 L 498.919117577,212.799999952 L 498.919117577,209.799999952 L 505.069117574,209.799999952 L 505.069117574,212.799999952 L 511.389705813,212.799999952 L 511.389705813,209.799999952 L 517.539705809,209.799999952 L 517.539705809,212.799999952 L 523.860294048,212.799999952 L 523.860294048,209.799999952 L 530.010294044,209.799999952 L 530.010294044,212.799999952 L 536.330882283,212.799999952 L 536.330882283,209.799999952 L 542.48088228,209.799999952 L 542.48088228,212.799999952 L 548.801470518,212.799999952 L 548.801470518,209.799999952 L 554.951470515,209.799999952 L 554.951470515,212.799999952 L 561.272058754,212.799999952 L 561.272058754,209.799999952 L 567.42205875,209.799999952 L 567.42205875,212.799999952 L 573.742646989,212.799999952 L 573.742646989,209.799999952 L 579.892646986,209.799999952 L 579.892646986,212.799999952 L 586.213235224,212.799999952 L 586.213235224,209.799999952 L 592.363235221,209.799999952 L 592.363235221,212.799999952 L 598.68382346,212.799999952 L 598.68382346,209.799999952 L 604.833823456,209.799999952 L 604.833823456,212.799999952 L 611.154411695,212.799999952 L 611.154411695,209.799999952 L 617.304411692,209.799999952 L 617.304411692,212.799999952 L 620.699999928,212.799999952 " />
    <path
       id="path3195"
       inkscape:label="part"
       style="stroke:#000000;stroke-width:1;fill:none"
       d="M 620.699999928,212.799999952 L 620.699999928,216.186538416 L 623.699999928,216.186538416 L 623.699999928,222.336538412 L 620.699999928,222.336538412 L 620.699999928,228.648076877 L 623.699999928,228.648076877 L 623.699999928,234.798076874 L 620.699999928,234.798076874 L 620.699999928,241.109615339 L 623.699999928,241.109615339 L 623.699999928,247.259615335 L 620.699999928,247.259615335 L 620.699999928,253.5711538 L 623.699999928,253.5711538 L 623.699999928,259.721153797 L 620.699999928,259.721153797 L 620.699999928,266.032692262 L 623.699999928,266.032692262 L 623.699999928,272.182692258 L 620.699999928,272.182692258 L 620.699999928,278.494230723 L 623.699999928,278.494230723 L 623.699999928,284.64423072 L 620.699999928,284.64423072 L 620.699999928,290.955769185 L 623.699999928,290.955769185 L 623.699999928,297.105769181 L 620.699999928,297.105769181 L 620.699999928,303.417307646 L 623.699999928,303.417307646 L 623.699999928,309.567307643 L 620.699999928,309.567307643 L 620.699999928,315.878846108 L 623.699999928,315.878846108 L 623.699999928,322.028846104 L 620.699999928,322.028846104 L 620.699999928,328.340384569 L 623.699999928,328.340384569 L 623.699999928,334.490384566 L 620.699999928,334.490384566 L 620.699999928,340.801923031 L 623.699999928,340.801923031 L 623.699999928,346.951923028 L 620.699999928,346.951923028 L 620.699999928,353.263461492 L 623.699999928,353.263461492 L 623.699999928,359.413461489 L 620.699999928,359.413461489 L 620.699999928,362.799999952 " />
    <path
       id="path3197"
       inkscape:label="part"
       style="stroke:#000000;stroke-width:1;fill:none"
       d="M 620.699999928,362.799999952 L 617.304411692,362.799999952 L 617.304411692,365.799999952 L 611.154411695,365.799999952 L 611.154411695,362.799999952 L 604.833823456,362.799999952 L 604.833823456,365.799999952 L 598.68382346,365.799999952 L 598.68382346,362.799999952 L 592.363235221,362.799999952 L 592.363235221,365.799999952 L 586.213235224,365.799999952 L 586.213235224,362.799999952 L 579.892646986,362.799999952 L 579.892646986,365.799999952 L 573.742646989,365.799999952 L 573.742646989,362.799999952 L 567.42205875,362.799999952 L 567.42205875,365.799999952 L 561.272058754,365.799999952 L 561.272058754,362.799999952 L 554.951470515,362.799999952 L 554.951470515,365.799999952 L 548.801470518,365.799999952 L 548.801470518,362.799999952 L 542.48088228,362.799999952 L 542.48088228,365.799999952 L 536.330882283,365.799999952 L 536.330882283,362.799999952 L 530.010294044,362.799999952 L 530.010294044,365.799999952 L 523.860294048,365.799999952 L 523.860294048,362.799999952 L 517.539705809,362.799999952 L 517.539705809,365.799999952 L 511.389705813,365.799999952 L 511.389705813,362.799999952 L 505.069117574,362.799999952 L 505.069117574,365.799999952 L 498.919117577,365.799999952 L 498.919117577,362.799999952 L 492.598529339,362.799999952 L 492.598529339,365.799999952 L 486.448529342,365.799999952 L 486.448529342,362.799999952 L 480.127941103,362.799999952 L 480.127941103,365.799999952 L 473.977941107,365.799999952 L 473.977941107,362.799999952 L 467.657352868,362.799999952 L 467.657352868,365.799999952 L 461.507352871,365.799999952 L 461.507352871,362.799999952 L 455.186764633,362.799999952 L 455.186764633,365.799999952 L 449.036764636,365.799999952 L 449.036764636,362.799999952 L 442.716176397,362.799999952 L 442.716176397,365.799999952 L 436.566176401,365.799999952 L 436.566176401,362.799999952 L 430.245588162,362.799999952 L 430.245588162,365.799999952 L 424.095588165,365.799999952 L 424.095588165,362.799999952 L 420.699999928,362.799999952 " />
    <path
       id="path3199"
       inkscape:label="part"
       style="stroke:#000000;stroke-width:1;fill:none"
       d="M 420.699999928,362.799999952 L 420.699999928,359.413461489 L 417.699999928,359.413461489 L 417.699999928,353.263461492 L 420.699999928,353.263461492 L 420.699999928,346.951923028 L 417.699999928,346.951923028 L 417.699999928,340.801923031 L 420.699999928,340.801923031 L 420.699999928,334.490384566 L 417.699999928,334.490384566 L 417.699999928,328.340384569 L 420.699999928,328.340384569 L 420.699999928,322.028846104 L 417.699999928,322.028846104 L 417.699999928,315.878846108 L 420.699999928,315.878846108 L 420.699999928,309.567307643 L 417.699999928,309.567307643 L 417.699999928,303.417307646 L 420.699999928,303.417307646 L 420.699999928,297.105769181 L 417.699999928,297.105769181 L 417.699999928,290.955769185 L 420.699999928,290.955769185 L 420.699999928,284.64423072 L 417.699999928,284.64423072 L 417.699999928,278.494230723 L 420.699999928,278.494230723 L 420.699999928,272.182692258 L 417.699999928,272.182692258 L 417.699999928,266.032692262 L 420.699999928,266.032692262 L 420.699999928,259.721153797 L 417.699999928,259.721153797 L 417.699999928,253.5711538 L 420.699999928,253.5711538 L 420.699999928,247.259615335 L 417.699999928,247.259615335 L 417.699999928,241.109615339 L 420.699999928,241.109615339 L 420.699999928,234.798076874 L 417.699999928,234.798076874 L 417.699999928,228.648076877 L 420.699999928,228.648076877 L 420.699999928,222.336538412 L 417.699999928,222.336538412 L 417.699999928,216.186538416 L 420.699999928,216.186538416 L 420.699999928,212.799999952 " />
    <path
       id="path3201"
       inkscape:label="part"
       style="stroke:#000000;stroke-width:1;fill:none"
       d="M 625.599999905,209.799999952 L 632.145588138,209.799999952 L 632.145588138,212.799999952 L 637.995588142,212.799999952 L 637.995588142,209.799999952 L 644.616176374,209.799999952 L 644.616176374,212.799999952 L 650.466176377,212.799999952 L 650.466176377,209.799999952 L 657.086764609,209.799999952 L 657.086764609,212.799999952 L 662.936764612,212.799999952 L 662.936764612,209.799999952 L 669.557352844,209.799999952 L 669.557352844,212.799999952 L 675.407352847,212.799999952 L 675.407352847,209.799999952 L 682.027941079,209.799999952 L 682.027941079,212.799999952 L 687.877941083,212.799999952 L 687.877941083,209.799999952 L 694.498529315,209.799999952 L 694.498529315,212.799999952 L 700.348529318,212.799999952 L 700.348529318,209.799999952 L 706.96911755,209.799999952 L 706.96911755,212.799999952 L 712.819117553,212.799999952 L 712.819117553,209.799999952 L 719.439705785,209.799999952 L 719.439705785,212.799999952 L 725.289705789,212.799999952 L 725.289705789,209.799999952 L 731.910294021,209.799999952 L 731.910294021,212.799999952 L 737.760294024,212.799999952 L 737.760294024,209.799999952 L 744.380882256,209.799999952 L 744.380882256,212.799999952 L 750.230882259,212.799999952 L 750.230882259,209.799999952 L 756.851470491,209.799999952 L 756.851470491,212.799999952 L 762.701470495,212.799999952 L 762.701470495,209.799999952 L 769.322058726,209.799999952 L 769.322058726,212.799999952 L 775.17205873,212.799999952 L 775.17205873,209.799999952 L 781.792646962,209.799999952 L 781.792646962,212.799999952 L 787.642646965,212.799999952 L 787.642646965,209.799999952 L 794.263235197,209.799999952 L 794.263235197,212.799999952 L 800.1132352,212.799999952 L 800.1132352,209.799999952 L 806.733823432,209.799999952 L 806.733823432,212.799999952 L 812.583823436,212.799999952 L 812.583823436,209.799999952 L 819.204411668,209.799999952 L 819.204411668,212.799999952 L 825.054411671,212.799999952 L 825.054411671,209.799999952 L 831.599999905,209.799999952 " />
    <path
       id="path3203"
       inkscape:label="part"
       style="stroke:#000000;stroke-width:1;fill:none"
       d="M 831.599999905,209.799999952 L 831.599999905,216.336538412 L 828.599999905,216.336538412 L 828.599999905,222.186538416 L 831.599999905,222.186538416 L 831.599999905,228.798076874 L 828.599999905,228.798076874 L 828.599999905,234.648076877 L 831.599999905,234.648076877 L 831.599999905,241.259615335 L 828.599999905,241.259615335 L 828.599999905,247.109615339 L 831.599999905,247.109615339 L 831.599999905,253.721153797 L 828.599999905,253.721153797 L 828.599999905,259.5711538 L 831.599999905,259.5711538 L 831.599999905,266.182692258 L 828.599999905,266.182692258 L 828.599999905,272.032692262 L 831.599999905,272.032692262 L 831.599999905,278.64423072 L 828.599999905,278.64423072 L 828.599999905,284.494230723 L 831.599999905,284.494230723 L 831.599999905,291.105769181 L 828.599999905,291.105769181 L 828.599999905,296.955769185 L 831.599999905,296.955769185 L 831.599999905,303.567307643 L 828.599999905,303.567307643 L 828.599999905,309.417307646 L 831.599999905,309.417307646 L 831.599999905,316.028846104 L 828.599999905,316.028846104 L 828.599999905,321.878846108 L 831.599999905,321.878846108 L 831.599999905,328.490384566 L 828.599999905,328.490384566 L 828.599999905,334.340384569 L 831.599999905,334.340384569 L 831.599999905,340.951923028 L 828.599999905,340.951923028 L 828.599999905,346.801923031 L 831.599999905,346.801923031 L 831.599999905,353.413461489 L 828.599999905,353.413461489 L 828.599999905,359.263461492 L 831.599999905,359.263461492 L 831.599999905,365.799999952 " />
    <path
       id="path3205"
       inkscape:label="part"
       style="stroke:#000000;stroke-width:1;fill:none"
       d="M 831.599999905,365.799999952 L 825.054411671,365.799999952 L 825.054411671,362.799999952 L 819.204411668,362.799999952 L 819.204411668,365.799999952 L 812.583823436,365.799999952 L 812.583823436,362.799999952 L 806.733823432,362.799999952 L 806.733823432,365.799999952 L 800.1132352,365.799999952 L 800.1132352,362.799999952 L 794.263235197,362.799999952 L 794.263235197,365.799999952 L 787.642646965,365.799999952 L 787.642646965,362.799999952 L 781.792646962,362.799999952 L 781.792646962,365.799999952 L 775.17205873,365.799999952 L 775.17205873,362.799999952 L 769.322058726,362.799999952 L 769.322058726,365.799999952 L 762.701470495,365.799999952 L 762.701470495,362.799999952 L 756.851470491,362.799999952 L 756.851470491,365.799999952 L 750.230882259,365.799999952 L 750.230882259,362.799999952 L 744.380882256,362.799999952 L 744.380882256,365.799999952 L 737.760294024,365.799999952 L 737.760294024,362.799999952 L 731.910294021,362.799999952 L 731.910294021,365.799999952 L 725.289705789,365.799999952 L 725.289705789,362.799999952 L 719.439705785,362.799999952 L 719.439705785,365.799999952 L 712.819117553,365.799999952 L 712.819117553,362.799999952 L 706.96911755,362.799999952 L 706.96911755,365.799999952 L 700.348529318,365.799999952 L 700.348529318,362.799999952 L 694.498529315,362.799999952 L 694.498529315,365.799999952 L 687.877941083,365.799999952 L 687.877941083,362.799999952 L 682.027941079,362.799999952 L 682.027941079,365.799999952 L 675.407352847,365.799999952 L 675.407352847,362.799999952 L 669.557352844,362.799999952 L 669.557352844,365.799999952 L 662.936764612,365.799999952 L 662.936764612,362.799999952 L 657.086764609,362.799999952 L 657.086764609,365.799999952 L 650.466176377,365.799999952 L 650.466176377,362.799999952 L 644.616176374,362.799999952 L 644.616176374,365.799999952 L 637.995588142,365.799999952 L 637.995588142,362.799999952 L 632.145588138,362.799999952 L 632.145588138,365.799999952 L 625.599999905,365.799999952 " />
    <path
       id="path3207"
       inkscape:label="part"
       style="stroke:#000000;stroke-width:1;fill:none"
       d="M 625.599999905,365.799999952 L 625.599999905,359.263461492 L 628.599999905,359.263461492 L 628.599999905,353.413461489 L 625.599999905,353.413461489 L 625.599999905,346.801923031 L 628.599999905,346.801923031 L 628.599999905,340.951923028 L 625.599999905,340.951923028 L 625.599999905,334.340384569 L 628.599999905,334.340384569 L 628.599999905,328.490384566 L 625.599999905,328.490384566 L 625.599999905,321.878846108 L 628.599999905,321.878846108 L 628.599999905,316.028846104 L 625.599999905,316.028846104 L 625.599999905,309.417307646 L 628.599999905,309.417307646 L 628.599999905,303.567307643 L 625.599999905,303.567307643 L 625.599999905,296.955769185 L 628.599999905,296.955769185 L 628.599999905,291.105769181 L 625.599999905,291.105769181 L 625.599999905,284.494230723 L 628.599999905,284.494230723 L 628.599999905,278.64423072 L 625.599999905,278.64423072 L 625.599999905,272.032692262 L 628.599999905,272.032692262 L 628.599999905,266.182692258 L 625.599999905,266.182692258 L 625.599999905,259.5711538 L 628.599999905,259.5711538 L 628.599999905,253.721153797 L 625.599999905,253.721153797 L 625.599999905,247.109615339 L 628.599999905,247.109615339 L 628.599999905,241.259615335 L 625.599999905,241.259615335 L 625.599999905,234.648076877 L 628.599999905,234.648076877 L 628.599999905,228.798076874 L 625.599999905,228.798076874 L 625.599999905,222.186538416 L 628.599999905,222.186538416 L 628.599999905,216.336538412 L 625.599999905,216.336538412 L 625.599999905,209.799999952 " />
    <path
       id="path3209"
       inkscape:label="part"
       style="stroke:#000000;stroke-width:1;fill:none"
       d="M 209.799999952,4.89999997616 L 216.195588189,4.89999997616 L 216.195588189,1.89999997616 L 222.345588186,1.89999997616 L 222.345588186,4.89999997616 L 228.666176425,4.89999997616 L 228.666176425,1.89999997616 L 234.816176421,1.89999997616 L 234.816176421,4.89999997616 L 241.13676466,4.89999997616 L 241.13676466,1.89999997616 L 247.286764657,1.89999997616 L 247.286764657,4.89999997616 L 253.607352895,4.89999997616 L 253.607352895,1.89999997616 L 259.757352892,1.89999997616 L 259.757352892,4.89999997616 L 266.07794113,4.89999997616 L 266.07794113,1.89999997616 L 272.227941127,1.89999997616 L 272.227941127,4.89999997616 L 278.548529366,4.89999997616 L 278.548529366,1.89999997616 L 284.698529362,1.89999997616 L 284.698529362,4.89999997616 L 291.019117601,4.89999997616 L 291.019117601,1.89999997616 L 297.169117598,1.89999997616 L 297.169117598,4.89999997616 L 303.489705836,4.89999997616 L 303.489705836,1.89999997616 L 309.639705833,1.89999997616 L 309.639705833,4.89999997616 L 315.960294072,4.89999997616 L 315.960294072,1.89999997616 L 322.110294068,1.89999997616 L 322.110294068,4.89999997616 L 328.430882307,4.89999997616 L 328.430882307,1.89999997616 L 334.580882304,1.89999997616 L 334.580882304,4.89999997616 L 340.901470542,4.89999997616 L 340.901470542,1.89999997616 L 347.051470539,1.89999997616 L 347.051470539,4.89999997616 L 353.372058778,4.89999997616 L 353.372058778,1.89999997616 L 359.522058774,1.89999997616 L 359.522058774,4.89999997616 L 365.842647013,4.89999997616 L 365.842647013,1.89999997616 L 371.992647009,1.89999997616 L 371.992647009,4.89999997616 L 378.313235248,4.89999997616 L 378.313235248,1.89999997616 L 384.463235245,1.89999997616 L 384.463235245,4.89999997616 L 390.783823483,4.89999997616 L 390.783823483,1.89999997616 L 396.93382348,1.89999997616 L 396.93382348,4.89999997616 L 403.254411719,4.89999997616 L 403.254411719,1.89999997616 L 409.404411715,1.89999997616 L 409.404411715,4.89999997616 L 415.799999952,4.89999997616 " />
    <path
       id="path3211"
       inkscape:label="part"
       style="stroke:#000000;stroke-width:1;fill:none"
       d="M 415.799999952,4.89999997616 L 415.799999952,8.44558820978 L 412.799999952,8.44558820978 L 412.799999952,14.2955882131 L 415.799999952,14.2955882131 L 415.799999952,20.9161764451 L 412.799999952,20.9161764451 L 412.799999952,26.7661764484 L 415.799999952,26.7661764484 L 415.799999952,33.3867646804 L 412.799999952,33.3867646804 L 412.799999952,39.2367646837 L 415.799999952,39.2367646837 L 415.799999952,45.8573529157 L 412.799999952,45.8573529157 L 412.799999952,51.707352919 L 415.799999952,51.707352919 L 415.799999952,58.327941151 L 412.799999952,58.327941151 L 412.799999952,64.1779411543 L 415.799999952,64.1779411543 L 415.799999952,70.7985293862 L 412.799999952,70.7985293862 L 412.799999952,76.6485293896 L 415.799999952,76.6485293896 L 415.799999952,83.2691176215 L 412.799999952,83.2691176215 L 412.799999952,89.1191176249 L 415.799999952,89.1191176249 L 415.799999952,95.7397058568 L 412.799999952,95.7397058568 L 412.799999952,101.58970586 L 415.799999952,101.58970586 L 415.799999952,108.210294092 L 412.799999952,108.210294092 L 412.799999952,114.060294095 L 415.799999952,114.060294095 L 415.799999952,120.680882327 L 412.799999952,120.680882327 L 412.799999952,126.530882331 L 415.799999952,126.530882331 L 415.799999952,133.151470563 L 412.799999952,133.151470563 L 412.799999952,139.001470566 L 415.799999952,139.001470566 L 415.799999952,145.622058798 L 412.799999952,145.622058798 L 412.799999952,151.472058801 L 415.799999952,151.472058801 L 415.799999952,158.092647033 L 412.799999952,158.092647033 L 412.799999952,163.942647037 L 415.799999952,163.942647037 L 415.799999952,170.563235269 L 412.799999952,170.563235269 L 412.799999952,176.413235272 L 415.799999952,176.413235272 L 415.799999952,183.033823504 L 412.799999952,183.033823504 L 412.799999952,188.883823507 L 415.799999952,188.883823507 L 415.799999952,195.504411739 L 412.799999952,195.504411739 L 412.799999952,201.354411743 L 415.799999952,201.354411743 L 415.799999952,204.899999976 " />
    <path
       id="path3213"
       inkscape:label="part"
       style="stroke:#000000;stroke-width:1;fill:none"
       d="M 415.799999952,204.899999976 L 409.404411715,204.899999976 L 409.404411715,207.899999976 L 403.254411719,207.899999976 L 403.254411719,204.899999976 L 396.93382348,204.899999976 L 396.93382348,207.899999976 L 390.783823483,207.899999976 L 390.783823483,204.899999976 L 384.463235245,204.899999976 L 384.463235245,207.899999976 L 378.313235248,207.899999976 L 378.313235248,204.899999976 L 371.992647009,204.899999976 L 371.992647009,207.899999976 L 365.842647013,207.899999976 L 365.842647013,204.899999976 L 359.522058774,204.899999976 L 359.522058774,207.899999976 L 353.372058778,207.899999976 L 353.372058778,204.899999976 L 347.051470539,204.899999976 L 347.051470539,207.899999976 L 340.901470542,207.899999976 L 340.901470542,204.899999976 L 334.580882304,204.899999976 L 334.580882304,207.899999976 L 328.430882307,207.899999976 L 328.430882307,204.899999976 L 322.110294068,204.899999976 L 322.110294068,207.899999976 L 315.960294072,207.899999976 L 315.960294072,204.899999976 L 309.639705833,204.899999976 L 309.639705833,207.899999976 L 303.489705836,207.899999976 L 303.489705836,204.899999976 L 297.169117598,204.899999976 L 297.169117598,207.899999976 L 291.019117601,207.899999976 L 291.019117601,204.899999976 L 284.698529362,204.899999976 L 284.698529362,207.899999976 L 278.548529366,207.899999976 L 278.548529366,204.899999976 L 272.227941127,204.899999976 L 272.227941127,207.899999976 L 266.07794113,207.899999976 L 266.07794113,204.899999976 L 259.757352892,204.899999976 L 259.757352892,207.899999976 L 253.607352895,207.899999976 L 253.607352895,204.899999976 L 247.286764657,204.899999976 L 247.286764657,207.899999976 L 241.13676466,207.899999976 L 241.13676466,204.899999976 L 234.816176421,204.899999976 L 234.816176421,207.899999976 L 228.666176425,207.899999976 L 228.666176425,204.899999976 L 222.345588186,204.899999976 L 222.345588186,207.899999976 L 216.195588189,207.899999976 L 216.195588189,204.899999976 L 209.799999952,204.899999976 " />
    <path
       id="path3215"
       inkscape:label="part"
       style="stroke:#000000;stroke-width:1;fill:none"
       d="M 209.799999952,204.899999976 L 209.799999952,201.354411743 L 212.799999952,201.354411743 L 212.799999952,195.504411739 L 209.799999952,195.504411739 L 209.799999952,188.883823507 L 212.799999952,188.883823507 L 212.799999952,183.033823504 L 209.799999952,183.033823504 L 209.799999952,176.413235272 L 212.799999952,176.413235272 L 212.799999952,170.563235269 L 209.799999952,170.563235269 L 209.799999952,163.942647037 L 212.799999952,163.942647037 L 212.799999952,158.092647033 L 209.799999952,158.092647033 L 209.799999952,151.472058801 L 212.799999952,151.472058801 L 212.799999952,145.622058798 L 209.799999952,145.622058798 L 209.799999952,139.001470566 L 212.799999952,139.001470566 L 212.799999952,133.151470563 L 209.799999952,133.151470563 L 209.799999952,126.530882331 L 212.799999952,126.530882331 L 212.799999952,120.680882327 L 209.799999952,120.680882327 L 209.799999952,114.060294095 L 212.799999952,114.060294095 L 212.799999952,108.210294092 L 209.799999952,108.210294092 L 209.799999952,101.58970586 L 212.799999952,101.58970586 L 212.799999952,95.7397058568 L 209.799999952,95.7397058568 L 209.799999952,89.1191176249 L 212.799999952,89.1191176249 L 212.799999952,83.2691176215 L 209.799999952,83.2691176215 L 209.799999952,76.6485293896 L 212.799999952,76.6485293896 L 212.799999952,70.7985293862 L 209.799999952,70.7985293862 L 209.799999952,64.1779411543 L 212.799999952,64.1779411543 L 212.799999952,58.327941151 L 209.799999952,58.327941151 L 209.799999952,51.707352919 L 212.799999952,51.707352919 L 212.799999952,45.8573529157 L 209.799999952,45.8573529157 L 209.799999952,39.2367646837 L 212.799999952,39.2367646837 L 212.799999952,33.3867646804 L 209.799999952,33.3867646804 L 209.799999952,26.7661764484 L 212.799999952,26.7661764484 L 212.799999952,20.9161764451 L 209.799999952,20.9161764451 L 209.799999952,14.2955882131 L 212.799999952,14.2955882131 L 212.799999952,8.44558820978 L 209.799999952,8.44558820978 L 209.799999952,4.89999997616 " />
  </g>
  <g
     id="g3218"
     inkscape:groupmode="layer"
     inkscape:label="newlayer" />
</svg>
