<?xml version="1.0" encoding="UTF-8" standalone="no"?>
<!-- Created with Inkscape (http://www.inkscape.org/) -->

<svg
   xmlns:dc="http://purl.org/dc/elements/1.1/"
   xmlns:cc="http://creativecommons.org/ns#"
   xmlns:rdf="http://www.w3.org/1999/02/22-rdf-syntax-ns#"
   xmlns:svg="http://www.w3.org/2000/svg"
   xmlns="http://www.w3.org/2000/svg"
   xmlns:sodipodi="http://sodipodi.sourceforge.net/DTD/sodipodi-0.dtd"
   xmlns:inkscape="http://www.inkscape.org/namespaces/inkscape"
   width="300mm"
   height="250mm"
   viewBox="0 0 300 250"
   version="1.1"
   id="svg3278"
   sodipodi:docname="back.svg"
   inkscape:version="0.92.1 r15371">
  <defs
     id="defs3272" />
  <sodipodi:namedview
     id="base"
     pagecolor="#ffffff"
     bordercolor="#666666"
     borderopacity="1.0"
     inkscape:pageopacity="0.0"
     inkscape:pageshadow="2"
     inkscape:zoom="0.98994949"
     inkscape:cx="522.60096"
     inkscape:cy="276.17687"
     inkscape:document-units="mm"
     inkscape:current-layer="layer1"
     showgrid="false"
     inkscape:window-width="1920"
     inkscape:window-height="1017"
     inkscape:window-x="-8"
     inkscape:window-y="-8"
     inkscape:window-maximized="1" />
  <metadata
     id="metadata3275">
    <rdf:RDF>
      <cc:Work
         rdf:about="">
        <dc:format>image/svg+xml</dc:format>
        <dc:type
           rdf:resource="http://purl.org/dc/dcmitype/StillImage" />
        <dc:title />
      </cc:Work>
    </rdf:RDF>
  </metadata>
  <g
     inkscape:label="Layer 1"
     inkscape:groupmode="layer"
     id="layer1"
     transform="translate(0,-47)">
    <path
       inkscape:connector-curvature="0"
       id="path3177"
       inkscape:label="part"
       style="fill:none;stroke:#000000;stroke-width:1"
       d="m 3.500001,143.5 h 3.395588 v -3 h 6.149999 v 3 h 6.320588 v -3 h 6.15 v 3 h 6.320589 v -3 h 6.150001 v 3 h 6.320587 v -3 h 6.150001 v 3 h 6.320589 v -3 h 6.149999 v 3 h 6.320589 v -3 h 6.149998 v 3 h 6.320589 v -3 h 6.150002 v 3 h 6.320586 v -3 h 6.150004 v 3 h 6.32058 v -3 h 6.15 v 3 h 6.32059 v -3 h 6.15 v 3 h 6.32059 v -3 h 6.15 v 3 h 6.32059 v -3 h 6.15 v 3 h 6.32059 v -3 h 6.15 v 3 h 6.32059 v -3 h 6.15 v 3 h 6.32058 v -3 h 6.15 v 3 h 6.32059 v -3 h 6.15 v 3 H 203.5" />
    <path
       inkscape:connector-curvature="0"
       id="path3179"
       inkscape:label="part"
       style="fill:none;stroke:#000000;stroke-width:1"
       d="m 203.5,143.5 v 3.38654 h 3 v 6.15 h -3 v 6.31154 h 3 v 6.15 h -3 v 6.31154 h 3 v 6.15 h -3 v 6.31153 h 3 v 6.15 h -3 v 6.31154 h 3 v 6.15 h -3 v 6.31154 h 3 v 6.15 h -3 v 6.31154 h 3 v 6.15 h -3 v 6.31154 h 3 v 6.15 h -3 v 6.31154 h 3 v 6.15 h -3 v 6.31153 h 3 v 6.15 h -3 v 6.31154 h 3 v 6.15 h -3 v 6.31154 h 3 v 6.15 h -3 V 293.5" />
    <path
       inkscape:connector-curvature="0"
       id="path3181"
       inkscape:label="part"
       style="fill:none;stroke:#000000;stroke-width:1"
       d="m 203.5,293.5 h -3.39559 v 3 h -6.15 v -3 h -6.32059 v 3 h -6.15 v -3 h -6.32058 v 3 h -6.15 v -3 h -6.32059 v 3 h -6.15 v -3 h -6.32059 v 3 h -6.15 v -3 h -6.32059 v 3 h -6.15 v -3 h -6.32059 v 3 h -6.15 v -3 h -6.32059 v 3 h -6.15 v -3 h -6.32058 v 3 h -6.150004 v -3 H 87.86912 v 3 h -6.150002 v -3 h -6.320589 v 3 h -6.149998 v -3 h -6.320589 v 3 h -6.149999 v -3 h -6.320589 v 3 h -6.150001 v -3 h -6.320587 v 3 h -6.150001 v -3 h -6.320589 v 3 h -6.15 v -3 h -6.320588 v 3 H 6.895589 v -3 H 3.500001" />
    <path
       inkscape:connector-curvature="0"
       id="path3183"
       inkscape:label="part"
       style="fill:none;stroke:#000000;stroke-width:1"
       d="m 3.500001,293.5 v -3.38654 H 0.5 v -6.15 h 3.000001 v -6.31154 H 0.5 v -6.15 h 3.000001 v -6.31154 H 0.5 v -6.15 h 3.000001 v -6.31153 H 0.5 v -6.15 h 3.000001 v -6.31154 H 0.5 v -6.15 h 3.000001 v -6.31154 H 0.5 v -6.15 h 3.000001 v -6.31154 H 0.5 v -6.15 h 3.000001 v -6.31154 H 0.5 v -6.15 h 3.000001 v -6.31154 H 0.5 v -6.15 h 3.000001 v -6.31153 H 0.5 v -6.15 h 3.000001 v -6.31154 H 0.5 v -6.15 h 3.000001 v -6.31154 H 0.5 v -6.15 H 3.500001 V 143.5" />
    <rect
       id="rect86"
       width="18.5"
       height="29.370001"
       x="169.28604"
       y="247.56894"
       style="stroke-width:0.26458332" />
    <circle
       id="path44-1-0"
       cx="178.49078"
       cy="282.28665"
       style="stroke-width:0.18384776"
       r="1.95" />
    <circle
       id="path44-1-1"
       cx="178.45197"
       cy="242.22327"
       style="stroke-width:0.18384776"
       r="1.95" />
    <circle
       id="path21"
       cx="21.375032"
       cy="161.33635"
       style="stroke-width:0.06741608"
       r="2" />
    <circle
       id="path21-6"
       cx="21.375032"
       cy="176.33635"
       style="stroke-width:0.06741609"
       r="2" />
    <circle
       id="path21-5"
       cx="21.375032"
       cy="211.33635"
       style="stroke-width:0.06741609"
       r="2" />
    <circle
       id="path21-1"
       cx="21.375032"
       cy="196.33635"
       style="stroke-width:0.06741609"
       r="2" />
    <path
       inkscape:connector-curvature="0"
       style="stroke-width:0.33380365"
       d="m 38.717189,218.15549 a 57.499999,57.499999 0 0 0 12.10004,35.06143 v -70.10426 a 57.499999,57.499999 0 0 0 -12.10004,35.04283 z m 17.09973,40.76754 a 57.499999,57.499999 0 0 0 5.00021,4.43384 v -90.38623 a 57.499999,57.499999 0 0 0 -5.00021,4.45141 z m 9.99991,7.91373 a 57.499999,57.499999 0 0 0 5.00021,2.81481 V 166.67542 a 57.499999,57.499999 0 0 0 -5.00021,2.78122 z m 10.00042,5.00331 a 57.499999,57.499999 0 0 0 4.9997,1.65933 V 162.82449 a 57.499999,57.499999 0 0 0 -4.9997,1.66346 z m 9.99991,2.78432 a 57.499999,57.499999 0 0 0 4.99969,0.72502 V 160.9259 a 57.499999,57.499999 0 0 0 -4.99969,0.72554 z m 9.9999,1.017 a 57.499999,57.499999 0 0 0 0.39998,0.014 57.499999,57.499999 0 0 0 4.600221,-0.27906 v -114.4587 a 57.499999,57.499999 0 0 0 -4.600221,-0.262 57.499999,57.499999 0 0 0 -0.39998,0.0202 z m 9.999901,-0.96067 a 57.499999,57.499999 0 0 0 5.00021,-1.07125 V 162.6245 a 57.499999,57.499999 0 0 0 -5.00021,-1.079 z m 9.99991,-2.66805 a 57.499999,57.499999 0 0 0 5.00021,-2.04536 V 166.26872 a 57.499999,57.499999 0 0 0 -5.00021,-2.08772 z m 10.00043,-4.74752 a 57.499999,57.499999 0 0 0 4.99967,-3.31556 v -91.60268 a 57.499999,57.499999 0 0 0 -4.99967,-3.37861 z m 9.9999,-7.56491 a 57.499999,57.499999 0 0 0 4.9997,-5.31957 v -72.47 a 57.499999,57.499999 0 0 0 -4.9997,-5.32991 z m 9.9999,-12.57339 a 57.499999,57.499999 0 0 0 7.89977,-28.97136 57.499999,57.499999 0 0 0 -7.89977,-28.94863 z"
       id="path27" />
    <path
       id="path29"
       d="m 44.06705,268.1555 a 2.1500001,2.1500001 0 0 1 2.15,2.15 2.1500001,2.1500001 0 0 1 -2.15,2.15 2.1500001,2.1500001 0 0 1 -2.15,-2.15 2.1500001,2.1500001 0 0 1 2.15,-2.15 z"
       style="stroke-width:0.05997849"
       inkscape:connector-curvature="0" />
    <path
       id="path29-6"
       d="m 148.86705,268.1555 a 2.1500003,2.1500001 0 0 1 2.15,2.15 2.1500003,2.1500001 0 0 1 -2.15,2.15 2.1500003,2.1500001 0 0 1 -2.15,-2.15 2.1500003,2.1500001 0 0 1 2.15,-2.15 z"
       style="stroke-width:0.05997849"
       inkscape:connector-curvature="0" />
    <path
       id="path29-9"
       d="m 44.067051,163.35551 a 2.1500003,2.1500003 0 0 1 2.15,2.15 2.1500003,2.1500003 0 0 1 -2.15,2.15 2.1500003,2.1500003 0 0 1 -2.15,-2.15 2.1500003,2.1500003 0 0 1 2.15,-2.15 z"
       style="stroke-width:0.05997849"
       inkscape:connector-curvature="0" />
    <path
       id="path29-6-4"
       d="m 148.86705,163.35551 a 2.1500003,2.1500003 0 0 1 2.15,2.15 2.1500003,2.1500003 0 0 1 -2.15,2.15 2.1500003,2.1500003 0 0 1 -2.15,-2.15 2.1500003,2.1500003 0 0 1 2.15,-2.15 z"
       style="stroke-width:0.05997849"
       inkscape:connector-curvature="0" />
  </g>
</svg>
