  0
SECTION
  2
HEADER
  9
$ACADVER
  1
AC1014
  9
$HANDSEED
  5
FFFF
  9
$MEASUREMENT
 70
     1
  0
ENDSEC
  0
SECTION
  2
TABLES
  0
TABLE
  2
VPORT
  5
8
330
0
100
AcDbSymbolTable
 70
     4
  0
VPORT
  5
2E
330
8
100
AcDbSymbolTableRecord
100
AcDbViewportTableRecord
  2
*ACTIVE
 70
     0
 10
0.0
 20
0.0
 11
1.0
 21
1.0
 12
210.0
 22
148.5
 13
0.0
 23
0.0
 14
10.0
 24
10.0
 15
10.0
 25
10.0
 16
0.0
 26
0.0
 36
1.0
 17
0.0
 27
0.0
 37
0.0
 40
341.0
 41
1.24
 42
50.0
 43
0.0
 44
0.0
 50
0.0
 51
0.0
 71
     0
 72
   100
 73
     1
 74
     3
 75
     0
 76
     0
 77
     0
 78
     0
  0
ENDTAB
  0
TABLE
  2
LTYPE
  5
5
330
0
100
AcDbSymbolTable
 70
     1
  0
LTYPE
  5
14
330
5
100
AcDbSymbolTableRecord
100
AcDbLinetypeTableRecord
  2
BYBLOCK
 70
     0
  3

 72
    65
 73
     0
 40
0.0
  0
LTYPE
  5
15
330
5
100
AcDbSymbolTableRecord
100
AcDbLinetypeTableRecord
  2
BYLAYER
 70
     0
  3

 72
    65
 73
     0
 40
0.0
  0
LTYPE
  5
16
330
5
100
AcDbSymbolTableRecord
100
AcDbLinetypeTableRecord
  2
CONTINUOUS
 70
     0
  3
Solid line
 72
    65
 73
     0
 40
0.0
  0
ENDTAB
  0
TABLE
  2
LAYER
  5
2
100
AcDbSymbolTable
 70
2
  0
LAYER
  5
50
100
AcDbSymbolTableRecord
100
AcDbLayerTableRecord
  2
0
 70
0
  6
CONTINUOUS
  0
LAYER
  5
51
100
AcDbSymbolTableRecord
100
AcDbLayerTableRecord
  2
Layer_1
 70
0
  6
CONTINUOUS
  0
ENDTAB
  0
TABLE
  2
STYLE
  5
3
330
0
100
AcDbSymbolTable
 70
     1
  0
STYLE
  5
11
330
3
100
AcDbSymbolTableRecord
100
AcDbTextStyleTableRecord
  2
STANDARD
 70
     0
 40
0.0
 41
1.0
 50
0.0
 71
     0
 42
2.5
  3
txt
  4

  0
ENDTAB
  0
TABLE
  2
VIEW
  5
6
330
0
100
AcDbSymbolTable
 70
     0
  0
ENDTAB
  0
TABLE
  2
UCS
  5
7
330
0
100
AcDbSymbolTable
 70
     0
  0
ENDTAB
  0
TABLE
  2
APPID
  5
9
330
0
100
AcDbSymbolTable
 70
     2
  0
APPID
  5
12
330
9
100
AcDbSymbolTableRecord
100
AcDbRegAppTableRecord
  2
ACAD
 70
     0
  0
ENDTAB
  0
TABLE
  2
DIMSTYLE
  5
A
330
0
100
AcDbSymbolTable
 70
     1
  0
DIMSTYLE
105
27
330
A
100
AcDbSymbolTableRecord
100
AcDbDimStyleTableRecord
  2
ISO-25
 70
     0
  3

  4

  5

  6

  7

 40
1.0
 41
2.5
 42
0.625
 43
3.75
 44
1.25
 45
0.0
 46
0.0
 47
0.0
 48
0.0
140
2.5
141
2.5
142
0.0
143
0.03937007874016
144
1.0
145
0.0
146
1.0
147
0.625
 71
     0
 72
     0
 73
     0
 74
     0
 75
     0
 76
     0
 77
     1
 78
     8
170
     0
171
     3
172
     1
173
     0
174
     0
175
     0
176
     0
177
     0
178
     0
270
     2
271
     2
272
     2
273
     2
274
     3
340
11
275
     0
280
     0
281
     0
282
     0
283
     0
284
     8
285
     0
286
     0
287
     3
288
     0
  0
ENDTAB
  0
TABLE
  2
BLOCK_RECORD
  5
1
330
0
100
AcDbSymbolTable
 70
     1
  0
BLOCK_RECORD
  5
1F
330
1
100
AcDbSymbolTableRecord
100
AcDbBlockTableRecord
  2
*MODEL_SPACE
  0
BLOCK_RECORD
  5
1B
330
1
100
AcDbSymbolTableRecord
100
AcDbBlockTableRecord
  2
*PAPER_SPACE
  0
ENDTAB
  0
ENDSEC
  0
SECTION
  2
BLOCKS
  0
BLOCK
  5
20
330
1F
100
AcDbEntity
  8
0
100
AcDbBlockBegin
  2
*MODEL_SPACE
 70
     0
 10
0.0
 20
0.0
 30
0.0
  3
*MODEL_SPACE
  1

  0
ENDBLK
  5
21
330
1F
100
AcDbEntity
  8
0
100
AcDbBlockEnd
  0
BLOCK
  5
1C
330
1B
100
AcDbEntity
 67
     1
  8
0
100
AcDbBlockBegin
  2
*PAPER_SPACE
  1

  0
ENDBLK
  5
1D
330
1B
100
AcDbEntity
 67
     1
  8
0
100
AcDbBlockEnd
  0
ENDSEC
  0
SECTION
  2
ENTITIES
  0
LWPOLYLINE
  5
100
100
AcDbEntity
  8
Layer_1
 62
7
100
AcDbPolyline
 90
228
 70
1
 10
3.500001
 20
153.500000
 30
0.0
 10
6.895589
 20
153.500000
 30
0.0
 10
6.895589
 20
156.500000
 30
0.0
 10
13.045588
 20
156.500000
 30
0.0
 10
13.045588
 20
153.500000
 30
0.0
 10
19.366176
 20
153.500000
 30
0.0
 10
19.366176
 20
156.500000
 30
0.0
 10
25.516176
 20
156.500000
 30
0.0
 10
25.516176
 20
153.500000
 30
0.0
 10
31.836765
 20
153.500000
 30
0.0
 10
31.836765
 20
156.500000
 30
0.0
 10
37.986766
 20
156.500000
 30
0.0
 10
37.986766
 20
153.500000
 30
0.0
 10
44.307353
 20
153.500000
 30
0.0
 10
44.307353
 20
156.500000
 30
0.0
 10
50.457354
 20
156.500000
 30
0.0
 10
50.457354
 20
153.500000
 30
0.0
 10
56.777943
 20
153.500000
 30
0.0
 10
56.777943
 20
156.500000
 30
0.0
 10
62.927942
 20
156.500000
 30
0.0
 10
62.927942
 20
153.500000
 30
0.0
 10
69.248531
 20
153.500000
 30
0.0
 10
69.248531
 20
156.500000
 30
0.0
 10
75.398529
 20
156.500000
 30
0.0
 10
75.398529
 20
153.500000
 30
0.0
 10
81.719118
 20
153.500000
 30
0.0
 10
81.719118
 20
156.500000
 30
0.0
 10
87.869120
 20
156.500000
 30
0.0
 10
87.869120
 20
153.500000
 30
0.0
 10
94.189706
 20
153.500000
 30
0.0
 10
94.189706
 20
156.500000
 30
0.0
 10
100.339710
 20
156.500000
 30
0.0
 10
100.339710
 20
153.500000
 30
0.0
 10
106.660290
 20
153.500000
 30
0.0
 10
106.660290
 20
156.500000
 30
0.0
 10
112.810290
 20
156.500000
 30
0.0
 10
112.810290
 20
153.500000
 30
0.0
 10
119.130880
 20
153.500000
 30
0.0
 10
119.130880
 20
156.500000
 30
0.0
 10
125.280880
 20
156.500000
 30
0.0
 10
125.280880
 20
153.500000
 30
0.0
 10
131.601470
 20
153.500000
 30
0.0
 10
131.601470
 20
156.500000
 30
0.0
 10
137.751470
 20
156.500000
 30
0.0
 10
137.751470
 20
153.500000
 30
0.0
 10
144.072060
 20
153.500000
 30
0.0
 10
144.072060
 20
156.500000
 30
0.0
 10
150.222060
 20
156.500000
 30
0.0
 10
150.222060
 20
153.500000
 30
0.0
 10
156.542650
 20
153.500000
 30
0.0
 10
156.542650
 20
156.500000
 30
0.0
 10
162.692650
 20
156.500000
 30
0.0
 10
162.692650
 20
153.500000
 30
0.0
 10
169.013240
 20
153.500000
 30
0.0
 10
169.013240
 20
156.500000
 30
0.0
 10
175.163240
 20
156.500000
 30
0.0
 10
175.163240
 20
153.500000
 30
0.0
 10
181.483820
 20
153.500000
 30
0.0
 10
181.483820
 20
156.500000
 30
0.0
 10
187.633820
 20
156.500000
 30
0.0
 10
187.633820
 20
153.500000
 30
0.0
 10
193.954410
 20
153.500000
 30
0.0
 10
193.954410
 20
156.500000
 30
0.0
 10
200.104410
 20
156.500000
 30
0.0
 10
200.104410
 20
153.500000
 30
0.0
 10
203.500000
 20
153.500000
 30
0.0
 10
203.500000
 20
150.113460
 30
0.0
 10
206.500000
 20
150.113460
 30
0.0
 10
206.500000
 20
143.963460
 30
0.0
 10
203.500000
 20
143.963460
 30
0.0
 10
203.500000
 20
137.651920
 30
0.0
 10
206.500000
 20
137.651920
 30
0.0
 10
206.500000
 20
131.501920
 30
0.0
 10
203.500000
 20
131.501920
 30
0.0
 10
203.500000
 20
125.190380
 30
0.0
 10
206.500000
 20
125.190380
 30
0.0
 10
206.500000
 20
119.040380
 30
0.0
 10
203.500000
 20
119.040380
 30
0.0
 10
203.500000
 20
112.728850
 30
0.0
 10
206.500000
 20
112.728850
 30
0.0
 10
206.500000
 20
106.578850
 30
0.0
 10
203.500000
 20
106.578850
 30
0.0
 10
203.500000
 20
100.267310
 30
0.0
 10
206.500000
 20
100.267310
 30
0.0
 10
206.500000
 20
94.117310
 30
0.0
 10
203.500000
 20
94.117310
 30
0.0
 10
203.500000
 20
87.805770
 30
0.0
 10
206.500000
 20
87.805770
 30
0.0
 10
206.500000
 20
81.655770
 30
0.0
 10
203.500000
 20
81.655770
 30
0.0
 10
203.500000
 20
75.344230
 30
0.0
 10
206.500000
 20
75.344230
 30
0.0
 10
206.500000
 20
69.194230
 30
0.0
 10
203.500000
 20
69.194230
 30
0.0
 10
203.500000
 20
62.882690
 30
0.0
 10
206.500000
 20
62.882690
 30
0.0
 10
206.500000
 20
56.732690
 30
0.0
 10
203.500000
 20
56.732690
 30
0.0
 10
203.500000
 20
50.421150
 30
0.0
 10
206.500000
 20
50.421150
 30
0.0
 10
206.500000
 20
44.271150
 30
0.0
 10
203.500000
 20
44.271150
 30
0.0
 10
203.500000
 20
37.959620
 30
0.0
 10
206.500000
 20
37.959620
 30
0.0
 10
206.500000
 20
31.809620
 30
0.0
 10
203.500000
 20
31.809620
 30
0.0
 10
203.500000
 20
25.498080
 30
0.0
 10
206.500000
 20
25.498080
 30
0.0
 10
206.500000
 20
19.348080
 30
0.0
 10
203.500000
 20
19.348080
 30
0.0
 10
203.500000
 20
13.036540
 30
0.0
 10
206.500000
 20
13.036540
 30
0.0
 10
206.500000
 20
6.886540
 30
0.0
 10
203.500000
 20
6.886540
 30
0.0
 10
203.500000
 20
3.500000
 30
0.0
 10
200.104410
 20
3.500000
 30
0.0
 10
200.104410
 20
0.500000
 30
0.0
 10
193.954410
 20
0.500000
 30
0.0
 10
193.954410
 20
3.500000
 30
0.0
 10
187.633820
 20
3.500000
 30
0.0
 10
187.633820
 20
0.500000
 30
0.0
 10
181.483820
 20
0.500000
 30
0.0
 10
181.483820
 20
3.500000
 30
0.0
 10
175.163240
 20
3.500000
 30
0.0
 10
175.163240
 20
0.500000
 30
0.0
 10
169.013240
 20
0.500000
 30
0.0
 10
169.013240
 20
3.500000
 30
0.0
 10
162.692650
 20
3.500000
 30
0.0
 10
162.692650
 20
0.500000
 30
0.0
 10
156.542650
 20
0.500000
 30
0.0
 10
156.542650
 20
3.500000
 30
0.0
 10
150.222060
 20
3.500000
 30
0.0
 10
150.222060
 20
0.500000
 30
0.0
 10
144.072060
 20
0.500000
 30
0.0
 10
144.072060
 20
3.500000
 30
0.0
 10
137.751470
 20
3.500000
 30
0.0
 10
137.751470
 20
0.500000
 30
0.0
 10
131.601470
 20
0.500000
 30
0.0
 10
131.601470
 20
3.500000
 30
0.0
 10
125.280880
 20
3.500000
 30
0.0
 10
125.280880
 20
0.500000
 30
0.0
 10
119.130880
 20
0.500000
 30
0.0
 10
119.130880
 20
3.500000
 30
0.0
 10
112.810290
 20
3.500000
 30
0.0
 10
112.810290
 20
0.500000
 30
0.0
 10
106.660290
 20
0.500000
 30
0.0
 10
106.660290
 20
3.500000
 30
0.0
 10
100.339710
 20
3.500000
 30
0.0
 10
100.339710
 20
0.500000
 30
0.0
 10
94.189706
 20
0.500000
 30
0.0
 10
94.189706
 20
3.500000
 30
0.0
 10
87.869120
 20
3.500000
 30
0.0
 10
87.869120
 20
0.500000
 30
0.0
 10
81.719118
 20
0.500000
 30
0.0
 10
81.719118
 20
3.500000
 30
0.0
 10
75.398529
 20
3.500000
 30
0.0
 10
75.398529
 20
0.500000
 30
0.0
 10
69.248531
 20
0.500000
 30
0.0
 10
69.248531
 20
3.500000
 30
0.0
 10
62.927942
 20
3.500000
 30
0.0
 10
62.927942
 20
0.500000
 30
0.0
 10
56.777943
 20
0.500000
 30
0.0
 10
56.777943
 20
3.500000
 30
0.0
 10
50.457354
 20
3.500000
 30
0.0
 10
50.457354
 20
0.500000
 30
0.0
 10
44.307353
 20
0.500000
 30
0.0
 10
44.307353
 20
3.500000
 30
0.0
 10
37.986766
 20
3.500000
 30
0.0
 10
37.986766
 20
0.500000
 30
0.0
 10
31.836765
 20
0.500000
 30
0.0
 10
31.836765
 20
3.500000
 30
0.0
 10
25.516176
 20
3.500000
 30
0.0
 10
25.516176
 20
0.500000
 30
0.0
 10
19.366176
 20
0.500000
 30
0.0
 10
19.366176
 20
3.500000
 30
0.0
 10
13.045588
 20
3.500000
 30
0.0
 10
13.045588
 20
0.500000
 30
0.0
 10
6.895589
 20
0.500000
 30
0.0
 10
6.895589
 20
3.500000
 30
0.0
 10
3.500001
 20
3.500000
 30
0.0
 10
3.500001
 20
6.886540
 30
0.0
 10
0.500000
 20
6.886540
 30
0.0
 10
0.500000
 20
13.036540
 30
0.0
 10
3.500001
 20
13.036540
 30
0.0
 10
3.500001
 20
19.348080
 30
0.0
 10
0.500000
 20
19.348080
 30
0.0
 10
0.500000
 20
25.498080
 30
0.0
 10
3.500001
 20
25.498080
 30
0.0
 10
3.500001
 20
31.809620
 30
0.0
 10
0.500000
 20
31.809620
 30
0.0
 10
0.500000
 20
37.959620
 30
0.0
 10
3.500001
 20
37.959620
 30
0.0
 10
3.500001
 20
44.271150
 30
0.0
 10
0.500000
 20
44.271150
 30
0.0
 10
0.500000
 20
50.421150
 30
0.0
 10
3.500001
 20
50.421150
 30
0.0
 10
3.500001
 20
56.732690
 30
0.0
 10
0.500000
 20
56.732690
 30
0.0
 10
0.500000
 20
62.882690
 30
0.0
 10
3.500001
 20
62.882690
 30
0.0
 10
3.500001
 20
69.194230
 30
0.0
 10
0.500000
 20
69.194230
 30
0.0
 10
0.500000
 20
75.344230
 30
0.0
 10
3.500001
 20
75.344230
 30
0.0
 10
3.500001
 20
81.655770
 30
0.0
 10
0.500000
 20
81.655770
 30
0.0
 10
0.500000
 20
87.805770
 30
0.0
 10
3.500001
 20
87.805770
 30
0.0
 10
3.500001
 20
94.117310
 30
0.0
 10
0.500000
 20
94.117310
 30
0.0
 10
0.500000
 20
100.267310
 30
0.0
 10
3.500001
 20
100.267310
 30
0.0
 10
3.500001
 20
106.578850
 30
0.0
 10
0.500000
 20
106.578850
 30
0.0
 10
0.500000
 20
112.728850
 30
0.0
 10
3.500001
 20
112.728850
 30
0.0
 10
3.500001
 20
119.040380
 30
0.0
 10
0.500000
 20
119.040380
 30
0.0
 10
0.500000
 20
125.190380
 30
0.0
 10
3.500001
 20
125.190380
 30
0.0
 10
3.500001
 20
131.501920
 30
0.0
 10
0.500000
 20
131.501920
 30
0.0
 10
0.500000
 20
137.651920
 30
0.0
 10
3.500001
 20
137.651920
 30
0.0
 10
3.500001
 20
143.963460
 30
0.0
 10
0.500000
 20
143.963460
 30
0.0
 10
0.500000
 20
150.113460
 30
0.0
 10
3.500001
 20
150.113460
 30
0.0
  0
SPLINE
  5
101
100
AcDbEntity
  8
Layer_1
 62
7
100
AcDbSpline
 70
8
 71
3
 72
8
 73
4
 74
0
 40
0
 40
0
 40
0
 40
0
 40
1
 40
1
 40
1
 40
1
 10
180.440780
 20
14.713350
 30
0.0
 10
180.440780
 20
14.016682
 30
0.0
 10
180.069112
 20
13.372934
 30
0.0
 10
179.465780
 20
13.024600
 30
0.0
  0
SPLINE
  5
102
100
AcDbEntity
  8
Layer_1
 62
7
100
AcDbSpline
 70
8
 71
3
 72
8
 73
4
 74
0
 40
0
 40
0
 40
0
 40
0
 40
1
 40
1
 40
1
 40
1
 10
179.465780
 20
13.024600
 30
0.0
 10
178.862448
 20
12.676267
 30
0.0
 10
178.119112
 20
12.676267
 30
0.0
 10
177.515780
 20
13.024600
 30
0.0
  0
SPLINE
  5
103
100
AcDbEntity
  8
Layer_1
 62
7
100
AcDbSpline
 70
8
 71
3
 72
8
 73
4
 74
0
 40
0
 40
0
 40
0
 40
0
 40
1
 40
1
 40
1
 40
1
 10
177.515780
 20
13.024600
 30
0.0
 10
176.912448
 20
13.372934
 30
0.0
 10
176.540780
 20
14.016682
 30
0.0
 10
176.540780
 20
14.713350
 30
0.0
  0
SPLINE
  5
104
100
AcDbEntity
  8
Layer_1
 62
7
100
AcDbSpline
 70
8
 71
3
 72
8
 73
4
 74
0
 40
0
 40
0
 40
0
 40
0
 40
1
 40
1
 40
1
 40
1
 10
176.540780
 20
14.713350
 30
0.0
 10
176.540780
 20
15.410018
 30
0.0
 10
176.912448
 20
16.053766
 30
0.0
 10
177.515780
 20
16.402100
 30
0.0
  0
SPLINE
  5
105
100
AcDbEntity
  8
Layer_1
 62
7
100
AcDbSpline
 70
8
 71
3
 72
8
 73
4
 74
0
 40
0
 40
0
 40
0
 40
0
 40
1
 40
1
 40
1
 40
1
 10
177.515780
 20
16.402100
 30
0.0
 10
178.119112
 20
16.750433
 30
0.0
 10
178.862448
 20
16.750433
 30
0.0
 10
179.465780
 20
16.402100
 30
0.0
  0
SPLINE
  5
106
100
AcDbEntity
  8
Layer_1
 62
7
100
AcDbSpline
 70
8
 71
3
 72
8
 73
4
 74
0
 40
0
 40
0
 40
0
 40
0
 40
1
 40
1
 40
1
 40
1
 10
179.465780
 20
16.402100
 30
0.0
 10
180.069112
 20
16.053766
 30
0.0
 10
180.440780
 20
15.410018
 30
0.0
 10
180.440780
 20
14.713350
 30
0.0
  0
LWPOLYLINE
  5
107
100
AcDbEntity
  8
Layer_1
 62
7
100
AcDbPolyline
 90
4
 70
1
 10
169.286040
 20
49.431060
 30
0.0
 10
187.786040
 20
49.431060
 30
0.0
 10
187.786040
 20
20.061059
 30
0.0
 10
169.286040
 20
20.061059
 30
0.0
  0
SPLINE
  5
108
100
AcDbEntity
  8
Layer_1
 62
7
100
AcDbSpline
 70
8
 71
3
 72
8
 73
4
 74
0
 40
0
 40
0
 40
0
 40
0
 40
1
 40
1
 40
1
 40
1
 10
180.401970
 20
54.776730
 30
0.0
 10
180.401970
 20
54.080062
 30
0.0
 10
180.030302
 20
53.436314
 30
0.0
 10
179.426970
 20
53.087980
 30
0.0
  0
SPLINE
  5
109
100
AcDbEntity
  8
Layer_1
 62
7
100
AcDbSpline
 70
8
 71
3
 72
8
 73
4
 74
0
 40
0
 40
0
 40
0
 40
0
 40
1
 40
1
 40
1
 40
1
 10
179.426970
 20
53.087980
 30
0.0
 10
178.823638
 20
52.739647
 30
0.0
 10
178.080302
 20
52.739647
 30
0.0
 10
177.476970
 20
53.087980
 30
0.0
  0
SPLINE
  5
10a
100
AcDbEntity
  8
Layer_1
 62
7
100
AcDbSpline
 70
8
 71
3
 72
8
 73
4
 74
0
 40
0
 40
0
 40
0
 40
0
 40
1
 40
1
 40
1
 40
1
 10
177.476970
 20
53.087980
 30
0.0
 10
176.873638
 20
53.436314
 30
0.0
 10
176.501970
 20
54.080062
 30
0.0
 10
176.501970
 20
54.776730
 30
0.0
  0
SPLINE
  5
10b
100
AcDbEntity
  8
Layer_1
 62
7
100
AcDbSpline
 70
8
 71
3
 72
8
 73
4
 74
0
 40
0
 40
0
 40
0
 40
0
 40
1
 40
1
 40
1
 40
1
 10
176.501970
 20
54.776730
 30
0.0
 10
176.501970
 20
55.853685
 30
0.0
 10
177.375015
 20
56.726730
 30
0.0
 10
178.451970
 20
56.726730
 30
0.0
  0
SPLINE
  5
10c
100
AcDbEntity
  8
Layer_1
 62
7
100
AcDbSpline
 70
8
 71
3
 72
8
 73
4
 74
0
 40
0
 40
0
 40
0
 40
0
 40
1
 40
1
 40
1
 40
1
 10
178.451970
 20
56.726730
 30
0.0
 10
179.528925
 20
56.726730
 30
0.0
 10
180.401970
 20
55.853685
 30
0.0
 10
180.401970
 20
54.776730
 30
0.0
  0
LWPOLYLINE
  5
10d
100
AcDbEntity
  8
Layer_1
 62
7
100
AcDbPolyline
 90
1
 70
1
 10
180.440780
 20
14.713350
 30
0.0
  0
SPLINE
  5
10e
100
AcDbEntity
  8
Layer_1
 62
7
100
AcDbSpline
 70
8
 71
3
 72
8
 73
4
 74
0
 40
0
 40
0
 40
0
 40
0
 40
1
 40
1
 40
1
 40
1
 10
23.375032
 20
135.663650
 30
0.0
 10
23.375032
 20
134.949119
 30
0.0
 10
22.993834
 20
134.288865
 30
0.0
 10
22.375032
 20
133.931599
 30
0.0
  0
SPLINE
  5
10f
100
AcDbEntity
  8
Layer_1
 62
7
100
AcDbSpline
 70
8
 71
3
 72
8
 73
4
 74
0
 40
0
 40
0
 40
0
 40
0
 40
1
 40
1
 40
1
 40
1
 10
22.375032
 20
133.931599
 30
0.0
 10
21.756230
 20
133.574334
 30
0.0
 10
20.993834
 20
133.574334
 30
0.0
 10
20.375032
 20
133.931599
 30
0.0
  0
SPLINE
  5
110
100
AcDbEntity
  8
Layer_1
 62
7
100
AcDbSpline
 70
8
 71
3
 72
8
 73
4
 74
0
 40
0
 40
0
 40
0
 40
0
 40
1
 40
1
 40
1
 40
1
 10
20.375032
 20
133.931599
 30
0.0
 10
19.756230
 20
134.288865
 30
0.0
 10
19.375032
 20
134.949119
 30
0.0
 10
19.375032
 20
135.663650
 30
0.0
  0
SPLINE
  5
111
100
AcDbEntity
  8
Layer_1
 62
7
100
AcDbSpline
 70
8
 71
3
 72
8
 73
4
 74
0
 40
0
 40
0
 40
0
 40
0
 40
1
 40
1
 40
1
 40
1
 10
19.375032
 20
135.663650
 30
0.0
 10
19.375032
 20
136.378181
 30
0.0
 10
19.756230
 20
137.038435
 30
0.0
 10
20.375032
 20
137.395701
 30
0.0
  0
SPLINE
  5
112
100
AcDbEntity
  8
Layer_1
 62
7
100
AcDbSpline
 70
8
 71
3
 72
8
 73
4
 74
0
 40
0
 40
0
 40
0
 40
0
 40
1
 40
1
 40
1
 40
1
 10
20.375032
 20
137.395701
 30
0.0
 10
20.993834
 20
137.752966
 30
0.0
 10
21.756230
 20
137.752966
 30
0.0
 10
22.375032
 20
137.395701
 30
0.0
  0
SPLINE
  5
113
100
AcDbEntity
  8
Layer_1
 62
7
100
AcDbSpline
 70
8
 71
3
 72
8
 73
4
 74
0
 40
0
 40
0
 40
0
 40
0
 40
1
 40
1
 40
1
 40
1
 10
22.375032
 20
137.395701
 30
0.0
 10
22.993834
 20
137.038435
 30
0.0
 10
23.375032
 20
136.378181
 30
0.0
 10
23.375032
 20
135.663650
 30
0.0
  0
LWPOLYLINE
  5
114
100
AcDbEntity
  8
Layer_1
 62
7
100
AcDbPolyline
 90
1
 70
1
 10
180.401970
 20
54.776730
 30
0.0
  0
SPLINE
  5
115
100
AcDbEntity
  8
Layer_1
 62
7
100
AcDbSpline
 70
8
 71
3
 72
8
 73
4
 74
0
 40
0
 40
0
 40
0
 40
0
 40
1
 40
1
 40
1
 40
1
 10
23.375032
 20
120.663650
 30
0.0
 10
23.375032
 20
119.949119
 30
0.0
 10
22.993834
 20
119.288865
 30
0.0
 10
22.375032
 20
118.931599
 30
0.0
  0
SPLINE
  5
116
100
AcDbEntity
  8
Layer_1
 62
7
100
AcDbSpline
 70
8
 71
3
 72
8
 73
4
 74
0
 40
0
 40
0
 40
0
 40
0
 40
1
 40
1
 40
1
 40
1
 10
22.375032
 20
118.931599
 30
0.0
 10
21.756230
 20
118.574334
 30
0.0
 10
20.993834
 20
118.574334
 30
0.0
 10
20.375032
 20
118.931599
 30
0.0
  0
SPLINE
  5
117
100
AcDbEntity
  8
Layer_1
 62
7
100
AcDbSpline
 70
8
 71
3
 72
8
 73
4
 74
0
 40
0
 40
0
 40
0
 40
0
 40
1
 40
1
 40
1
 40
1
 10
20.375032
 20
118.931599
 30
0.0
 10
19.756230
 20
119.288865
 30
0.0
 10
19.375032
 20
119.949119
 30
0.0
 10
19.375032
 20
120.663650
 30
0.0
  0
SPLINE
  5
118
100
AcDbEntity
  8
Layer_1
 62
7
100
AcDbSpline
 70
8
 71
3
 72
8
 73
4
 74
0
 40
0
 40
0
 40
0
 40
0
 40
1
 40
1
 40
1
 40
1
 10
19.375032
 20
120.663650
 30
0.0
 10
19.375032
 20
121.378181
 30
0.0
 10
19.756230
 20
122.038435
 30
0.0
 10
20.375032
 20
122.395701
 30
0.0
  0
SPLINE
  5
119
100
AcDbEntity
  8
Layer_1
 62
7
100
AcDbSpline
 70
8
 71
3
 72
8
 73
4
 74
0
 40
0
 40
0
 40
0
 40
0
 40
1
 40
1
 40
1
 40
1
 10
20.375032
 20
122.395701
 30
0.0
 10
20.993834
 20
122.752966
 30
0.0
 10
21.756230
 20
122.752966
 30
0.0
 10
22.375032
 20
122.395701
 30
0.0
  0
SPLINE
  5
11a
100
AcDbEntity
  8
Layer_1
 62
7
100
AcDbSpline
 70
8
 71
3
 72
8
 73
4
 74
0
 40
0
 40
0
 40
0
 40
0
 40
1
 40
1
 40
1
 40
1
 10
22.375032
 20
122.395701
 30
0.0
 10
22.993834
 20
122.038435
 30
0.0
 10
23.375032
 20
121.378181
 30
0.0
 10
23.375032
 20
120.663650
 30
0.0
  0
LWPOLYLINE
  5
11b
100
AcDbEntity
  8
Layer_1
 62
7
100
AcDbPolyline
 90
1
 70
1
 10
23.375032
 20
135.663650
 30
0.0
  0
SPLINE
  5
11c
100
AcDbEntity
  8
Layer_1
 62
7
100
AcDbSpline
 70
8
 71
3
 72
8
 73
4
 74
0
 40
0
 40
0
 40
0
 40
0
 40
1
 40
1
 40
1
 40
1
 10
23.375032
 20
85.663650
 30
0.0
 10
23.375032
 20
84.949119
 30
0.0
 10
22.993834
 20
84.288865
 30
0.0
 10
22.375032
 20
83.931599
 30
0.0
  0
SPLINE
  5
11d
100
AcDbEntity
  8
Layer_1
 62
7
100
AcDbSpline
 70
8
 71
3
 72
8
 73
4
 74
0
 40
0
 40
0
 40
0
 40
0
 40
1
 40
1
 40
1
 40
1
 10
22.375032
 20
83.931599
 30
0.0
 10
21.756230
 20
83.574334
 30
0.0
 10
20.993834
 20
83.574334
 30
0.0
 10
20.375032
 20
83.931599
 30
0.0
  0
SPLINE
  5
11e
100
AcDbEntity
  8
Layer_1
 62
7
100
AcDbSpline
 70
8
 71
3
 72
8
 73
4
 74
0
 40
0
 40
0
 40
0
 40
0
 40
1
 40
1
 40
1
 40
1
 10
20.375032
 20
83.931599
 30
0.0
 10
19.756230
 20
84.288865
 30
0.0
 10
19.375032
 20
84.949119
 30
0.0
 10
19.375032
 20
85.663650
 30
0.0
  0
SPLINE
  5
11f
100
AcDbEntity
  8
Layer_1
 62
7
100
AcDbSpline
 70
8
 71
3
 72
8
 73
4
 74
0
 40
0
 40
0
 40
0
 40
0
 40
1
 40
1
 40
1
 40
1
 10
19.375032
 20
85.663650
 30
0.0
 10
19.375032
 20
86.378181
 30
0.0
 10
19.756230
 20
87.038435
 30
0.0
 10
20.375032
 20
87.395701
 30
0.0
  0
SPLINE
  5
120
100
AcDbEntity
  8
Layer_1
 62
7
100
AcDbSpline
 70
8
 71
3
 72
8
 73
4
 74
0
 40
0
 40
0
 40
0
 40
0
 40
1
 40
1
 40
1
 40
1
 10
20.375032
 20
87.395701
 30
0.0
 10
20.993834
 20
87.752966
 30
0.0
 10
21.756230
 20
87.752966
 30
0.0
 10
22.375032
 20
87.395701
 30
0.0
  0
SPLINE
  5
121
100
AcDbEntity
  8
Layer_1
 62
7
100
AcDbSpline
 70
8
 71
3
 72
8
 73
4
 74
0
 40
0
 40
0
 40
0
 40
0
 40
1
 40
1
 40
1
 40
1
 10
22.375032
 20
87.395701
 30
0.0
 10
22.993834
 20
87.038435
 30
0.0
 10
23.375032
 20
86.378181
 30
0.0
 10
23.375032
 20
85.663650
 30
0.0
  0
LWPOLYLINE
  5
122
100
AcDbEntity
  8
Layer_1
 62
7
100
AcDbPolyline
 90
1
 70
1
 10
23.375032
 20
120.663650
 30
0.0
  0
SPLINE
  5
123
100
AcDbEntity
  8
Layer_1
 62
7
100
AcDbSpline
 70
8
 71
3
 72
8
 73
4
 74
0
 40
0
 40
0
 40
0
 40
0
 40
1
 40
1
 40
1
 40
1
 10
23.375032
 20
100.663650
 30
0.0
 10
23.375032
 20
99.949119
 30
0.0
 10
22.993834
 20
99.288865
 30
0.0
 10
22.375032
 20
98.931599
 30
0.0
  0
SPLINE
  5
124
100
AcDbEntity
  8
Layer_1
 62
7
100
AcDbSpline
 70
8
 71
3
 72
8
 73
4
 74
0
 40
0
 40
0
 40
0
 40
0
 40
1
 40
1
 40
1
 40
1
 10
22.375032
 20
98.931599
 30
0.0
 10
21.756230
 20
98.574334
 30
0.0
 10
20.993834
 20
98.574334
 30
0.0
 10
20.375032
 20
98.931599
 30
0.0
  0
SPLINE
  5
125
100
AcDbEntity
  8
Layer_1
 62
7
100
AcDbSpline
 70
8
 71
3
 72
8
 73
4
 74
0
 40
0
 40
0
 40
0
 40
0
 40
1
 40
1
 40
1
 40
1
 10
20.375032
 20
98.931599
 30
0.0
 10
19.756230
 20
99.288865
 30
0.0
 10
19.375032
 20
99.949119
 30
0.0
 10
19.375032
 20
100.663650
 30
0.0
  0
SPLINE
  5
126
100
AcDbEntity
  8
Layer_1
 62
7
100
AcDbSpline
 70
8
 71
3
 72
8
 73
4
 74
0
 40
0
 40
0
 40
0
 40
0
 40
1
 40
1
 40
1
 40
1
 10
19.375032
 20
100.663650
 30
0.0
 10
19.375032
 20
101.378181
 30
0.0
 10
19.756230
 20
102.038435
 30
0.0
 10
20.375032
 20
102.395701
 30
0.0
  0
SPLINE
  5
127
100
AcDbEntity
  8
Layer_1
 62
7
100
AcDbSpline
 70
8
 71
3
 72
8
 73
4
 74
0
 40
0
 40
0
 40
0
 40
0
 40
1
 40
1
 40
1
 40
1
 10
20.375032
 20
102.395701
 30
0.0
 10
20.993834
 20
102.752966
 30
0.0
 10
21.756230
 20
102.752966
 30
0.0
 10
22.375032
 20
102.395701
 30
0.0
  0
SPLINE
  5
128
100
AcDbEntity
  8
Layer_1
 62
7
100
AcDbSpline
 70
8
 71
3
 72
8
 73
4
 74
0
 40
0
 40
0
 40
0
 40
0
 40
1
 40
1
 40
1
 40
1
 10
22.375032
 20
102.395701
 30
0.0
 10
22.993834
 20
102.038435
 30
0.0
 10
23.375032
 20
101.378181
 30
0.0
 10
23.375032
 20
100.663650
 30
0.0
  0
LWPOLYLINE
  5
129
100
AcDbEntity
  8
Layer_1
 62
7
100
AcDbPolyline
 90
1
 70
1
 10
23.375032
 20
85.663650
 30
0.0
  0
SPLINE
  5
12a
100
AcDbEntity
  8
Layer_1
 62
7
100
AcDbSpline
 70
8
 71
3
 72
8
 73
4
 74
0
 40
0
 40
0
 40
0
 40
0
 40
1
 40
1
 40
1
 40
1
 10
41.122616
 20
81.517200
 30
0.0
 10
41.172328
 20
68.814332
 30
0.0
 10
45.427133
 20
56.485483
 30
0.0
 10
53.222656
 20
46.455770
 30
0.0
  0
LWPOLYLINE
  5
12b
100
AcDbEntity
  8
Layer_1
 62
7
100
AcDbPolyline
 90
1
 70
1
 10
23.375032
 20
100.663650
 30
0.0
  0
SPLINE
  5
12c
100
AcDbEntity
  8
Layer_1
 62
7
100
AcDbSpline
 70
8
 71
3
 72
8
 73
4
 74
0
 40
0
 40
0
 40
0
 40
0
 40
1
 40
1
 40
1
 40
1
 10
53.222656
 20
116.560030
 30
0.0
 10
45.431015
 20
106.535356
 30
0.0
 10
41.176432
 20
94.213690
 30
0.0
 10
41.122616
 20
81.517200
 30
0.0
  0
LWPOLYLINE
  5
12d
100
AcDbEntity
  8
Layer_1
 62
7
100
AcDbPolyline
 90
2
 70
0
 10
53.222656
 20
46.455770
 30
0.0
 10
53.222656
 20
116.560030
 30
0.0
  0
SPLINE
  5
12e
100
AcDbEntity
  8
Layer_1
 62
7
100
AcDbSpline
 70
8
 71
3
 72
8
 73
4
 74
0
 40
0
 40
0
 40
0
 40
0
 40
1
 40
1
 40
1
 40
1
 10
58.222345
 20
40.749660
 30
0.0
 10
59.801713
 20
39.176024
 30
0.0
 10
61.471269
 20
37.695577
 30
0.0
 10
63.222556
 20
36.315820
 30
0.0
  0
SPLINE
  5
12f
100
AcDbEntity
  8
Layer_1
 62
7
100
AcDbSpline
 70
8
 71
3
 72
8
 73
4
 74
0
 40
0
 40
0
 40
0
 40
0
 40
1
 40
1
 40
1
 40
1
 10
63.222556
 20
36.315820
 30
0.0
 10
63.222556
 20
36.315820
 30
0.0
 10
63.222556
 20
126.702050
 30
0.0
 10
63.222556
 20
126.702050
 30
0.0
  0
SPLINE
  5
130
100
AcDbEntity
  8
Layer_1
 62
7
100
AcDbSpline
 70
8
 71
3
 72
8
 73
4
 74
0
 40
0
 40
0
 40
0
 40
0
 40
1
 40
1
 40
1
 40
1
 10
63.222556
 20
126.702050
 30
0.0
 10
61.470783
 20
125.316615
 30
0.0
 10
59.801217
 20
123.830293
 30
0.0
 10
58.222345
 20
122.250640
 30
0.0
  0
LWPOLYLINE
  5
131
100
AcDbEntity
  8
Layer_1
 62
7
100
AcDbPolyline
 90
1
 70
1
 10
41.122616
 20
81.517200
 30
0.0
  0
SPLINE
  5
132
100
AcDbEntity
  8
Layer_1
 62
7
100
AcDbSpline
 70
8
 71
3
 72
8
 73
4
 74
0
 40
0
 40
0
 40
0
 40
0
 40
1
 40
1
 40
1
 40
1
 10
68.222255
 20
32.835930
 30
0.0
 10
69.841108
 20
31.815029
 30
0.0
 10
71.509922
 20
30.875590
 30
0.0
 10
73.222466
 20
30.021120
 30
0.0
  0
SPLINE
  5
133
100
AcDbEntity
  8
Layer_1
 62
7
100
AcDbSpline
 70
8
 71
3
 72
8
 73
4
 74
0
 40
0
 40
0
 40
0
 40
0
 40
1
 40
1
 40
1
 40
1
 10
73.222466
 20
30.021120
 30
0.0
 10
73.222466
 20
30.021120
 30
0.0
 10
73.222466
 20
132.997270
 30
0.0
 10
73.222466
 20
132.997270
 30
0.0
  0
SPLINE
  5
134
100
AcDbEntity
  8
Layer_1
 62
7
100
AcDbSpline
 70
8
 71
3
 72
8
 73
4
 74
0
 40
0
 40
0
 40
0
 40
0
 40
1
 40
1
 40
1
 40
1
 10
73.222466
 20
132.997270
 30
0.0
 10
71.510608
 20
132.153748
 30
0.0
 10
69.841806
 20
131.225526
 30
0.0
 10
68.222255
 20
130.216050
 30
0.0
  0
LWPOLYLINE
  5
135
100
AcDbEntity
  8
Layer_1
 62
7
100
AcDbPolyline
 90
2
 70
0
 10
58.222345
 20
122.250640
 30
0.0
 10
58.222345
 20
40.749660
 30
0.0
  0
SPLINE
  5
136
100
AcDbEntity
  8
Layer_1
 62
7
100
AcDbSpline
 70
8
 71
3
 72
8
 73
4
 74
0
 40
0
 40
0
 40
0
 40
0
 40
1
 40
1
 40
1
 40
1
 10
78.222675
 20
27.832620
 30
0.0
 10
79.863017
 20
27.203419
 30
0.0
 10
81.531334
 20
26.649728
 30
0.0
 10
83.222375
 20
26.173290
 30
0.0
  0
SPLINE
  5
137
100
AcDbEntity
  8
Layer_1
 62
7
100
AcDbSpline
 70
8
 71
3
 72
8
 73
4
 74
0
 40
0
 40
0
 40
0
 40
0
 40
1
 40
1
 40
1
 40
1
 10
83.222375
 20
26.173290
 30
0.0
 10
83.222375
 20
26.173290
 30
0.0
 10
83.222375
 20
136.848200
 30
0.0
 10
83.222375
 20
136.848200
 30
0.0
  0
SPLINE
  5
138
100
AcDbEntity
  8
Layer_1
 62
7
100
AcDbSpline
 70
8
 71
3
 72
8
 73
4
 74
0
 40
0
 40
0
 40
0
 40
0
 40
1
 40
1
 40
1
 40
1
 10
83.222375
 20
136.848200
 30
0.0
 10
81.531265
 20
136.370405
 30
0.0
 10
79.862947
 20
135.815336
 30
0.0
 10
78.222675
 20
135.184740
 30
0.0
  0
LWPOLYLINE
  5
139
100
AcDbEntity
  8
Layer_1
 62
7
100
AcDbPolyline
 90
2
 70
0
 10
68.222255
 20
130.216050
 30
0.0
 10
68.222255
 20
32.835930
 30
0.0
  0
SPLINE
  5
13a
100
AcDbEntity
  8
Layer_1
 62
7
100
AcDbSpline
 70
8
 71
3
 72
8
 73
4
 74
0
 40
0
 40
0
 40
0
 40
0
 40
1
 40
1
 40
1
 40
1
 10
88.222585
 20
25.048300
 30
0.0
 10
89.877721
 20
24.733492
 30
0.0
 10
91.545894
 20
24.491582
 30
0.0
 10
93.222275
 20
24.323270
 30
0.0
  0
SPLINE
  5
13b
100
AcDbEntity
  8
Layer_1
 62
7
100
AcDbSpline
 70
8
 71
3
 72
8
 73
4
 74
0
 40
0
 40
0
 40
0
 40
0
 40
1
 40
1
 40
1
 40
1
 10
93.222275
 20
24.323270
 30
0.0
 10
93.222275
 20
24.323270
 30
0.0
 10
93.222275
 20
138.746790
 30
0.0
 10
93.222275
 20
138.746790
 30
0.0
  0
SPLINE
  5
13c
100
AcDbEntity
  8
Layer_1
 62
7
100
AcDbSpline
 70
8
 71
3
 72
8
 73
4
 74
0
 40
0
 40
0
 40
0
 40
0
 40
1
 40
1
 40
1
 40
1
 10
93.222275
 20
138.746790
 30
0.0
 10
91.545887
 20
138.578309
 30
0.0
 10
89.877714
 20
138.336229
 30
0.0
 10
88.222585
 20
138.021250
 30
0.0
  0
LWPOLYLINE
  5
13d
100
AcDbEntity
  8
Layer_1
 62
7
100
AcDbPolyline
 90
2
 70
0
 10
78.222675
 20
135.184740
 30
0.0
 10
78.222675
 20
27.832620
 30
0.0
  0
SPLINE
  5
13e
100
AcDbEntity
  8
Layer_1
 62
7
100
AcDbSpline
 70
8
 71
3
 72
8
 73
4
 74
0
 40
0
 40
0
 40
0
 40
0
 40
1
 40
1
 40
1
 40
1
 10
98.222485
 20
24.031300
 30
0.0
 10
98.355795
 20
24.026169
 30
0.0
 10
98.489122
 20
24.021503
 30
0.0
 10
98.622465
 20
24.017300
 30
0.0
  0
SPLINE
  5
13f
100
AcDbEntity
  8
Layer_1
 62
7
100
AcDbSpline
 70
8
 71
3
 72
8
 73
4
 74
0
 40
0
 40
0
 40
0
 40
0
 40
1
 40
1
 40
1
 40
1
 10
98.622465
 20
24.017300
 30
0.0
 10
100.158990
 20
24.048806
 30
0.0
 10
101.693634
 20
24.141900
 30
0.0
 10
103.222700
 20
24.296360
 30
0.0
  0
SPLINE
  5
140
100
AcDbEntity
  8
Layer_1
 62
7
100
AcDbSpline
 70
8
 71
3
 72
8
 73
4
 74
0
 40
0
 40
0
 40
0
 40
0
 40
1
 40
1
 40
1
 40
1
 10
103.222700
 20
24.296360
 30
0.0
 10
103.222700
 20
24.296360
 30
0.0
 10
103.222700
 20
138.755060
 30
0.0
 10
103.222700
 20
138.755060
 30
0.0
  0
SPLINE
  5
141
100
AcDbEntity
  8
Layer_1
 62
7
100
AcDbSpline
 70
8
 71
3
 72
8
 73
4
 74
0
 40
0
 40
0
 40
0
 40
0
 40
1
 40
1
 40
1
 40
1
 10
103.222700
 20
138.755060
 30
0.0
 10
101.693405
 20
138.903822
 30
0.0
 10
100.158761
 20
138.991225
 30
0.0
 10
98.622465
 20
139.017060
 30
0.0
  0
SPLINE
  5
142
100
AcDbEntity
  8
Layer_1
 62
7
100
AcDbSpline
 70
8
 71
3
 72
8
 73
4
 74
0
 40
0
 40
0
 40
0
 40
0
 40
1
 40
1
 40
1
 40
1
 10
98.622465
 20
139.017060
 30
0.0
 10
98.489115
 20
139.010791
 30
0.0
 10
98.355788
 20
139.004058
 30
0.0
 10
98.222485
 20
138.996860
 30
0.0
  0
LWPOLYLINE
  5
143
100
AcDbEntity
  8
Layer_1
 62
7
100
AcDbPolyline
 90
2
 70
0
 10
88.222585
 20
138.021250
 30
0.0
 10
88.222585
 20
25.048300
 30
0.0
  0
SPLINE
  5
144
100
AcDbEntity
  8
Layer_1
 62
7
100
AcDbSpline
 70
8
 71
3
 72
8
 73
4
 74
0
 40
0
 40
0
 40
0
 40
0
 40
1
 40
1
 40
1
 40
1
 10
108.222390
 20
24.991970
 30
0.0
 10
109.904188
 20
25.274726
 30
0.0
 10
111.572574
 20
25.632162
 30
0.0
 10
113.222600
 20
26.063220
 30
0.0
  0
LWPOLYLINE
  5
145
100
AcDbEntity
  8
Layer_1
 62
7
100
AcDbPolyline
 90
2
 70
0
 10
98.222485
 20
138.996860
 30
0.0
 10
98.222485
 20
24.031300
 30
0.0
  0
SPLINE
  5
146
100
AcDbEntity
  8
Layer_1
 62
7
100
AcDbSpline
 70
8
 71
3
 72
8
 73
4
 74
0
 40
0
 40
0
 40
0
 40
0
 40
1
 40
1
 40
1
 40
1
 10
113.222600
 20
137.048190
 30
0.0
 10
111.572695
 20
137.481853
 30
0.0
 10
109.904308
 20
137.841876
 30
0.0
 10
108.222390
 20
138.127190
 30
0.0
  0
LWPOLYLINE
  5
147
100
AcDbEntity
  8
Layer_1
 62
7
100
AcDbPolyline
 90
2
 70
0
 10
113.222600
 20
26.063220
 30
0.0
 10
113.222600
 20
137.048190
 30
0.0
  0
SPLINE
  5
148
100
AcDbEntity
  8
Layer_1
 62
7
100
AcDbSpline
 70
8
 71
3
 72
8
 73
4
 74
0
 40
0
 40
0
 40
0
 40
0
 40
1
 40
1
 40
1
 40
1
 10
118.222300
 20
27.660020
 30
0.0
 10
119.920162
 20
28.263088
 30
0.0
 10
121.588740
 20
28.945628
 30
0.0
 10
123.222510
 20
29.705380
 30
0.0
  0
SPLINE
  5
149
100
AcDbEntity
  8
Layer_1
 62
7
100
AcDbSpline
 70
8
 71
3
 72
8
 73
4
 74
0
 40
0
 40
0
 40
0
 40
0
 40
1
 40
1
 40
1
 40
1
 10
123.222510
 20
29.705380
 30
0.0
 10
123.222510
 20
29.705380
 30
0.0
 10
123.222510
 20
133.403970
 30
0.0
 10
123.222510
 20
133.403970
 30
0.0
  0
SPLINE
  5
14a
100
AcDbEntity
  8
Layer_1
 62
7
100
AcDbSpline
 70
8
 71
3
 72
8
 73
4
 74
0
 40
0
 40
0
 40
0
 40
0
 40
1
 40
1
 40
1
 40
1
 10
123.222510
 20
133.403970
 30
0.0
 10
121.589507
 20
134.178067
 30
0.0
 10
119.920918
 20
134.874747
 30
0.0
 10
118.222300
 20
135.491690
 30
0.0
  0
LWPOLYLINE
  5
14b
100
AcDbEntity
  8
Layer_1
 62
7
100
AcDbPolyline
 90
2
 70
0
 10
108.222390
 20
138.127190
 30
0.0
 10
108.222390
 20
24.991970
 30
0.0
  0
SPLINE
  5
14c
100
AcDbEntity
  8
Layer_1
 62
7
100
AcDbSpline
 70
8
 71
3
 72
8
 73
4
 74
0
 40
0
 40
0
 40
0
 40
0
 40
1
 40
1
 40
1
 40
1
 10
128.222730
 20
32.407540
 30
0.0
 10
129.945844
 20
33.424976
 30
0.0
 10
131.614672
 20
34.531669
 30
0.0
 10
133.222400
 20
35.723100
 30
0.0
  0
SPLINE
  5
14d
100
AcDbEntity
  8
Layer_1
 62
7
100
AcDbSpline
 70
8
 71
3
 72
8
 73
4
 74
0
 40
0
 40
0
 40
0
 40
0
 40
1
 40
1
 40
1
 40
1
 10
133.222400
 20
35.723100
 30
0.0
 10
133.222400
 20
35.723100
 30
0.0
 10
133.222400
 20
127.325780
 30
0.0
 10
133.222400
 20
127.325780
 30
0.0
  0
SPLINE
  5
14e
100
AcDbEntity
  8
Layer_1
 62
7
100
AcDbSpline
 70
8
 71
3
 72
8
 73
4
 74
0
 40
0
 40
0
 40
0
 40
0
 40
1
 40
1
 40
1
 40
1
 10
133.222400
 20
127.325780
 30
0.0
 10
131.616126
 20
128.538714
 30
0.0
 10
129.947272
 20
129.666470
 30
0.0
 10
128.222730
 20
130.704390
 30
0.0
  0
LWPOLYLINE
  5
14f
100
AcDbEntity
  8
Layer_1
 62
7
100
AcDbPolyline
 90
2
 70
0
 10
118.222300
 20
135.491690
 30
0.0
 10
118.222300
 20
27.660020
 30
0.0
  0
SPLINE
  5
150
100
AcDbEntity
  8
Layer_1
 62
7
100
AcDbSpline
 70
8
 71
3
 72
8
 73
4
 74
0
 40
0
 40
0
 40
0
 40
0
 40
1
 40
1
 40
1
 40
1
 10
138.222630
 20
39.972450
 30
0.0
 10
140.000192
 20
41.637948
 30
0.0
 10
141.670123
 20
43.414718
 30
0.0
 10
143.222330
 20
45.292020
 30
0.0
  0
SPLINE
  5
151
100
AcDbEntity
  8
Layer_1
 62
7
100
AcDbSpline
 70
8
 71
3
 72
8
 73
4
 74
0
 40
0
 40
0
 40
0
 40
0
 40
1
 40
1
 40
1
 40
1
 10
143.222330
 20
45.292020
 30
0.0
 10
143.222330
 20
45.292020
 30
0.0
 10
143.222330
 20
117.762020
 30
0.0
 10
143.222330
 20
117.762020
 30
0.0
  0
SPLINE
  5
152
100
AcDbEntity
  8
Layer_1
 62
7
100
AcDbSpline
 70
8
 71
3
 72
8
 73
4
 74
0
 40
0
 40
0
 40
0
 40
0
 40
1
 40
1
 40
1
 40
1
 10
143.222330
 20
117.762020
 30
0.0
 10
141.670463
 20
119.642871
 30
0.0
 10
140.000524
 20
121.423102
 30
0.0
 10
138.222630
 20
123.091930
 30
0.0
  0
LWPOLYLINE
  5
153
100
AcDbEntity
  8
Layer_1
 62
7
100
AcDbPolyline
 90
2
 70
0
 10
128.222730
 20
130.704390
 30
0.0
 10
128.222730
 20
32.407540
 30
0.0
  0
SPLINE
  5
154
100
AcDbEntity
  8
Layer_1
 62
7
100
AcDbSpline
 70
8
 71
3
 72
8
 73
4
 74
0
 40
0
 40
0
 40
0
 40
0
 40
1
 40
1
 40
1
 40
1
 10
148.222530
 20
52.545840
 30
0.0
 10
153.375508
 20
61.332738
 30
0.0
 10
156.101737
 20
71.330820
 30
0.0
 10
156.122300
 20
81.517200
 30
0.0
  0
SPLINE
  5
155
100
AcDbEntity
  8
Layer_1
 62
7
100
AcDbSpline
 70
8
 71
3
 72
8
 73
4
 74
0
 40
0
 40
0
 40
0
 40
0
 40
1
 40
1
 40
1
 40
1
 10
156.122300
 20
81.517200
 30
0.0
 10
156.097712
 20
91.695862
 30
0.0
 10
153.371624
 20
101.685581
 30
0.0
 10
148.222530
 20
110.465820
 30
0.0
  0
LWPOLYLINE
  5
156
100
AcDbEntity
  8
Layer_1
 62
7
100
AcDbPolyline
 90
2
 70
0
 10
138.222630
 20
123.091930
 30
0.0
 10
138.222630
 20
39.972450
 30
0.0
  0
SPLINE
  5
157
100
AcDbEntity
  8
Layer_1
 62
7
100
AcDbSpline
 70
8
 71
3
 72
8
 73
4
 74
0
 40
0
 40
0
 40
0
 40
0
 40
1
 40
1
 40
1
 40
1
 10
46.472476
 20
31.517190
 30
0.0
 10
47.659888
 20
31.517190
 30
0.0
 10
48.622476
 20
30.554602
 30
0.0
 10
48.622476
 20
29.367190
 30
0.0
  0
SPLINE
  5
158
100
AcDbEntity
  8
Layer_1
 62
7
100
AcDbSpline
 70
8
 71
3
 72
8
 73
4
 74
0
 40
0
 40
0
 40
0
 40
0
 40
1
 40
1
 40
1
 40
1
 10
48.622476
 20
29.367190
 30
0.0
 10
48.622476
 20
28.179778
 30
0.0
 10
47.659888
 20
27.217190
 30
0.0
 10
46.472476
 20
27.217190
 30
0.0
  0
SPLINE
  5
159
100
AcDbEntity
  8
Layer_1
 62
7
100
AcDbSpline
 70
8
 71
3
 72
8
 73
4
 74
0
 40
0
 40
0
 40
0
 40
0
 40
1
 40
1
 40
1
 40
1
 10
46.472476
 20
27.217190
 30
0.0
 10
45.285064
 20
27.217190
 30
0.0
 10
44.322476
 20
28.179778
 30
0.0
 10
44.322476
 20
29.367190
 30
0.0
  0
SPLINE
  5
15a
100
AcDbEntity
  8
Layer_1
 62
7
100
AcDbSpline
 70
8
 71
3
 72
8
 73
4
 74
0
 40
0
 40
0
 40
0
 40
0
 40
1
 40
1
 40
1
 40
1
 10
44.322476
 20
29.367190
 30
0.0
 10
44.322476
 20
30.554602
 30
0.0
 10
45.285064
 20
31.517190
 30
0.0
 10
46.472476
 20
31.517190
 30
0.0
  0
LWPOLYLINE
  5
15b
100
AcDbEntity
  8
Layer_1
 62
7
100
AcDbPolyline
 90
2
 70
0
 10
148.222530
 20
110.465820
 30
0.0
 10
148.222530
 20
52.545840
 30
0.0
  0
SPLINE
  5
15c
100
AcDbEntity
  8
Layer_1
 62
7
100
AcDbSpline
 70
8
 71
3
 72
8
 73
4
 74
0
 40
0
 40
0
 40
0
 40
0
 40
1
 40
1
 40
1
 40
1
 10
151.272480
 20
31.517190
 30
0.0
 10
152.459892
 20
31.517190
 30
0.0
 10
153.422480
 20
30.554602
 30
0.0
 10
153.422480
 20
29.367190
 30
0.0
  0
SPLINE
  5
15d
100
AcDbEntity
  8
Layer_1
 62
7
100
AcDbSpline
 70
8
 71
3
 72
8
 73
4
 74
0
 40
0
 40
0
 40
0
 40
0
 40
1
 40
1
 40
1
 40
1
 10
153.422480
 20
29.367190
 30
0.0
 10
153.422480
 20
28.179778
 30
0.0
 10
152.459892
 20
27.217190
 30
0.0
 10
151.272480
 20
27.217190
 30
0.0
  0
SPLINE
  5
15e
100
AcDbEntity
  8
Layer_1
 62
7
100
AcDbSpline
 70
8
 71
3
 72
8
 73
4
 74
0
 40
0
 40
0
 40
0
 40
0
 40
1
 40
1
 40
1
 40
1
 10
151.272480
 20
27.217190
 30
0.0
 10
150.085068
 20
27.217190
 30
0.0
 10
149.122480
 20
28.179778
 30
0.0
 10
149.122480
 20
29.367190
 30
0.0
  0
SPLINE
  5
15f
100
AcDbEntity
  8
Layer_1
 62
7
100
AcDbSpline
 70
8
 71
3
 72
8
 73
4
 74
0
 40
0
 40
0
 40
0
 40
0
 40
1
 40
1
 40
1
 40
1
 10
149.122480
 20
29.367190
 30
0.0
 10
149.122480
 20
30.554602
 30
0.0
 10
150.085068
 20
31.517190
 30
0.0
 10
151.272480
 20
31.517190
 30
0.0
  0
LWPOLYLINE
  5
160
100
AcDbEntity
  8
Layer_1
 62
7
100
AcDbPolyline
 90
1
 70
1
 10
46.472476
 20
31.517190
 30
0.0
  0
SPLINE
  5
161
100
AcDbEntity
  8
Layer_1
 62
7
100
AcDbSpline
 70
8
 71
3
 72
8
 73
4
 74
0
 40
0
 40
0
 40
0
 40
0
 40
1
 40
1
 40
1
 40
1
 10
46.472476
 20
136.317180
 30
0.0
 10
47.659888
 20
136.317180
 30
0.0
 10
48.622476
 20
135.354592
 30
0.0
 10
48.622476
 20
134.167180
 30
0.0
  0
SPLINE
  5
162
100
AcDbEntity
  8
Layer_1
 62
7
100
AcDbSpline
 70
8
 71
3
 72
8
 73
4
 74
0
 40
0
 40
0
 40
0
 40
0
 40
1
 40
1
 40
1
 40
1
 10
48.622476
 20
134.167180
 30
0.0
 10
48.622476
 20
132.979768
 30
0.0
 10
47.659888
 20
132.017180
 30
0.0
 10
46.472476
 20
132.017180
 30
0.0
  0
SPLINE
  5
163
100
AcDbEntity
  8
Layer_1
 62
7
100
AcDbSpline
 70
8
 71
3
 72
8
 73
4
 74
0
 40
0
 40
0
 40
0
 40
0
 40
1
 40
1
 40
1
 40
1
 10
46.472476
 20
132.017180
 30
0.0
 10
45.285064
 20
132.017180
 30
0.0
 10
44.322476
 20
132.979768
 30
0.0
 10
44.322476
 20
134.167180
 30
0.0
  0
SPLINE
  5
164
100
AcDbEntity
  8
Layer_1
 62
7
100
AcDbSpline
 70
8
 71
3
 72
8
 73
4
 74
0
 40
0
 40
0
 40
0
 40
0
 40
1
 40
1
 40
1
 40
1
 10
44.322476
 20
134.167180
 30
0.0
 10
44.322476
 20
135.354592
 30
0.0
 10
45.285064
 20
136.317180
 30
0.0
 10
46.472476
 20
136.317180
 30
0.0
  0
LWPOLYLINE
  5
165
100
AcDbEntity
  8
Layer_1
 62
7
100
AcDbPolyline
 90
1
 70
1
 10
151.272480
 20
31.517190
 30
0.0
  0
SPLINE
  5
166
100
AcDbEntity
  8
Layer_1
 62
7
100
AcDbSpline
 70
8
 71
3
 72
8
 73
4
 74
0
 40
0
 40
0
 40
0
 40
0
 40
1
 40
1
 40
1
 40
1
 10
151.272480
 20
136.317180
 30
0.0
 10
152.459892
 20
136.317180
 30
0.0
 10
153.422480
 20
135.354592
 30
0.0
 10
153.422480
 20
134.167180
 30
0.0
  0
SPLINE
  5
167
100
AcDbEntity
  8
Layer_1
 62
7
100
AcDbSpline
 70
8
 71
3
 72
8
 73
4
 74
0
 40
0
 40
0
 40
0
 40
0
 40
1
 40
1
 40
1
 40
1
 10
153.422480
 20
134.167180
 30
0.0
 10
153.422480
 20
132.979768
 30
0.0
 10
152.459892
 20
132.017180
 30
0.0
 10
151.272480
 20
132.017180
 30
0.0
  0
SPLINE
  5
168
100
AcDbEntity
  8
Layer_1
 62
7
100
AcDbSpline
 70
8
 71
3
 72
8
 73
4
 74
0
 40
0
 40
0
 40
0
 40
0
 40
1
 40
1
 40
1
 40
1
 10
151.272480
 20
132.017180
 30
0.0
 10
150.085068
 20
132.017180
 30
0.0
 10
149.122480
 20
132.979768
 30
0.0
 10
149.122480
 20
134.167180
 30
0.0
  0
SPLINE
  5
169
100
AcDbEntity
  8
Layer_1
 62
7
100
AcDbSpline
 70
8
 71
3
 72
8
 73
4
 74
0
 40
0
 40
0
 40
0
 40
0
 40
1
 40
1
 40
1
 40
1
 10
149.122480
 20
134.167180
 30
0.0
 10
149.122480
 20
135.354592
 30
0.0
 10
150.085068
 20
136.317180
 30
0.0
 10
151.272480
 20
136.317180
 30
0.0
  0
LWPOLYLINE
  5
16a
100
AcDbEntity
  8
Layer_1
 62
7
100
AcDbPolyline
 90
1
 70
1
 10
46.472476
 20
136.317180
 30
0.0
  0
LWPOLYLINE
  5
16b
100
AcDbEntity
  8
Layer_1
 62
7
100
AcDbPolyline
 90
1
 70
1
 10
151.272480
 20
136.317180
 30
0.0
  0
ENDSEC
  0
SECTION
  2
OBJECTS
  0
DICTIONARY
  5
C
330
0
100
AcDbDictionary
  3
ACAD_GROUP
350
D
  3
ACAD_MLINESTYLE
350
17
  0
DICTIONARY
  5
D
330
C
100
AcDbDictionary
  0
DICTIONARY
  5
1A
330
C
100
AcDbDictionary
  0
DICTIONARY
  5
17
330
C
100
AcDbDictionary
  3
STANDARD
350
18
  0
DICTIONARY
  5
19
330
C
100
AcDbDictionary
  0
ENDSEC
  0
EOF
