  0
SECTION
  2
HEADER
  9
$ACADVER
  1
AC1014
  9
$HANDSEED
  5
FFFF
  9
$MEASUREMENT
 70
     1
  0
ENDSEC
  0
SECTION
  2
TABLES
  0
TABLE
  2
VPORT
  5
8
330
0
100
AcDbSymbolTable
 70
     4
  0
VPORT
  5
2E
330
8
100
AcDbSymbolTableRecord
100
AcDbViewportTableRecord
  2
*ACTIVE
 70
     0
 10
0.0
 20
0.0
 11
1.0
 21
1.0
 12
210.0
 22
148.5
 13
0.0
 23
0.0
 14
10.0
 24
10.0
 15
10.0
 25
10.0
 16
0.0
 26
0.0
 36
1.0
 17
0.0
 27
0.0
 37
0.0
 40
341.0
 41
1.24
 42
50.0
 43
0.0
 44
0.0
 50
0.0
 51
0.0
 71
     0
 72
   100
 73
     1
 74
     3
 75
     0
 76
     0
 77
     0
 78
     0
  0
ENDTAB
  0
TABLE
  2
LTYPE
  5
5
330
0
100
AcDbSymbolTable
 70
     1
  0
LTYPE
  5
14
330
5
100
AcDbSymbolTableRecord
100
AcDbLinetypeTableRecord
  2
BYBLOCK
 70
     0
  3

 72
    65
 73
     0
 40
0.0
  0
LTYPE
  5
15
330
5
100
AcDbSymbolTableRecord
100
AcDbLinetypeTableRecord
  2
BYLAYER
 70
     0
  3

 72
    65
 73
     0
 40
0.0
  0
LTYPE
  5
16
330
5
100
AcDbSymbolTableRecord
100
AcDbLinetypeTableRecord
  2
CONTINUOUS
 70
     0
  3
Solid line
 72
    65
 73
     0
 40
0.0
  0
ENDTAB
  0
TABLE
  2
LAYER
  5
2
100
AcDbSymbolTable
 70
2
  0
LAYER
  5
50
100
AcDbSymbolTableRecord
100
AcDbLayerTableRecord
  2
0
 70
0
  6
CONTINUOUS
  0
LAYER
  5
51
100
AcDbSymbolTableRecord
100
AcDbLayerTableRecord
  2
Layer_1
 70
0
  6
CONTINUOUS
  0
ENDTAB
  0
TABLE
  2
STYLE
  5
3
330
0
100
AcDbSymbolTable
 70
     1
  0
STYLE
  5
11
330
3
100
AcDbSymbolTableRecord
100
AcDbTextStyleTableRecord
  2
STANDARD
 70
     0
 40
0.0
 41
1.0
 50
0.0
 71
     0
 42
2.5
  3
txt
  4

  0
ENDTAB
  0
TABLE
  2
VIEW
  5
6
330
0
100
AcDbSymbolTable
 70
     0
  0
ENDTAB
  0
TABLE
  2
UCS
  5
7
330
0
100
AcDbSymbolTable
 70
     0
  0
ENDTAB
  0
TABLE
  2
APPID
  5
9
330
0
100
AcDbSymbolTable
 70
     2
  0
APPID
  5
12
330
9
100
AcDbSymbolTableRecord
100
AcDbRegAppTableRecord
  2
ACAD
 70
     0
  0
ENDTAB
  0
TABLE
  2
DIMSTYLE
  5
A
330
0
100
AcDbSymbolTable
 70
     1
  0
DIMSTYLE
105
27
330
A
100
AcDbSymbolTableRecord
100
AcDbDimStyleTableRecord
  2
ISO-25
 70
     0
  3

  4

  5

  6

  7

 40
1.0
 41
2.5
 42
0.625
 43
3.75
 44
1.25
 45
0.0
 46
0.0
 47
0.0
 48
0.0
140
2.5
141
2.5
142
0.0
143
0.03937007874016
144
1.0
145
0.0
146
1.0
147
0.625
 71
     0
 72
     0
 73
     0
 74
     0
 75
     0
 76
     0
 77
     1
 78
     8
170
     0
171
     3
172
     1
173
     0
174
     0
175
     0
176
     0
177
     0
178
     0
270
     2
271
     2
272
     2
273
     2
274
     3
340
11
275
     0
280
     0
281
     0
282
     0
283
     0
284
     8
285
     0
286
     0
287
     3
288
     0
  0
ENDTAB
  0
TABLE
  2
BLOCK_RECORD
  5
1
330
0
100
AcDbSymbolTable
 70
     1
  0
BLOCK_RECORD
  5
1F
330
1
100
AcDbSymbolTableRecord
100
AcDbBlockTableRecord
  2
*MODEL_SPACE
  0
BLOCK_RECORD
  5
1B
330
1
100
AcDbSymbolTableRecord
100
AcDbBlockTableRecord
  2
*PAPER_SPACE
  0
ENDTAB
  0
ENDSEC
  0
SECTION
  2
BLOCKS
  0
BLOCK
  5
20
330
1F
100
AcDbEntity
  8
0
100
AcDbBlockBegin
  2
*MODEL_SPACE
 70
     0
 10
0.0
 20
0.0
 30
0.0
  3
*MODEL_SPACE
  1

  0
ENDBLK
  5
21
330
1F
100
AcDbEntity
  8
0
100
AcDbBlockEnd
  0
BLOCK
  5
1C
330
1B
100
AcDbEntity
 67
     1
  8
0
100
AcDbBlockBegin
  2
*PAPER_SPACE
  1

  0
ENDBLK
  5
1D
330
1B
100
AcDbEntity
 67
     1
  8
0
100
AcDbBlockEnd
  0
ENDSEC
  0
SECTION
  2
ENTITIES
  0
SPLINE
  5
100
100
AcDbEntity
  8
Layer_1
 62
7
100
AcDbSpline
 70
8
 71
3
 72
8
 73
4
 74
0
 40
0
 40
0
 40
0
 40
0
 40
1
 40
1
 40
1
 40
1
 10
63.118567
 20
31.588560
 30
0.0
 10
63.118567
 20
30.999072
 30
0.0
 10
62.804079
 20
30.454362
 30
0.0
 10
62.293567
 20
30.159618
 30
0.0
  0
SPLINE
  5
101
100
AcDbEntity
  8
Layer_1
 62
7
100
AcDbSpline
 70
8
 71
3
 72
8
 73
4
 74
0
 40
0
 40
0
 40
0
 40
0
 40
1
 40
1
 40
1
 40
1
 10
62.293567
 20
30.159618
 30
0.0
 10
61.783055
 20
29.864874
 30
0.0
 10
61.154079
 20
29.864874
 30
0.0
 10
60.643567
 20
30.159618
 30
0.0
  0
SPLINE
  5
102
100
AcDbEntity
  8
Layer_1
 62
7
100
AcDbSpline
 70
8
 71
3
 72
8
 73
4
 74
0
 40
0
 40
0
 40
0
 40
0
 40
1
 40
1
 40
1
 40
1
 10
60.643567
 20
30.159618
 30
0.0
 10
60.133055
 20
30.454362
 30
0.0
 10
59.818567
 20
30.999072
 30
0.0
 10
59.818567
 20
31.588560
 30
0.0
  0
SPLINE
  5
103
100
AcDbEntity
  8
Layer_1
 62
7
100
AcDbSpline
 70
8
 71
3
 72
8
 73
4
 74
0
 40
0
 40
0
 40
0
 40
0
 40
1
 40
1
 40
1
 40
1
 10
59.818567
 20
31.588560
 30
0.0
 10
59.818567
 20
32.178048
 30
0.0
 10
60.133055
 20
32.722758
 30
0.0
 10
60.643567
 20
33.017502
 30
0.0
  0
SPLINE
  5
104
100
AcDbEntity
  8
Layer_1
 62
7
100
AcDbSpline
 70
8
 71
3
 72
8
 73
4
 74
0
 40
0
 40
0
 40
0
 40
0
 40
1
 40
1
 40
1
 40
1
 10
60.643567
 20
33.017502
 30
0.0
 10
61.154079
 20
33.312246
 30
0.0
 10
61.783055
 20
33.312246
 30
0.0
 10
62.293567
 20
33.017502
 30
0.0
  0
SPLINE
  5
105
100
AcDbEntity
  8
Layer_1
 62
7
100
AcDbSpline
 70
8
 71
3
 72
8
 73
4
 74
0
 40
0
 40
0
 40
0
 40
0
 40
1
 40
1
 40
1
 40
1
 10
62.293567
 20
33.017502
 30
0.0
 10
62.804079
 20
32.722758
 30
0.0
 10
63.118567
 20
32.178048
 30
0.0
 10
63.118567
 20
31.588560
 30
0.0
  0
LWPOLYLINE
  5
106
100
AcDbEntity
  8
Layer_1
 62
7
100
AcDbPolyline
 90
228
 70
1
 10
0.500000
 20
156.500000
 30
0.0
 10
7.045590
 20
156.500000
 30
0.0
 10
7.045590
 20
153.500000
 30
0.0
 10
12.895590
 20
153.500000
 30
0.0
 10
12.895590
 20
156.500000
 30
0.0
 10
19.516180
 20
156.500000
 30
0.0
 10
19.516180
 20
153.500000
 30
0.0
 10
25.366180
 20
153.500000
 30
0.0
 10
25.366180
 20
156.500000
 30
0.0
 10
31.986760
 20
156.500000
 30
0.0
 10
31.986760
 20
153.500000
 30
0.0
 10
37.836761
 20
153.500000
 30
0.0
 10
37.836761
 20
156.500000
 30
0.0
 10
44.457350
 20
156.500000
 30
0.0
 10
44.457350
 20
153.500000
 30
0.0
 10
50.307351
 20
153.500000
 30
0.0
 10
50.307351
 20
156.500000
 30
0.0
 10
56.927940
 20
156.500000
 30
0.0
 10
56.927940
 20
153.500000
 30
0.0
 10
62.777941
 20
153.500000
 30
0.0
 10
62.777941
 20
156.500000
 30
0.0
 10
69.398531
 20
156.500000
 30
0.0
 10
69.398531
 20
153.500000
 30
0.0
 10
75.248532
 20
153.500000
 30
0.0
 10
75.248532
 20
156.500000
 30
0.0
 10
81.869121
 20
156.500000
 30
0.0
 10
81.869121
 20
153.500000
 30
0.0
 10
87.719122
 20
153.500000
 30
0.0
 10
87.719122
 20
156.500000
 30
0.0
 10
94.339712
 20
156.500000
 30
0.0
 10
94.339712
 20
153.500000
 30
0.0
 10
100.189710
 20
153.500000
 30
0.0
 10
100.189710
 20
156.500000
 30
0.0
 10
106.810290
 20
156.500000
 30
0.0
 10
106.810290
 20
153.500000
 30
0.0
 10
112.660290
 20
153.500000
 30
0.0
 10
112.660290
 20
156.500000
 30
0.0
 10
119.280880
 20
156.500000
 30
0.0
 10
119.280880
 20
153.500000
 30
0.0
 10
125.130880
 20
153.500000
 30
0.0
 10
125.130880
 20
156.500000
 30
0.0
 10
131.751470
 20
156.500000
 30
0.0
 10
131.751470
 20
153.500000
 30
0.0
 10
137.601470
 20
153.500000
 30
0.0
 10
137.601470
 20
156.500000
 30
0.0
 10
144.222060
 20
156.500000
 30
0.0
 10
144.222060
 20
153.500000
 30
0.0
 10
150.072060
 20
153.500000
 30
0.0
 10
150.072060
 20
156.500000
 30
0.0
 10
156.692650
 20
156.500000
 30
0.0
 10
156.692650
 20
153.500000
 30
0.0
 10
162.542650
 20
153.500000
 30
0.0
 10
162.542650
 20
156.500000
 30
0.0
 10
169.163240
 20
156.500000
 30
0.0
 10
169.163240
 20
153.500000
 30
0.0
 10
175.013240
 20
153.500000
 30
0.0
 10
175.013240
 20
156.500000
 30
0.0
 10
181.633820
 20
156.500000
 30
0.0
 10
181.633820
 20
153.500000
 30
0.0
 10
187.483820
 20
153.500000
 30
0.0
 10
187.483820
 20
156.500000
 30
0.0
 10
194.104410
 20
156.500000
 30
0.0
 10
194.104410
 20
153.500000
 30
0.0
 10
199.954410
 20
153.500000
 30
0.0
 10
199.954410
 20
156.500000
 30
0.0
 10
206.500000
 20
156.500000
 30
0.0
 10
206.500000
 20
149.963460
 30
0.0
 10
203.500000
 20
149.963460
 30
0.0
 10
203.500000
 20
144.113460
 30
0.0
 10
206.500000
 20
144.113460
 30
0.0
 10
206.500000
 20
137.501920
 30
0.0
 10
203.500000
 20
137.501920
 30
0.0
 10
203.500000
 20
131.651920
 30
0.0
 10
206.500000
 20
131.651920
 30
0.0
 10
206.500000
 20
125.040380
 30
0.0
 10
203.500000
 20
125.040380
 30
0.0
 10
203.500000
 20
119.190380
 30
0.0
 10
206.500000
 20
119.190380
 30
0.0
 10
206.500000
 20
112.578850
 30
0.0
 10
203.500000
 20
112.578850
 30
0.0
 10
203.500000
 20
106.728850
 30
0.0
 10
206.500000
 20
106.728850
 30
0.0
 10
206.500000
 20
100.117310
 30
0.0
 10
203.500000
 20
100.117310
 30
0.0
 10
203.500000
 20
94.267310
 30
0.0
 10
206.500000
 20
94.267310
 30
0.0
 10
206.500000
 20
87.655770
 30
0.0
 10
203.500000
 20
87.655770
 30
0.0
 10
203.500000
 20
81.805770
 30
0.0
 10
206.500000
 20
81.805770
 30
0.0
 10
206.500000
 20
75.194230
 30
0.0
 10
203.500000
 20
75.194230
 30
0.0
 10
203.500000
 20
69.344230
 30
0.0
 10
206.500000
 20
69.344230
 30
0.0
 10
206.500000
 20
62.732690
 30
0.0
 10
203.500000
 20
62.732690
 30
0.0
 10
203.500000
 20
56.882690
 30
0.0
 10
206.500000
 20
56.882690
 30
0.0
 10
206.500000
 20
50.271150
 30
0.0
 10
203.500000
 20
50.271150
 30
0.0
 10
203.500000
 20
44.421150
 30
0.0
 10
206.500000
 20
44.421150
 30
0.0
 10
206.500000
 20
37.809620
 30
0.0
 10
203.500000
 20
37.809620
 30
0.0
 10
203.500000
 20
31.959620
 30
0.0
 10
206.500000
 20
31.959620
 30
0.0
 10
206.500000
 20
25.348080
 30
0.0
 10
203.500000
 20
25.348080
 30
0.0
 10
203.500000
 20
19.498080
 30
0.0
 10
206.500000
 20
19.498080
 30
0.0
 10
206.500000
 20
12.886540
 30
0.0
 10
203.500000
 20
12.886540
 30
0.0
 10
203.500000
 20
7.036540
 30
0.0
 10
206.500000
 20
7.036540
 30
0.0
 10
206.500000
 20
0.500000
 30
0.0
 10
199.954410
 20
0.500000
 30
0.0
 10
199.954410
 20
3.500000
 30
0.0
 10
194.104410
 20
3.500000
 30
0.0
 10
194.104410
 20
0.500000
 30
0.0
 10
187.483820
 20
0.500000
 30
0.0
 10
187.483820
 20
3.500000
 30
0.0
 10
181.633820
 20
3.500000
 30
0.0
 10
181.633820
 20
0.500000
 30
0.0
 10
175.013240
 20
0.500000
 30
0.0
 10
175.013240
 20
3.500000
 30
0.0
 10
169.163240
 20
3.500000
 30
0.0
 10
169.163240
 20
0.500000
 30
0.0
 10
162.542650
 20
0.500000
 30
0.0
 10
162.542650
 20
3.500000
 30
0.0
 10
156.692650
 20
3.500000
 30
0.0
 10
156.692650
 20
0.500000
 30
0.0
 10
150.072060
 20
0.500000
 30
0.0
 10
150.072060
 20
3.500000
 30
0.0
 10
144.222060
 20
3.500000
 30
0.0
 10
144.222060
 20
0.500000
 30
0.0
 10
137.601470
 20
0.500000
 30
0.0
 10
137.601470
 20
3.500000
 30
0.0
 10
131.751470
 20
3.500000
 30
0.0
 10
131.751470
 20
0.500000
 30
0.0
 10
125.130880
 20
0.500000
 30
0.0
 10
125.130880
 20
3.500000
 30
0.0
 10
119.280880
 20
3.500000
 30
0.0
 10
119.280880
 20
0.500000
 30
0.0
 10
112.660290
 20
0.500000
 30
0.0
 10
112.660290
 20
3.500000
 30
0.0
 10
106.810290
 20
3.500000
 30
0.0
 10
106.810290
 20
0.500000
 30
0.0
 10
100.189710
 20
0.500000
 30
0.0
 10
100.189710
 20
3.500000
 30
0.0
 10
94.339712
 20
3.500000
 30
0.0
 10
94.339712
 20
0.500000
 30
0.0
 10
87.719122
 20
0.500000
 30
0.0
 10
87.719122
 20
3.500000
 30
0.0
 10
81.869121
 20
3.500000
 30
0.0
 10
81.869121
 20
0.500000
 30
0.0
 10
75.248532
 20
0.500000
 30
0.0
 10
75.248532
 20
3.500000
 30
0.0
 10
69.398531
 20
3.500000
 30
0.0
 10
69.398531
 20
0.500000
 30
0.0
 10
62.777942
 20
0.500000
 30
0.0
 10
62.777942
 20
3.500000
 30
0.0
 10
56.927941
 20
3.500000
 30
0.0
 10
56.927941
 20
0.500000
 30
0.0
 10
50.307351
 20
0.500000
 30
0.0
 10
50.307351
 20
3.500000
 30
0.0
 10
44.457350
 20
3.500000
 30
0.0
 10
44.457350
 20
0.500000
 30
0.0
 10
37.836761
 20
0.500000
 30
0.0
 10
37.836761
 20
3.500000
 30
0.0
 10
31.986760
 20
3.500000
 30
0.0
 10
31.986760
 20
0.500000
 30
0.0
 10
25.366180
 20
0.500000
 30
0.0
 10
25.366180
 20
3.500000
 30
0.0
 10
19.516180
 20
3.500000
 30
0.0
 10
19.516180
 20
0.500000
 30
0.0
 10
12.895590
 20
0.500000
 30
0.0
 10
12.895590
 20
3.500000
 30
0.0
 10
7.045590
 20
3.500000
 30
0.0
 10
7.045590
 20
0.500000
 30
0.0
 10
0.500000
 20
0.500000
 30
0.0
 10
0.500000
 20
7.036540
 30
0.0
 10
3.500000
 20
7.036540
 30
0.0
 10
3.500000
 20
12.886540
 30
0.0
 10
0.500000
 20
12.886540
 30
0.0
 10
0.500000
 20
19.498080
 30
0.0
 10
3.500000
 20
19.498080
 30
0.0
 10
3.500000
 20
25.348080
 30
0.0
 10
0.500000
 20
25.348080
 30
0.0
 10
0.500000
 20
31.959620
 30
0.0
 10
3.500000
 20
31.959620
 30
0.0
 10
3.500000
 20
37.809620
 30
0.0
 10
0.500000
 20
37.809620
 30
0.0
 10
0.500000
 20
44.421150
 30
0.0
 10
3.500000
 20
44.421150
 30
0.0
 10
3.500000
 20
50.271150
 30
0.0
 10
0.500000
 20
50.271150
 30
0.0
 10
0.500000
 20
56.882690
 30
0.0
 10
3.500000
 20
56.882690
 30
0.0
 10
3.500000
 20
62.732690
 30
0.0
 10
0.500000
 20
62.732690
 30
0.0
 10
0.500000
 20
69.344230
 30
0.0
 10
3.500000
 20
69.344230
 30
0.0
 10
3.500000
 20
75.194230
 30
0.0
 10
0.500000
 20
75.194230
 30
0.0
 10
0.500000
 20
81.805770
 30
0.0
 10
3.500000
 20
81.805770
 30
0.0
 10
3.500000
 20
87.655770
 30
0.0
 10
0.500000
 20
87.655770
 30
0.0
 10
0.500000
 20
94.267310
 30
0.0
 10
3.500000
 20
94.267310
 30
0.0
 10
3.500000
 20
100.117310
 30
0.0
 10
0.500000
 20
100.117310
 30
0.0
 10
0.500000
 20
106.728850
 30
0.0
 10
3.500000
 20
106.728850
 30
0.0
 10
3.500000
 20
112.578850
 30
0.0
 10
0.500000
 20
112.578850
 30
0.0
 10
0.500000
 20
119.190380
 30
0.0
 10
3.500000
 20
119.190380
 30
0.0
 10
3.500000
 20
125.040380
 30
0.0
 10
0.500000
 20
125.040380
 30
0.0
 10
0.500000
 20
131.651920
 30
0.0
 10
3.500000
 20
131.651920
 30
0.0
 10
3.500000
 20
137.501920
 30
0.0
 10
0.500000
 20
137.501920
 30
0.0
 10
0.500000
 20
144.113460
 30
0.0
 10
3.500000
 20
144.113460
 30
0.0
 10
3.500000
 20
149.963460
 30
0.0
 10
0.500000
 20
149.963460
 30
0.0
  0
SPLINE
  5
107
100
AcDbEntity
  8
Layer_1
 62
7
100
AcDbSpline
 70
8
 71
3
 72
8
 73
4
 74
0
 40
0
 40
0
 40
0
 40
0
 40
1
 40
1
 40
1
 40
1
 10
144.288580
 20
31.588560
 30
0.0
 10
144.288580
 20
30.999072
 30
0.0
 10
143.974092
 20
30.454362
 30
0.0
 10
143.463580
 20
30.159618
 30
0.0
  0
SPLINE
  5
108
100
AcDbEntity
  8
Layer_1
 62
7
100
AcDbSpline
 70
8
 71
3
 72
8
 73
4
 74
0
 40
0
 40
0
 40
0
 40
0
 40
1
 40
1
 40
1
 40
1
 10
143.463580
 20
30.159618
 30
0.0
 10
142.953068
 20
29.864874
 30
0.0
 10
142.324092
 20
29.864874
 30
0.0
 10
141.813580
 20
30.159618
 30
0.0
  0
SPLINE
  5
109
100
AcDbEntity
  8
Layer_1
 62
7
100
AcDbSpline
 70
8
 71
3
 72
8
 73
4
 74
0
 40
0
 40
0
 40
0
 40
0
 40
1
 40
1
 40
1
 40
1
 10
141.813580
 20
30.159618
 30
0.0
 10
141.303068
 20
30.454362
 30
0.0
 10
140.988580
 20
30.999072
 30
0.0
 10
140.988580
 20
31.588560
 30
0.0
  0
SPLINE
  5
10a
100
AcDbEntity
  8
Layer_1
 62
7
100
AcDbSpline
 70
8
 71
3
 72
8
 73
4
 74
0
 40
0
 40
0
 40
0
 40
0
 40
1
 40
1
 40
1
 40
1
 10
140.988580
 20
31.588560
 30
0.0
 10
140.988580
 20
32.178048
 30
0.0
 10
141.303068
 20
32.722758
 30
0.0
 10
141.813580
 20
33.017502
 30
0.0
  0
SPLINE
  5
10b
100
AcDbEntity
  8
Layer_1
 62
7
100
AcDbSpline
 70
8
 71
3
 72
8
 73
4
 74
0
 40
0
 40
0
 40
0
 40
0
 40
1
 40
1
 40
1
 40
1
 10
141.813580
 20
33.017502
 30
0.0
 10
142.324092
 20
33.312246
 30
0.0
 10
142.953068
 20
33.312246
 30
0.0
 10
143.463580
 20
33.017502
 30
0.0
  0
SPLINE
  5
10c
100
AcDbEntity
  8
Layer_1
 62
7
100
AcDbSpline
 70
8
 71
3
 72
8
 73
4
 74
0
 40
0
 40
0
 40
0
 40
0
 40
1
 40
1
 40
1
 40
1
 10
143.463580
 20
33.017502
 30
0.0
 10
143.974092
 20
32.722758
 30
0.0
 10
144.288580
 20
32.178048
 30
0.0
 10
144.288580
 20
31.588560
 30
0.0
  0
LWPOLYLINE
  5
10d
100
AcDbEntity
  8
Layer_1
 62
7
100
AcDbPolyline
 90
1
 70
1
 10
63.118567
 20
31.588560
 30
0.0
  0
SPLINE
  5
10e
100
AcDbEntity
  8
Layer_1
 62
7
100
AcDbSpline
 70
8
 71
3
 72
8
 73
4
 74
0
 40
0
 40
0
 40
0
 40
0
 40
1
 40
1
 40
1
 40
1
 10
144.288580
 20
108.248570
 30
0.0
 10
144.288580
 20
107.659082
 30
0.0
 10
143.974092
 20
107.114372
 30
0.0
 10
143.463580
 20
106.819628
 30
0.0
  0
SPLINE
  5
10f
100
AcDbEntity
  8
Layer_1
 62
7
100
AcDbSpline
 70
8
 71
3
 72
8
 73
4
 74
0
 40
0
 40
0
 40
0
 40
0
 40
1
 40
1
 40
1
 40
1
 10
143.463580
 20
106.819628
 30
0.0
 10
142.953068
 20
106.524884
 30
0.0
 10
142.324092
 20
106.524884
 30
0.0
 10
141.813580
 20
106.819628
 30
0.0
  0
SPLINE
  5
110
100
AcDbEntity
  8
Layer_1
 62
7
100
AcDbSpline
 70
8
 71
3
 72
8
 73
4
 74
0
 40
0
 40
0
 40
0
 40
0
 40
1
 40
1
 40
1
 40
1
 10
141.813580
 20
106.819628
 30
0.0
 10
141.303068
 20
107.114372
 30
0.0
 10
140.988580
 20
107.659082
 30
0.0
 10
140.988580
 20
108.248570
 30
0.0
  0
SPLINE
  5
111
100
AcDbEntity
  8
Layer_1
 62
7
100
AcDbSpline
 70
8
 71
3
 72
8
 73
4
 74
0
 40
0
 40
0
 40
0
 40
0
 40
1
 40
1
 40
1
 40
1
 10
140.988580
 20
108.248570
 30
0.0
 10
140.988580
 20
108.838058
 30
0.0
 10
141.303068
 20
109.382768
 30
0.0
 10
141.813580
 20
109.677512
 30
0.0
  0
SPLINE
  5
112
100
AcDbEntity
  8
Layer_1
 62
7
100
AcDbSpline
 70
8
 71
3
 72
8
 73
4
 74
0
 40
0
 40
0
 40
0
 40
0
 40
1
 40
1
 40
1
 40
1
 10
141.813580
 20
109.677512
 30
0.0
 10
142.324092
 20
109.972256
 30
0.0
 10
142.953068
 20
109.972256
 30
0.0
 10
143.463580
 20
109.677512
 30
0.0
  0
SPLINE
  5
113
100
AcDbEntity
  8
Layer_1
 62
7
100
AcDbSpline
 70
8
 71
3
 72
8
 73
4
 74
0
 40
0
 40
0
 40
0
 40
0
 40
1
 40
1
 40
1
 40
1
 10
143.463580
 20
109.677512
 30
0.0
 10
143.974092
 20
109.382768
 30
0.0
 10
144.288580
 20
108.838058
 30
0.0
 10
144.288580
 20
108.248570
 30
0.0
  0
LWPOLYLINE
  5
114
100
AcDbEntity
  8
Layer_1
 62
7
100
AcDbPolyline
 90
1
 70
1
 10
144.288580
 20
31.588560
 30
0.0
  0
SPLINE
  5
115
100
AcDbEntity
  8
Layer_1
 62
7
100
AcDbSpline
 70
8
 71
3
 72
8
 73
4
 74
0
 40
0
 40
0
 40
0
 40
0
 40
1
 40
1
 40
1
 40
1
 10
63.118567
 20
109.018570
 30
0.0
 10
63.118567
 20
108.429082
 30
0.0
 10
62.804079
 20
107.884372
 30
0.0
 10
62.293567
 20
107.589628
 30
0.0
  0
SPLINE
  5
116
100
AcDbEntity
  8
Layer_1
 62
7
100
AcDbSpline
 70
8
 71
3
 72
8
 73
4
 74
0
 40
0
 40
0
 40
0
 40
0
 40
1
 40
1
 40
1
 40
1
 10
62.293567
 20
107.589628
 30
0.0
 10
61.783055
 20
107.294884
 30
0.0
 10
61.154079
 20
107.294884
 30
0.0
 10
60.643567
 20
107.589628
 30
0.0
  0
SPLINE
  5
117
100
AcDbEntity
  8
Layer_1
 62
7
100
AcDbSpline
 70
8
 71
3
 72
8
 73
4
 74
0
 40
0
 40
0
 40
0
 40
0
 40
1
 40
1
 40
1
 40
1
 10
60.643567
 20
107.589628
 30
0.0
 10
60.133055
 20
107.884372
 30
0.0
 10
59.818567
 20
108.429082
 30
0.0
 10
59.818567
 20
109.018570
 30
0.0
  0
SPLINE
  5
118
100
AcDbEntity
  8
Layer_1
 62
7
100
AcDbSpline
 70
8
 71
3
 72
8
 73
4
 74
0
 40
0
 40
0
 40
0
 40
0
 40
1
 40
1
 40
1
 40
1
 10
59.818567
 20
109.018570
 30
0.0
 10
59.818567
 20
109.608058
 30
0.0
 10
60.133055
 20
110.152768
 30
0.0
 10
60.643567
 20
110.447512
 30
0.0
  0
SPLINE
  5
119
100
AcDbEntity
  8
Layer_1
 62
7
100
AcDbSpline
 70
8
 71
3
 72
8
 73
4
 74
0
 40
0
 40
0
 40
0
 40
0
 40
1
 40
1
 40
1
 40
1
 10
60.643567
 20
110.447512
 30
0.0
 10
61.154079
 20
110.742256
 30
0.0
 10
61.783055
 20
110.742256
 30
0.0
 10
62.293567
 20
110.447512
 30
0.0
  0
SPLINE
  5
11a
100
AcDbEntity
  8
Layer_1
 62
7
100
AcDbSpline
 70
8
 71
3
 72
8
 73
4
 74
0
 40
0
 40
0
 40
0
 40
0
 40
1
 40
1
 40
1
 40
1
 10
62.293567
 20
110.447512
 30
0.0
 10
62.804079
 20
110.152768
 30
0.0
 10
63.118567
 20
109.608058
 30
0.0
 10
63.118567
 20
109.018570
 30
0.0
  0
LWPOLYLINE
  5
11b
100
AcDbEntity
  8
Layer_1
 62
7
100
AcDbPolyline
 90
1
 70
1
 10
144.288580
 20
108.248570
 30
0.0
  0
LWPOLYLINE
  5
11c
100
AcDbEntity
  8
Layer_1
 62
7
100
AcDbPolyline
 90
1
 70
1
 10
63.118567
 20
109.018570
 30
0.0
  0
ENDSEC
  0
SECTION
  2
OBJECTS
  0
DICTIONARY
  5
C
330
0
100
AcDbDictionary
  3
ACAD_GROUP
350
D
  3
ACAD_MLINESTYLE
350
17
  0
DICTIONARY
  5
D
330
C
100
AcDbDictionary
  0
DICTIONARY
  5
1A
330
C
100
AcDbDictionary
  0
DICTIONARY
  5
17
330
C
100
AcDbDictionary
  3
STANDARD
350
18
  0
DICTIONARY
  5
19
330
C
100
AcDbDictionary
  0
ENDSEC
  0
EOF
