<?xml version="1.0" encoding="UTF-8" standalone="no"?>
<!-- Created with Inkscape (http://www.inkscape.org/) -->

<svg
   xmlns:dc="http://purl.org/dc/elements/1.1/"
   xmlns:cc="http://creativecommons.org/ns#"
   xmlns:rdf="http://www.w3.org/1999/02/22-rdf-syntax-ns#"
   xmlns:svg="http://www.w3.org/2000/svg"
   xmlns="http://www.w3.org/2000/svg"
   xmlns:sodipodi="http://sodipodi.sourceforge.net/DTD/sodipodi-0.dtd"
   xmlns:inkscape="http://www.inkscape.org/namespaces/inkscape"
   width="300mm"
   height="250mm"
   viewBox="0 0 300 250"
   version="1.1"
   id="svg3278"
   sodipodi:docname="bottom.svg"
   inkscape:version="0.92.1 r15371">
  <defs
     id="defs3272" />
  <sodipodi:namedview
     id="base"
     pagecolor="#ffffff"
     bordercolor="#666666"
     borderopacity="1.0"
     inkscape:pageopacity="0.0"
     inkscape:pageshadow="2"
     inkscape:zoom="0.35"
     inkscape:cx="400"
     inkscape:cy="560"
     inkscape:document-units="mm"
     inkscape:current-layer="layer1"
     showgrid="false"
     inkscape:window-width="1920"
     inkscape:window-height="1017"
     inkscape:window-x="1912"
     inkscape:window-y="-8"
     inkscape:window-maximized="1" />
  <metadata
     id="metadata3275">
    <rdf:RDF>
      <cc:Work
         rdf:about="">
        <dc:format>image/svg+xml</dc:format>
        <dc:type
           rdf:resource="http://purl.org/dc/dcmitype/StillImage" />
        <dc:title />
      </cc:Work>
    </rdf:RDF>
  </metadata>
  <g
     inkscape:label="Layer 1"
     inkscape:groupmode="layer"
     id="layer1"
     transform="translate(0,-47)">
    <path
       inkscape:connector-curvature="0"
       id="path3185"
       inkscape:label="part"
       style="fill:none;stroke:#000000;stroke-width:1"
       d="m 0.5,140.5 h 6.5455901 v 3 H 12.89559 v -3 h 6.62059 v 3 h 5.85 v -3 h 6.62058 v 3 h 5.850001 v -3 h 6.620589 v 3 h 5.850001 v -3 h 6.620589 v 3 h 5.850001 v -3 h 6.62059 v 3 h 5.850001 v -3 h 6.620589 v 3 h 5.850001 v -3 h 6.62059 v 3 h 5.849998 v -3 h 6.62058 v 3 h 5.85 v -3 h 6.62059 v 3 h 5.85 v -3 h 6.62059 v 3 h 5.85 v -3 h 6.62059 v 3 h 5.85 v -3 h 6.62059 v 3 h 5.85 v -3 h 6.62059 v 3 h 5.85 v -3 h 6.62058 v 3 h 5.85 v -3 h 6.62059 v 3 h 5.85 v -3 H 206.5" />
    <path
       inkscape:connector-curvature="0"
       id="path3187"
       inkscape:label="part"
       style="fill:none;stroke:#000000;stroke-width:1"
       d="m 206.5,140.5 v 6.53654 h -3 v 5.85 h 3 v 6.61154 h -3 v 5.85 h 3 v 6.61154 h -3 v 5.85 h 3 v 6.61153 h -3 v 5.85 h 3 v 6.61154 h -3 v 5.85 h 3 v 6.61154 h -3 v 5.85 h 3 v 6.61154 h -3 v 5.85 h 3 v 6.61154 h -3 v 5.85 h 3 v 6.61154 h -3 v 5.85 h 3 v 6.61153 h -3 v 5.85 h 3 v 6.61154 h -3 v 5.85 h 3 v 6.61154 h -3 v 5.85 h 3 V 296.5" />
    <path
       inkscape:connector-curvature="0"
       id="path3189"
       inkscape:label="part"
       style="fill:none;stroke:#000000;stroke-width:1"
       d="m 206.5,296.5 h -6.54559 v -3 h -5.85 v 3 h -6.62059 v -3 h -5.85 v 3 h -6.62058 v -3 h -5.85 v 3 h -6.62059 v -3 h -5.85 v 3 h -6.62059 v -3 h -5.85 v 3 h -6.62059 v -3 h -5.85 v 3 h -6.62059 v -3 h -5.85 v 3 h -6.62059 v -3 h -5.85 v 3 h -6.62058 v -3 h -5.849998 v 3 h -6.62059 v -3 h -5.850001 v 3 h -6.620589 v -3 h -5.850001 v 3 h -6.620589 v -3 h -5.850001 v 3 h -6.62059 v -3 H 44.45735 v 3 h -6.620589 v -3 H 31.98676 v 3 h -6.62058 v -3 h -5.85 v 3 h -6.62059 v -3 H 7.0455901 v 3 H 0.5" />
    <path
       inkscape:connector-curvature="0"
       id="path3191"
       inkscape:label="part"
       style="fill:none;stroke:#000000;stroke-width:1"
       d="m 0.5,296.5 v -6.53654 h 3.0000001 v -5.85 H 0.5 v -6.61154 h 3.0000001 v -5.85 H 0.5 v -6.61154 h 3.0000001 v -5.85 H 0.5 v -6.61153 h 3.0000001 v -5.85 H 0.5 v -6.61154 h 3.0000001 v -5.85 H 0.5 v -6.61154 h 3.0000001 v -5.85 H 0.5 v -6.61154 h 3.0000001 v -5.85 H 0.5 v -6.61154 h 3.0000001 v -5.85 H 0.5 v -6.61154 h 3.0000001 v -5.85 H 0.5 v -6.61153 h 3.0000001 v -5.85 H 0.5 v -6.61154 h 3.0000001 v -5.85 H 0.5 v -6.61154 h 3.0000001 v -5.85 H 0.5 V 140.5" />
    <circle
       id="path3102"
       cx="64.492378"
       cy="268.43524"
       style="stroke-width:0.06877923"
       r="1.65" />
    <circle
       id="path3102-4"
       cx="145.66238"
       cy="268.43524"
       style="stroke-width:0.06877923"
       r="1.65" />
    <circle
       id="path3102-4-0"
       cx="145.66238"
       cy="191.77524"
       style="stroke-width:0.06877923"
       r="1.65" />
    <circle
       id="path3102-6"
       cx="64.492378"
       cy="191.00523"
       style="stroke-width:0.06877923"
       r="1.65" />
  </g>
</svg>
