  0
SECTION
  2
HEADER
  9
$ACADVER
  1
AC1014
  9
$HANDSEED
  5
FFFF
  9
$MEASUREMENT
 70
     1
  0
ENDSEC
  0
SECTION
  2
TABLES
  0
TABLE
  2
VPORT
  5
8
330
0
100
AcDbSymbolTable
 70
     4
  0
VPORT
  5
2E
330
8
100
AcDbSymbolTableRecord
100
AcDbViewportTableRecord
  2
*ACTIVE
 70
     0
 10
0.0
 20
0.0
 11
1.0
 21
1.0
 12
210.0
 22
148.5
 13
0.0
 23
0.0
 14
10.0
 24
10.0
 15
10.0
 25
10.0
 16
0.0
 26
0.0
 36
1.0
 17
0.0
 27
0.0
 37
0.0
 40
341.0
 41
1.24
 42
50.0
 43
0.0
 44
0.0
 50
0.0
 51
0.0
 71
     0
 72
   100
 73
     1
 74
     3
 75
     0
 76
     0
 77
     0
 78
     0
  0
ENDTAB
  0
TABLE
  2
LTYPE
  5
5
330
0
100
AcDbSymbolTable
 70
     1
  0
LTYPE
  5
14
330
5
100
AcDbSymbolTableRecord
100
AcDbLinetypeTableRecord
  2
BYBLOCK
 70
     0
  3

 72
    65
 73
     0
 40
0.0
  0
LTYPE
  5
15
330
5
100
AcDbSymbolTableRecord
100
AcDbLinetypeTableRecord
  2
BYLAYER
 70
     0
  3

 72
    65
 73
     0
 40
0.0
  0
LTYPE
  5
16
330
5
100
AcDbSymbolTableRecord
100
AcDbLinetypeTableRecord
  2
CONTINUOUS
 70
     0
  3
Solid line
 72
    65
 73
     0
 40
0.0
  0
ENDTAB
  0
TABLE
  2
LAYER
  5
2
100
AcDbSymbolTable
 70
2
  0
LAYER
  5
50
100
AcDbSymbolTableRecord
100
AcDbLayerTableRecord
  2
0
 70
0
  6
CONTINUOUS
  0
LAYER
  5
51
100
AcDbSymbolTableRecord
100
AcDbLayerTableRecord
  2
Layer_1
 70
0
  6
CONTINUOUS
  0
ENDTAB
  0
TABLE
  2
STYLE
  5
3
330
0
100
AcDbSymbolTable
 70
     1
  0
STYLE
  5
11
330
3
100
AcDbSymbolTableRecord
100
AcDbTextStyleTableRecord
  2
STANDARD
 70
     0
 40
0.0
 41
1.0
 50
0.0
 71
     0
 42
2.5
  3
txt
  4

  0
ENDTAB
  0
TABLE
  2
VIEW
  5
6
330
0
100
AcDbSymbolTable
 70
     0
  0
ENDTAB
  0
TABLE
  2
UCS
  5
7
330
0
100
AcDbSymbolTable
 70
     0
  0
ENDTAB
  0
TABLE
  2
APPID
  5
9
330
0
100
AcDbSymbolTable
 70
     2
  0
APPID
  5
12
330
9
100
AcDbSymbolTableRecord
100
AcDbRegAppTableRecord
  2
ACAD
 70
     0
  0
ENDTAB
  0
TABLE
  2
DIMSTYLE
  5
A
330
0
100
AcDbSymbolTable
 70
     1
  0
DIMSTYLE
105
27
330
A
100
AcDbSymbolTableRecord
100
AcDbDimStyleTableRecord
  2
ISO-25
 70
     0
  3

  4

  5

  6

  7

 40
1.0
 41
2.5
 42
0.625
 43
3.75
 44
1.25
 45
0.0
 46
0.0
 47
0.0
 48
0.0
140
2.5
141
2.5
142
0.0
143
0.03937007874016
144
1.0
145
0.0
146
1.0
147
0.625
 71
     0
 72
     0
 73
     0
 74
     0
 75
     0
 76
     0
 77
     1
 78
     8
170
     0
171
     3
172
     1
173
     0
174
     0
175
     0
176
     0
177
     0
178
     0
270
     2
271
     2
272
     2
273
     2
274
     3
340
11
275
     0
280
     0
281
     0
282
     0
283
     0
284
     8
285
     0
286
     0
287
     3
288
     0
  0
ENDTAB
  0
TABLE
  2
BLOCK_RECORD
  5
1
330
0
100
AcDbSymbolTable
 70
     1
  0
BLOCK_RECORD
  5
1F
330
1
100
AcDbSymbolTableRecord
100
AcDbBlockTableRecord
  2
*MODEL_SPACE
  0
BLOCK_RECORD
  5
1B
330
1
100
AcDbSymbolTableRecord
100
AcDbBlockTableRecord
  2
*PAPER_SPACE
  0
ENDTAB
  0
ENDSEC
  0
SECTION
  2
BLOCKS
  0
BLOCK
  5
20
330
1F
100
AcDbEntity
  8
0
100
AcDbBlockBegin
  2
*MODEL_SPACE
 70
     0
 10
0.0
 20
0.0
 30
0.0
  3
*MODEL_SPACE
  1

  0
ENDBLK
  5
21
330
1F
100
AcDbEntity
  8
0
100
AcDbBlockEnd
  0
BLOCK
  5
1C
330
1B
100
AcDbEntity
 67
     1
  8
0
100
AcDbBlockBegin
  2
*PAPER_SPACE
  1

  0
ENDBLK
  5
1D
330
1B
100
AcDbEntity
 67
     1
  8
0
100
AcDbBlockEnd
  0
ENDSEC
  0
SECTION
  2
ENTITIES
  0
LWPOLYLINE
  5
100
100
AcDbEntity
  8
Layer_1
 62
7
100
AcDbPolyline
 90
228
 70
1
 10
153.500010
 20
203.499990
 30
0.0
 10
153.500010
 20
200.104400
 30
0.0
 10
156.500010
 20
200.104400
 30
0.0
 10
156.500010
 20
193.954400
 30
0.0
 10
153.500010
 20
193.954400
 30
0.0
 10
153.500010
 20
187.633810
 30
0.0
 10
156.500010
 20
187.633810
 30
0.0
 10
156.500010
 20
181.483810
 30
0.0
 10
153.500010
 20
181.483810
 30
0.0
 10
153.500010
 20
175.163230
 30
0.0
 10
156.500010
 20
175.163230
 30
0.0
 10
156.500010
 20
169.013230
 30
0.0
 10
153.500010
 20
169.013230
 30
0.0
 10
153.500010
 20
162.692640
 30
0.0
 10
156.500010
 20
162.692640
 30
0.0
 10
156.500010
 20
156.542640
 30
0.0
 10
153.500010
 20
156.542640
 30
0.0
 10
153.500010
 20
150.222050
 30
0.0
 10
156.500010
 20
150.222050
 30
0.0
 10
156.500010
 20
144.072050
 30
0.0
 10
153.500010
 20
144.072050
 30
0.0
 10
153.500010
 20
137.751460
 30
0.0
 10
156.500010
 20
137.751460
 30
0.0
 10
156.500010
 20
131.601460
 30
0.0
 10
153.500010
 20
131.601460
 30
0.0
 10
153.500010
 20
125.280870
 30
0.0
 10
156.500010
 20
125.280870
 30
0.0
 10
156.500010
 20
119.130870
 30
0.0
 10
153.500010
 20
119.130870
 30
0.0
 10
153.500010
 20
112.810280
 30
0.0
 10
156.500010
 20
112.810280
 30
0.0
 10
156.500010
 20
106.660280
 30
0.0
 10
153.500010
 20
106.660280
 30
0.0
 10
153.500010
 20
100.339700
 30
0.0
 10
156.500010
 20
100.339700
 30
0.0
 10
156.500010
 20
94.189700
 30
0.0
 10
153.500010
 20
94.189700
 30
0.0
 10
153.500010
 20
87.869110
 30
0.0
 10
156.500010
 20
87.869110
 30
0.0
 10
156.500010
 20
81.719110
 30
0.0
 10
153.500010
 20
81.719110
 30
0.0
 10
153.500010
 20
75.398520
 30
0.0
 10
156.500010
 20
75.398520
 30
0.0
 10
156.500010
 20
69.248520
 30
0.0
 10
153.500010
 20
69.248520
 30
0.0
 10
153.500010
 20
62.927930
 30
0.0
 10
156.500010
 20
62.927930
 30
0.0
 10
156.500010
 20
56.777930
 30
0.0
 10
153.500010
 20
56.777930
 30
0.0
 10
153.500010
 20
50.457340
 30
0.0
 10
156.500010
 20
50.457340
 30
0.0
 10
156.500010
 20
44.307340
 30
0.0
 10
153.500010
 20
44.307340
 30
0.0
 10
153.500010
 20
37.986750
 30
0.0
 10
156.500010
 20
37.986750
 30
0.0
 10
156.500010
 20
31.836750
 30
0.0
 10
153.500010
 20
31.836750
 30
0.0
 10
153.500010
 20
25.516170
 30
0.0
 10
156.500010
 20
25.516170
 30
0.0
 10
156.500010
 20
19.366170
 30
0.0
 10
153.500010
 20
19.366170
 30
0.0
 10
153.500010
 20
13.045580
 30
0.0
 10
156.500010
 20
13.045580
 30
0.0
 10
156.500010
 20
6.895580
 30
0.0
 10
153.500010
 20
6.895580
 30
0.0
 10
153.500010
 20
3.499990
 30
0.0
 10
150.113470
 20
3.499990
 30
0.0
 10
150.113470
 20
0.499990
 30
0.0
 10
143.963470
 20
0.499990
 30
0.0
 10
143.963470
 20
3.499990
 30
0.0
 10
137.651930
 20
3.499990
 30
0.0
 10
137.651930
 20
0.499990
 30
0.0
 10
131.501930
 20
0.499990
 30
0.0
 10
131.501930
 20
3.499990
 30
0.0
 10
125.190390
 20
3.499990
 30
0.0
 10
125.190390
 20
0.499990
 30
0.0
 10
119.040390
 20
0.499990
 30
0.0
 10
119.040390
 20
3.499990
 30
0.0
 10
112.728860
 20
3.499990
 30
0.0
 10
112.728860
 20
0.499990
 30
0.0
 10
106.578860
 20
0.499990
 30
0.0
 10
106.578860
 20
3.499990
 30
0.0
 10
100.267320
 20
3.499990
 30
0.0
 10
100.267320
 20
0.499990
 30
0.0
 10
94.117320
 20
0.499990
 30
0.0
 10
94.117320
 20
3.499990
 30
0.0
 10
87.805780
 20
3.499990
 30
0.0
 10
87.805780
 20
0.499990
 30
0.0
 10
81.655780
 20
0.499990
 30
0.0
 10
81.655780
 20
3.499990
 30
0.0
 10
75.344240
 20
3.499990
 30
0.0
 10
75.344240
 20
0.499990
 30
0.0
 10
69.194240
 20
0.499990
 30
0.0
 10
69.194240
 20
3.499990
 30
0.0
 10
62.882700
 20
3.499990
 30
0.0
 10
62.882700
 20
0.499990
 30
0.0
 10
56.732700
 20
0.499990
 30
0.0
 10
56.732700
 20
3.499990
 30
0.0
 10
50.421160
 20
3.499990
 30
0.0
 10
50.421160
 20
0.499990
 30
0.0
 10
44.271160
 20
0.499990
 30
0.0
 10
44.271160
 20
3.499990
 30
0.0
 10
37.959630
 20
3.499990
 30
0.0
 10
37.959630
 20
0.499990
 30
0.0
 10
31.809630
 20
0.499990
 30
0.0
 10
31.809630
 20
3.499990
 30
0.0
 10
25.498090
 20
3.499990
 30
0.0
 10
25.498090
 20
0.499990
 30
0.0
 10
19.348090
 20
0.499990
 30
0.0
 10
19.348090
 20
3.499990
 30
0.0
 10
13.036550
 20
3.499990
 30
0.0
 10
13.036550
 20
0.499990
 30
0.0
 10
6.886550
 20
0.499990
 30
0.0
 10
6.886550
 20
3.499990
 30
0.0
 10
3.500010
 20
3.499990
 30
0.0
 10
3.500010
 20
6.895580
 30
0.0
 10
0.500010
 20
6.895580
 30
0.0
 10
0.500010
 20
13.045580
 30
0.0
 10
3.500010
 20
13.045580
 30
0.0
 10
3.500010
 20
19.366170
 30
0.0
 10
0.500010
 20
19.366170
 30
0.0
 10
0.500010
 20
25.516170
 30
0.0
 10
3.500010
 20
25.516170
 30
0.0
 10
3.500010
 20
31.836750
 30
0.0
 10
0.500010
 20
31.836750
 30
0.0
 10
0.500010
 20
37.986750
 30
0.0
 10
3.500010
 20
37.986750
 30
0.0
 10
3.500010
 20
44.307340
 30
0.0
 10
0.500010
 20
44.307340
 30
0.0
 10
0.500010
 20
50.457340
 30
0.0
 10
3.500010
 20
50.457340
 30
0.0
 10
3.500010
 20
56.777930
 30
0.0
 10
0.500010
 20
56.777930
 30
0.0
 10
0.500010
 20
62.927930
 30
0.0
 10
3.500010
 20
62.927930
 30
0.0
 10
3.500010
 20
69.248520
 30
0.0
 10
0.500010
 20
69.248520
 30
0.0
 10
0.500010
 20
75.398520
 30
0.0
 10
3.500010
 20
75.398520
 30
0.0
 10
3.500010
 20
81.719110
 30
0.0
 10
0.500010
 20
81.719110
 30
0.0
 10
0.500010
 20
87.869110
 30
0.0
 10
3.500010
 20
87.869110
 30
0.0
 10
3.500010
 20
94.189700
 30
0.0
 10
0.500010
 20
94.189700
 30
0.0
 10
0.500010
 20
100.339700
 30
0.0
 10
3.500010
 20
100.339700
 30
0.0
 10
3.500010
 20
106.660280
 30
0.0
 10
0.500010
 20
106.660280
 30
0.0
 10
0.500010
 20
112.810280
 30
0.0
 10
3.500010
 20
112.810280
 30
0.0
 10
3.500010
 20
119.130870
 30
0.0
 10
0.500010
 20
119.130870
 30
0.0
 10
0.500010
 20
125.280870
 30
0.0
 10
3.500010
 20
125.280870
 30
0.0
 10
3.500010
 20
131.601460
 30
0.0
 10
0.500010
 20
131.601460
 30
0.0
 10
0.500010
 20
137.751460
 30
0.0
 10
3.500010
 20
137.751460
 30
0.0
 10
3.500010
 20
144.072050
 30
0.0
 10
0.500010
 20
144.072050
 30
0.0
 10
0.500010
 20
150.222050
 30
0.0
 10
3.500010
 20
150.222050
 30
0.0
 10
3.500010
 20
156.542640
 30
0.0
 10
0.500010
 20
156.542640
 30
0.0
 10
0.500010
 20
162.692640
 30
0.0
 10
3.500010
 20
162.692640
 30
0.0
 10
3.500010
 20
169.013230
 30
0.0
 10
0.500010
 20
169.013230
 30
0.0
 10
0.500010
 20
175.163230
 30
0.0
 10
3.500010
 20
175.163230
 30
0.0
 10
3.500010
 20
181.483810
 30
0.0
 10
0.500010
 20
181.483810
 30
0.0
 10
0.500010
 20
187.633810
 30
0.0
 10
3.500010
 20
187.633810
 30
0.0
 10
3.500010
 20
193.954400
 30
0.0
 10
0.500010
 20
193.954400
 30
0.0
 10
0.500010
 20
200.104400
 30
0.0
 10
3.500010
 20
200.104400
 30
0.0
 10
3.500010
 20
203.499990
 30
0.0
 10
6.886550
 20
203.499990
 30
0.0
 10
6.886550
 20
206.499990
 30
0.0
 10
13.036550
 20
206.499990
 30
0.0
 10
13.036550
 20
203.499990
 30
0.0
 10
19.348090
 20
203.499990
 30
0.0
 10
19.348090
 20
206.499990
 30
0.0
 10
25.498090
 20
206.499990
 30
0.0
 10
25.498090
 20
203.499990
 30
0.0
 10
31.809630
 20
203.499990
 30
0.0
 10
31.809630
 20
206.499990
 30
0.0
 10
37.959630
 20
206.499990
 30
0.0
 10
37.959630
 20
203.499990
 30
0.0
 10
44.271160
 20
203.499990
 30
0.0
 10
44.271160
 20
206.499990
 30
0.0
 10
50.421160
 20
206.499990
 30
0.0
 10
50.421160
 20
203.499990
 30
0.0
 10
56.732700
 20
203.499990
 30
0.0
 10
56.732700
 20
206.499990
 30
0.0
 10
62.882700
 20
206.499990
 30
0.0
 10
62.882700
 20
203.499990
 30
0.0
 10
69.194240
 20
203.499990
 30
0.0
 10
69.194240
 20
206.499990
 30
0.0
 10
75.344240
 20
206.499990
 30
0.0
 10
75.344240
 20
203.499990
 30
0.0
 10
81.655780
 20
203.499990
 30
0.0
 10
81.655780
 20
206.499990
 30
0.0
 10
87.805780
 20
206.499990
 30
0.0
 10
87.805780
 20
203.499990
 30
0.0
 10
94.117320
 20
203.499990
 30
0.0
 10
94.117320
 20
206.499990
 30
0.0
 10
100.267320
 20
206.499990
 30
0.0
 10
100.267320
 20
203.499990
 30
0.0
 10
106.578860
 20
203.499990
 30
0.0
 10
106.578860
 20
206.499990
 30
0.0
 10
112.728860
 20
206.499990
 30
0.0
 10
112.728860
 20
203.499990
 30
0.0
 10
119.040390
 20
203.499990
 30
0.0
 10
119.040390
 20
206.499990
 30
0.0
 10
125.190390
 20
206.499990
 30
0.0
 10
125.190390
 20
203.499990
 30
0.0
 10
131.501930
 20
203.499990
 30
0.0
 10
131.501930
 20
206.499990
 30
0.0
 10
137.651930
 20
206.499990
 30
0.0
 10
137.651930
 20
203.499990
 30
0.0
 10
143.963470
 20
203.499990
 30
0.0
 10
143.963470
 20
206.499990
 30
0.0
 10
150.113470
 20
206.499990
 30
0.0
 10
150.113470
 20
203.499990
 30
0.0
  0
LWPOLYLINE
  5
101
100
AcDbEntity
  8
Layer_1
 62
7
100
AcDbPolyline
 90
4
 70
1
 10
41.668890
 20
183.845226
 30
0.0
 10
41.668890
 20
155.185226
 30
0.0
 10
20.168890
 20
155.185226
 30
0.0
 10
20.168890
 20
183.845226
 30
0.0
  0
SPLINE
  5
102
100
AcDbEntity
  8
Layer_1
 62
1
100
AcDbSpline
 70
8
 71
3
 72
8
 73
4
 74
0
 40
0
 40
0
 40
0
 40
0
 40
1
 40
1
 40
1
 40
1
 10
20.798880
 20
137.782570
 30
0.0
 10
20.798470
 20
137.451911
 30
0.0
 10
20.666722
 20
137.134958
 30
0.0
 10
20.432620
 20
136.901438
 30
0.0
  0
SPLINE
  5
103
100
AcDbEntity
  8
Layer_1
 62
1
100
AcDbSpline
 70
8
 71
3
 72
8
 73
4
 74
0
 40
0
 40
0
 40
0
 40
0
 40
1
 40
1
 40
1
 40
1
 10
20.432620
 20
136.901438
 30
0.0
 10
20.198518
 20
136.667917
 30
0.0
 10
19.881239
 20
136.536958
 30
0.0
 10
19.550580
 20
136.537370
 30
0.0
  0
SPLINE
  5
104
100
AcDbEntity
  8
Layer_1
 62
1
100
AcDbSpline
 70
8
 71
3
 72
8
 73
4
 74
0
 40
0
 40
0
 40
0
 40
0
 40
1
 40
1
 40
1
 40
1
 10
19.550580
 20
136.537370
 30
0.0
 10
19.219921
 20
136.537783
 30
0.0
 10
18.902969
 20
136.669533
 30
0.0
 10
18.669451
 20
136.903637
 30
0.0
  0
SPLINE
  5
105
100
AcDbEntity
  8
Layer_1
 62
1
100
AcDbSpline
 70
8
 71
3
 72
8
 73
4
 74
0
 40
0
 40
0
 40
0
 40
0
 40
1
 40
1
 40
1
 40
1
 10
18.669451
 20
136.903637
 30
0.0
 10
18.435932
 20
137.137741
 30
0.0
 10
18.304976
 20
137.455021
 30
0.0
 10
18.305390
 20
137.785680
 30
0.0
  0
SPLINE
  5
106
100
AcDbEntity
  8
Layer_1
 62
1
100
AcDbSpline
 70
8
 71
3
 72
8
 73
4
 74
0
 40
0
 40
0
 40
0
 40
0
 40
1
 40
1
 40
1
 40
1
 10
18.305390
 20
137.785680
 30
0.0
 10
18.305800
 20
138.116339
 30
0.0
 10
18.437548
 20
138.433292
 30
0.0
 10
18.671650
 20
138.666812
 30
0.0
  0
SPLINE
  5
107
100
AcDbEntity
  8
Layer_1
 62
1
100
AcDbSpline
 70
8
 71
3
 72
8
 73
4
 74
0
 40
0
 40
0
 40
0
 40
0
 40
1
 40
1
 40
1
 40
1
 10
18.671650
 20
138.666812
 30
0.0
 10
18.905752
 20
138.900333
 30
0.0
 10
19.223031
 20
139.031292
 30
0.0
 10
19.553690
 20
139.030880
 30
0.0
  0
SPLINE
  5
108
100
AcDbEntity
  8
Layer_1
 62
1
100
AcDbSpline
 70
8
 71
3
 72
8
 73
4
 74
0
 40
0
 40
0
 40
0
 40
0
 40
1
 40
1
 40
1
 40
1
 10
19.553690
 20
139.030880
 30
0.0
 10
19.884349
 20
139.030467
 30
0.0
 10
20.201301
 20
138.898717
 30
0.0
 10
20.434819
 20
138.664613
 30
0.0
  0
SPLINE
  5
109
100
AcDbEntity
  8
Layer_1
 62
1
100
AcDbSpline
 70
8
 71
3
 72
8
 73
4
 74
0
 40
0
 40
0
 40
0
 40
0
 40
1
 40
1
 40
1
 40
1
 10
20.434819
 20
138.664613
 30
0.0
 10
20.668338
 20
138.430509
 30
0.0
 10
20.799294
 20
138.113229
 30
0.0
 10
20.798880
 20
137.782570
 30
0.0
  0
LWPOLYLINE
  5
10a
100
AcDbEntity
  8
Layer_1
 62
1
100
AcDbPolyline
 90
4
 70
1
 10
18.872320
 20
132.859683
 30
0.0
 10
42.859720
 20
132.829883
 30
0.0
 10
42.844820
 20
120.842293
 30
0.0
 10
18.857410
 20
120.872093
 30
0.0
  0
SPLINE
  5
10b
100
AcDbEntity
  8
Layer_1
 62
1
100
AcDbSpline
 70
8
 71
3
 72
8
 73
4
 74
0
 40
0
 40
0
 40
0
 40
0
 40
1
 40
1
 40
1
 40
1
 10
43.798870
 20
137.753983
 30
0.0
 10
43.798460
 20
137.423324
 30
0.0
 10
43.666712
 20
137.106371
 30
0.0
 10
43.432610
 20
136.872851
 30
0.0
  0
SPLINE
  5
10c
100
AcDbEntity
  8
Layer_1
 62
1
100
AcDbSpline
 70
8
 71
3
 72
8
 73
4
 74
0
 40
0
 40
0
 40
0
 40
0
 40
1
 40
1
 40
1
 40
1
 10
43.432610
 20
136.872851
 30
0.0
 10
43.198508
 20
136.639330
 30
0.0
 10
42.881229
 20
136.508371
 30
0.0
 10
42.550570
 20
136.508783
 30
0.0
  0
SPLINE
  5
10d
100
AcDbEntity
  8
Layer_1
 62
1
100
AcDbSpline
 70
8
 71
3
 72
8
 73
4
 74
0
 40
0
 40
0
 40
0
 40
0
 40
1
 40
1
 40
1
 40
1
 10
42.550570
 20
136.508783
 30
0.0
 10
41.862012
 20
136.509643
 30
0.0
 10
41.304522
 20
137.068525
 30
0.0
 10
41.305380
 20
137.757083
 30
0.0
  0
SPLINE
  5
10e
100
AcDbEntity
  8
Layer_1
 62
1
100
AcDbSpline
 70
8
 71
3
 72
8
 73
4
 74
0
 40
0
 40
0
 40
0
 40
0
 40
1
 40
1
 40
1
 40
1
 10
41.305380
 20
137.757083
 30
0.0
 10
41.306240
 20
138.445637
 30
0.0
 10
41.865116
 20
139.003125
 30
0.0
 10
42.553670
 20
139.002273
 30
0.0
  0
SPLINE
  5
10f
100
AcDbEntity
  8
Layer_1
 62
1
100
AcDbSpline
 70
8
 71
3
 72
8
 73
4
 74
0
 40
0
 40
0
 40
0
 40
0
 40
1
 40
1
 40
1
 40
1
 10
42.553670
 20
139.002273
 30
0.0
 10
43.242228
 20
139.001418
 30
0.0
 10
43.799722
 20
138.442541
 30
0.0
 10
43.798870
 20
137.753983
 30
0.0
  0
LWPOLYLINE
  5
110
100
AcDbEntity
  8
Layer_1
 62
1
100
AcDbPolyline
 90
1
 70
1
 10
20.798880
 20
137.782570
 30
0.0
  0
SPLINE
  5
111
100
AcDbEntity
  8
Layer_1
 62
1
100
AcDbSpline
 70
8
 71
3
 72
8
 73
4
 74
0
 40
0
 40
0
 40
0
 40
0
 40
1
 40
1
 40
1
 40
1
 10
43.769030
 20
113.753998
 30
0.0
 10
43.768620
 20
113.423339
 30
0.0
 10
43.636872
 20
113.106386
 30
0.0
 10
43.402770
 20
112.872866
 30
0.0
  0
SPLINE
  5
112
100
AcDbEntity
  8
Layer_1
 62
1
100
AcDbSpline
 70
8
 71
3
 72
8
 73
4
 74
0
 40
0
 40
0
 40
0
 40
0
 40
1
 40
1
 40
1
 40
1
 10
43.402770
 20
112.872866
 30
0.0
 10
43.168668
 20
112.639345
 30
0.0
 10
42.851389
 20
112.508386
 30
0.0
 10
42.520730
 20
112.508798
 30
0.0
  0
SPLINE
  5
113
100
AcDbEntity
  8
Layer_1
 62
1
100
AcDbSpline
 70
8
 71
3
 72
8
 73
4
 74
0
 40
0
 40
0
 40
0
 40
0
 40
1
 40
1
 40
1
 40
1
 10
42.520730
 20
112.508798
 30
0.0
 10
41.832172
 20
112.509658
 30
0.0
 10
41.274682
 20
113.068540
 30
0.0
 10
41.275540
 20
113.757098
 30
0.0
  0
SPLINE
  5
114
100
AcDbEntity
  8
Layer_1
 62
1
100
AcDbSpline
 70
8
 71
3
 72
8
 73
4
 74
0
 40
0
 40
0
 40
0
 40
0
 40
1
 40
1
 40
1
 40
1
 10
41.275540
 20
113.757098
 30
0.0
 10
41.275948
 20
114.087757
 30
0.0
 10
41.407693
 20
114.404711
 30
0.0
 10
41.641793
 20
114.638233
 30
0.0
  0
SPLINE
  5
115
100
AcDbEntity
  8
Layer_1
 62
1
100
AcDbSpline
 70
8
 71
3
 72
8
 73
4
 74
0
 40
0
 40
0
 40
0
 40
0
 40
1
 40
1
 40
1
 40
1
 10
41.641793
 20
114.638233
 30
0.0
 10
41.875893
 20
114.871755
 30
0.0
 10
42.193171
 20
115.002717
 30
0.0
 10
42.523830
 20
115.002308
 30
0.0
  0
SPLINE
  5
116
100
AcDbEntity
  8
Layer_1
 62
1
100
AcDbSpline
 70
8
 71
3
 72
8
 73
4
 74
0
 40
0
 40
0
 40
0
 40
0
 40
1
 40
1
 40
1
 40
1
 10
42.523830
 20
115.002308
 30
0.0
 10
42.854491
 20
115.001898
 30
0.0
 10
43.171445
 20
114.870149
 30
0.0
 10
43.404966
 20
114.636045
 30
0.0
  0
SPLINE
  5
117
100
AcDbEntity
  8
Layer_1
 62
1
100
AcDbSpline
 70
8
 71
3
 72
8
 73
4
 74
0
 40
0
 40
0
 40
0
 40
0
 40
1
 40
1
 40
1
 40
1
 10
43.404966
 20
114.636045
 30
0.0
 10
43.638486
 20
114.401941
 30
0.0
 10
43.769444
 20
114.084659
 30
0.0
 10
43.769030
 20
113.753998
 30
0.0
  0
LWPOLYLINE
  5
118
100
AcDbEntity
  8
Layer_1
 62
1
100
AcDbPolyline
 90
1
 70
1
 10
43.798870
 20
137.753983
 30
0.0
  0
SPLINE
  5
119
100
AcDbEntity
  8
Layer_1
 62
1
100
AcDbSpline
 70
8
 71
3
 72
8
 73
4
 74
0
 40
0
 40
0
 40
0
 40
0
 40
1
 40
1
 40
1
 40
1
 10
20.769040
 20
113.782594
 30
0.0
 10
20.768180
 20
113.094040
 30
0.0
 10
20.209304
 20
112.536552
 30
0.0
 10
19.520750
 20
112.537404
 30
0.0
  0
SPLINE
  5
11a
100
AcDbEntity
  8
Layer_1
 62
1
100
AcDbSpline
 70
8
 71
3
 72
8
 73
4
 74
0
 40
0
 40
0
 40
0
 40
0
 40
1
 40
1
 40
1
 40
1
 10
19.520750
 20
112.537404
 30
0.0
 10
18.832192
 20
112.538259
 30
0.0
 10
18.274698
 20
113.097136
 30
0.0
 10
18.275550
 20
113.785694
 30
0.0
  0
SPLINE
  5
11b
100
AcDbEntity
  8
Layer_1
 62
1
100
AcDbSpline
 70
8
 71
3
 72
8
 73
4
 74
0
 40
0
 40
0
 40
0
 40
0
 40
1
 40
1
 40
1
 40
1
 10
18.275550
 20
113.785694
 30
0.0
 10
18.275960
 20
114.116353
 30
0.0
 10
18.407708
 20
114.433306
 30
0.0
 10
18.641810
 20
114.666826
 30
0.0
  0
SPLINE
  5
11c
100
AcDbEntity
  8
Layer_1
 62
1
100
AcDbSpline
 70
8
 71
3
 72
8
 73
4
 74
0
 40
0
 40
0
 40
0
 40
0
 40
1
 40
1
 40
1
 40
1
 10
18.641810
 20
114.666826
 30
0.0
 10
18.875912
 20
114.900347
 30
0.0
 10
19.193191
 20
115.031306
 30
0.0
 10
19.523850
 20
115.030894
 30
0.0
  0
SPLINE
  5
11d
100
AcDbEntity
  8
Layer_1
 62
1
100
AcDbSpline
 70
8
 71
3
 72
8
 73
4
 74
0
 40
0
 40
0
 40
0
 40
0
 40
1
 40
1
 40
1
 40
1
 10
19.523850
 20
115.030894
 30
0.0
 10
20.212408
 20
115.030034
 30
0.0
 10
20.769898
 20
114.471152
 30
0.0
 10
20.769040
 20
113.782594
 30
0.0
  0
LWPOLYLINE
  5
11e
100
AcDbEntity
  8
Layer_1
 62
1
100
AcDbPolyline
 90
1
 70
1
 10
43.769030
 20
113.753998
 30
0.0
  0
SPLINE
  5
11f
100
AcDbEntity
  8
Layer_1
 62
7
100
AcDbSpline
 70
8
 71
3
 72
8
 73
4
 74
0
 40
0
 40
0
 40
0
 40
0
 40
1
 40
1
 40
1
 40
1
 10
30.763500
 20
91.083010
 30
0.0
 10
29.849829
 20
91.083010
 30
0.0
 10
28.973580
 20
91.445964
 30
0.0
 10
28.327517
 20
92.092027
 30
0.0
  0
SPLINE
  5
120
100
AcDbEntity
  8
Layer_1
 62
7
100
AcDbSpline
 70
8
 71
3
 72
8
 73
4
 74
0
 40
0
 40
0
 40
0
 40
0
 40
1
 40
1
 40
1
 40
1
 10
28.327517
 20
92.092027
 30
0.0
 10
27.681454
 20
92.738090
 30
0.0
 10
27.318500
 20
93.614339
 30
0.0
 10
27.318500
 20
94.528010
 30
0.0
  0
SPLINE
  5
121
100
AcDbEntity
  8
Layer_1
 62
7
100
AcDbSpline
 70
8
 71
3
 72
8
 73
4
 74
0
 40
0
 40
0
 40
0
 40
0
 40
1
 40
1
 40
1
 40
1
 10
27.318500
 20
94.528010
 30
0.0
 10
27.318500
 20
95.441681
 30
0.0
 10
27.681454
 20
96.317930
 30
0.0
 10
28.327517
 20
96.963993
 30
0.0
  0
SPLINE
  5
122
100
AcDbEntity
  8
Layer_1
 62
7
100
AcDbSpline
 70
8
 71
3
 72
8
 73
4
 74
0
 40
0
 40
0
 40
0
 40
0
 40
1
 40
1
 40
1
 40
1
 10
28.327517
 20
96.963993
 30
0.0
 10
28.973580
 20
97.610056
 30
0.0
 10
29.849829
 20
97.973010
 30
0.0
 10
30.763500
 20
97.973010
 30
0.0
  0
SPLINE
  5
123
100
AcDbEntity
  8
Layer_1
 62
7
100
AcDbSpline
 70
8
 71
3
 72
8
 73
4
 74
0
 40
0
 40
0
 40
0
 40
0
 40
1
 40
1
 40
1
 40
1
 10
30.763500
 20
97.973010
 30
0.0
 10
31.677171
 20
97.973010
 30
0.0
 10
32.553420
 20
97.610056
 30
0.0
 10
33.199483
 20
96.963993
 30
0.0
  0
SPLINE
  5
124
100
AcDbEntity
  8
Layer_1
 62
7
100
AcDbSpline
 70
8
 71
3
 72
8
 73
4
 74
0
 40
0
 40
0
 40
0
 40
0
 40
1
 40
1
 40
1
 40
1
 10
33.199483
 20
96.963993
 30
0.0
 10
33.845546
 20
96.317930
 30
0.0
 10
34.208500
 20
95.441681
 30
0.0
 10
34.208500
 20
94.528010
 30
0.0
  0
SPLINE
  5
125
100
AcDbEntity
  8
Layer_1
 62
7
100
AcDbSpline
 70
8
 71
3
 72
8
 73
4
 74
0
 40
0
 40
0
 40
0
 40
0
 40
1
 40
1
 40
1
 40
1
 10
34.208500
 20
94.528010
 30
0.0
 10
34.208500
 20
93.614339
 30
0.0
 10
33.845546
 20
92.738090
 30
0.0
 10
33.199483
 20
92.092027
 30
0.0
  0
SPLINE
  5
126
100
AcDbEntity
  8
Layer_1
 62
7
100
AcDbSpline
 70
8
 71
3
 72
8
 73
4
 74
0
 40
0
 40
0
 40
0
 40
0
 40
1
 40
1
 40
1
 40
1
 10
33.199483
 20
92.092027
 30
0.0
 10
32.553420
 20
91.445964
 30
0.0
 10
31.677171
 20
91.083010
 30
0.0
 10
30.763500
 20
91.083010
 30
0.0
  0
LWPOLYLINE
  5
127
100
AcDbEntity
  8
Layer_1
 62
1
100
AcDbPolyline
 90
1
 70
1
 10
20.769040
 20
113.782594
 30
0.0
  0
SPLINE
  5
128
100
AcDbEntity
  8
Layer_1
 62
7
100
AcDbSpline
 70
8
 71
3
 72
8
 73
4
 74
0
 40
0
 40
0
 40
0
 40
0
 40
1
 40
1
 40
1
 40
1
 10
30.307080
 20
47.374510
 30
0.0
 10
27.396329
 20
47.374510
 30
0.0
 10
24.604795
 20
48.530801
 30
0.0
 10
22.546583
 20
50.589013
 30
0.0
  0
SPLINE
  5
129
100
AcDbEntity
  8
Layer_1
 62
7
100
AcDbSpline
 70
8
 71
3
 72
8
 73
4
 74
0
 40
0
 40
0
 40
0
 40
0
 40
1
 40
1
 40
1
 40
1
 10
22.546583
 20
50.589013
 30
0.0
 10
20.488371
 20
52.647225
 30
0.0
 10
19.332080
 20
55.438759
 30
0.0
 10
19.332080
 20
58.349510
 30
0.0
  0
SPLINE
  5
12a
100
AcDbEntity
  8
Layer_1
 62
7
100
AcDbSpline
 70
8
 71
3
 72
8
 73
4
 74
0
 40
0
 40
0
 40
0
 40
0
 40
1
 40
1
 40
1
 40
1
 10
19.332080
 20
58.349510
 30
0.0
 10
19.332080
 20
64.410835
 30
0.0
 10
24.245755
 20
69.324510
 30
0.0
 10
30.307080
 20
69.324510
 30
0.0
  0
SPLINE
  5
12b
100
AcDbEntity
  8
Layer_1
 62
7
100
AcDbSpline
 70
8
 71
3
 72
8
 73
4
 74
0
 40
0
 40
0
 40
0
 40
0
 40
1
 40
1
 40
1
 40
1
 10
30.307080
 20
69.324510
 30
0.0
 10
36.368405
 20
69.324510
 30
0.0
 10
41.282080
 20
64.410835
 30
0.0
 10
41.282080
 20
58.349510
 30
0.0
  0
SPLINE
  5
12c
100
AcDbEntity
  8
Layer_1
 62
7
100
AcDbSpline
 70
8
 71
3
 72
8
 73
4
 74
0
 40
0
 40
0
 40
0
 40
0
 40
1
 40
1
 40
1
 40
1
 10
41.282080
 20
58.349510
 30
0.0
 10
41.282080
 20
55.438759
 30
0.0
 10
40.125789
 20
52.647225
 30
0.0
 10
38.067577
 20
50.589013
 30
0.0
  0
SPLINE
  5
12d
100
AcDbEntity
  8
Layer_1
 62
7
100
AcDbSpline
 70
8
 71
3
 72
8
 73
4
 74
0
 40
0
 40
0
 40
0
 40
0
 40
1
 40
1
 40
1
 40
1
 10
38.067577
 20
50.589013
 30
0.0
 10
36.009365
 20
48.530801
 30
0.0
 10
33.217831
 20
47.374510
 30
0.0
 10
30.307080
 20
47.374510
 30
0.0
  0
LWPOLYLINE
  5
12e
100
AcDbEntity
  8
Layer_1
 62
7
100
AcDbPolyline
 90
1
 70
1
 10
30.763500
 20
91.083010
 30
0.0
  0
SPLINE
  5
12f
100
AcDbEntity
  8
Layer_1
 62
7
100
AcDbSpline
 70
8
 71
3
 72
8
 73
4
 74
0
 40
0
 40
0
 40
0
 40
0
 40
1
 40
1
 40
1
 40
1
 10
92.719535
 20
161.264853
 30
0.0
 10
92.719535
 20
162.292567
 30
0.0
 10
93.127793
 20
163.278188
 30
0.0
 10
93.854496
 20
164.004892
 30
0.0
  0
SPLINE
  5
130
100
AcDbEntity
  8
Layer_1
 62
7
100
AcDbSpline
 70
8
 71
3
 72
8
 73
4
 74
0
 40
0
 40
0
 40
0
 40
0
 40
1
 40
1
 40
1
 40
1
 10
93.854496
 20
164.004892
 30
0.0
 10
94.581200
 20
164.731595
 30
0.0
 10
95.566821
 20
165.139853
 30
0.0
 10
96.594535
 20
165.139853
 30
0.0
  0
SPLINE
  5
131
100
AcDbEntity
  8
Layer_1
 62
7
100
AcDbSpline
 70
8
 71
3
 72
8
 73
4
 74
0
 40
0
 40
0
 40
0
 40
0
 40
1
 40
1
 40
1
 40
1
 10
96.594535
 20
165.139853
 30
0.0
 10
97.622249
 20
165.139853
 30
0.0
 10
98.607870
 20
164.731595
 30
0.0
 10
99.334574
 20
164.004892
 30
0.0
  0
SPLINE
  5
132
100
AcDbEntity
  8
Layer_1
 62
7
100
AcDbSpline
 70
8
 71
3
 72
8
 73
4
 74
0
 40
0
 40
0
 40
0
 40
0
 40
1
 40
1
 40
1
 40
1
 10
99.334574
 20
164.004892
 30
0.0
 10
100.061277
 20
163.278188
 30
0.0
 10
100.469535
 20
162.292567
 30
0.0
 10
100.469535
 20
161.264853
 30
0.0
  0
SPLINE
  5
133
100
AcDbEntity
  8
Layer_1
 62
7
100
AcDbSpline
 70
8
 71
3
 72
8
 73
4
 74
0
 40
0
 40
0
 40
0
 40
0
 40
1
 40
1
 40
1
 40
1
 10
100.469535
 20
161.264853
 30
0.0
 10
100.469535
 20
160.237139
 30
0.0
 10
100.061277
 20
159.251518
 30
0.0
 10
99.334574
 20
158.524814
 30
0.0
  0
SPLINE
  5
134
100
AcDbEntity
  8
Layer_1
 62
7
100
AcDbSpline
 70
8
 71
3
 72
8
 73
4
 74
0
 40
0
 40
0
 40
0
 40
0
 40
1
 40
1
 40
1
 40
1
 10
99.334574
 20
158.524814
 30
0.0
 10
98.607870
 20
157.798111
 30
0.0
 10
97.622249
 20
157.389853
 30
0.0
 10
96.594535
 20
157.389853
 30
0.0
  0
SPLINE
  5
135
100
AcDbEntity
  8
Layer_1
 62
7
100
AcDbSpline
 70
8
 71
3
 72
8
 73
4
 74
0
 40
0
 40
0
 40
0
 40
0
 40
1
 40
1
 40
1
 40
1
 10
96.594535
 20
157.389853
 30
0.0
 10
95.566821
 20
157.389853
 30
0.0
 10
94.581200
 20
157.798111
 30
0.0
 10
93.854496
 20
158.524814
 30
0.0
  0
SPLINE
  5
136
100
AcDbEntity
  8
Layer_1
 62
7
100
AcDbSpline
 70
8
 71
3
 72
8
 73
4
 74
0
 40
0
 40
0
 40
0
 40
0
 40
1
 40
1
 40
1
 40
1
 10
93.854496
 20
158.524814
 30
0.0
 10
93.127793
 20
159.251518
 30
0.0
 10
92.719535
 20
160.237139
 30
0.0
 10
92.719535
 20
161.264853
 30
0.0
  0
LWPOLYLINE
  5
137
100
AcDbEntity
  8
Layer_1
 62
7
100
AcDbPolyline
 90
1
 70
1
 10
30.307080
 20
47.374510
 30
0.0
  0
SPLINE
  5
138
100
AcDbEntity
  8
Layer_1
 62
7
100
AcDbSpline
 70
8
 71
3
 72
8
 73
4
 74
0
 40
0
 40
0
 40
0
 40
0
 40
1
 40
1
 40
1
 40
1
 10
105.149536
 20
161.264883
 30
0.0
 10
105.149536
 20
162.292597
 30
0.0
 10
105.557794
 20
163.278218
 30
0.0
 10
106.284497
 20
164.004922
 30
0.0
  0
SPLINE
  5
139
100
AcDbEntity
  8
Layer_1
 62
7
100
AcDbSpline
 70
8
 71
3
 72
8
 73
4
 74
0
 40
0
 40
0
 40
0
 40
0
 40
1
 40
1
 40
1
 40
1
 10
106.284497
 20
164.004922
 30
0.0
 10
107.011201
 20
164.731625
 30
0.0
 10
107.996822
 20
165.139883
 30
0.0
 10
109.024536
 20
165.139883
 30
0.0
  0
SPLINE
  5
13a
100
AcDbEntity
  8
Layer_1
 62
7
100
AcDbSpline
 70
8
 71
3
 72
8
 73
4
 74
0
 40
0
 40
0
 40
0
 40
0
 40
1
 40
1
 40
1
 40
1
 10
109.024536
 20
165.139883
 30
0.0
 10
110.052250
 20
165.139883
 30
0.0
 10
111.037871
 20
164.731625
 30
0.0
 10
111.764575
 20
164.004922
 30
0.0
  0
SPLINE
  5
13b
100
AcDbEntity
  8
Layer_1
 62
7
100
AcDbSpline
 70
8
 71
3
 72
8
 73
4
 74
0
 40
0
 40
0
 40
0
 40
0
 40
1
 40
1
 40
1
 40
1
 10
111.764575
 20
164.004922
 30
0.0
 10
112.491278
 20
163.278218
 30
0.0
 10
112.899536
 20
162.292597
 30
0.0
 10
112.899536
 20
161.264883
 30
0.0
  0
SPLINE
  5
13c
100
AcDbEntity
  8
Layer_1
 62
7
100
AcDbSpline
 70
8
 71
3
 72
8
 73
4
 74
0
 40
0
 40
0
 40
0
 40
0
 40
1
 40
1
 40
1
 40
1
 10
112.899536
 20
161.264883
 30
0.0
 10
112.899536
 20
160.237169
 30
0.0
 10
112.491278
 20
159.251548
 30
0.0
 10
111.764575
 20
158.524844
 30
0.0
  0
SPLINE
  5
13d
100
AcDbEntity
  8
Layer_1
 62
7
100
AcDbSpline
 70
8
 71
3
 72
8
 73
4
 74
0
 40
0
 40
0
 40
0
 40
0
 40
1
 40
1
 40
1
 40
1
 10
111.764575
 20
158.524844
 30
0.0
 10
111.037871
 20
157.798141
 30
0.0
 10
110.052250
 20
157.389883
 30
0.0
 10
109.024536
 20
157.389883
 30
0.0
  0
SPLINE
  5
13e
100
AcDbEntity
  8
Layer_1
 62
7
100
AcDbSpline
 70
8
 71
3
 72
8
 73
4
 74
0
 40
0
 40
0
 40
0
 40
0
 40
1
 40
1
 40
1
 40
1
 10
109.024536
 20
157.389883
 30
0.0
 10
107.996822
 20
157.389883
 30
0.0
 10
107.011201
 20
157.798141
 30
0.0
 10
106.284497
 20
158.524844
 30
0.0
  0
SPLINE
  5
13f
100
AcDbEntity
  8
Layer_1
 62
7
100
AcDbSpline
 70
8
 71
3
 72
8
 73
4
 74
0
 40
0
 40
0
 40
0
 40
0
 40
1
 40
1
 40
1
 40
1
 10
106.284497
 20
158.524844
 30
0.0
 10
105.557794
 20
159.251548
 30
0.0
 10
105.149536
 20
160.237169
 30
0.0
 10
105.149536
 20
161.264883
 30
0.0
  0
LWPOLYLINE
  5
140
100
AcDbEntity
  8
Layer_1
 62
7
100
AcDbPolyline
 90
1
 70
1
 10
92.719535
 20
161.264853
 30
0.0
  0
LWPOLYLINE
  5
141
100
AcDbEntity
  8
Layer_1
 62
7
100
AcDbPolyline
 90
1
 70
1
 10
105.149536
 20
161.264883
 30
0.0
  0
SPLINE
  5
142
100
AcDbEntity
  8
Layer_1
 62
7
100
AcDbSpline
 70
8
 71
3
 72
8
 73
4
 74
0
 40
0
 40
0
 40
0
 40
0
 40
1
 40
1
 40
1
 40
1
 10
61.416619
 20
193.651970
 30
0.0
 10
61.416619
 20
194.134283
 30
0.0
 10
61.535475
 20
194.601093
 30
0.0
 10
61.773187
 20
195.052400
 30
0.0
  0
SPLINE
  5
143
100
AcDbEntity
  8
Layer_1
 62
7
100
AcDbSpline
 70
8
 71
3
 72
8
 73
4
 74
0
 40
0
 40
0
 40
0
 40
0
 40
1
 40
1
 40
1
 40
1
 10
61.773187
 20
195.052400
 30
0.0
 10
62.010898
 20
195.503707
 30
0.0
 10
62.346795
 20
195.848217
 30
0.0
 10
62.780877
 20
196.085930
 30
0.0
  0
SPLINE
  5
144
100
AcDbEntity
  8
Layer_1
 62
7
100
AcDbSpline
 70
8
 71
3
 72
8
 73
4
 74
0
 40
0
 40
0
 40
0
 40
0
 40
1
 40
1
 40
1
 40
1
 10
62.780877
 20
196.085930
 30
0.0
 10
63.218404
 20
196.323643
 30
0.0
 10
63.705885
 20
196.442500
 30
0.0
 10
64.243320
 20
196.442500
 30
0.0
  0
SPLINE
  5
145
100
AcDbEntity
  8
Layer_1
 62
7
100
AcDbSpline
 70
8
 71
3
 72
8
 73
4
 74
0
 40
0
 40
0
 40
0
 40
0
 40
1
 40
1
 40
1
 40
1
 10
64.243320
 20
196.442500
 30
0.0
 10
65.073588
 20
196.442500
 30
0.0
 10
65.753994
 20
196.172060
 30
0.0
 10
66.284539
 20
195.631180
 30
0.0
  0
SPLINE
  5
146
100
AcDbEntity
  8
Layer_1
 62
7
100
AcDbSpline
 70
8
 71
3
 72
8
 73
4
 74
0
 40
0
 40
0
 40
0
 40
0
 40
1
 40
1
 40
1
 40
1
 10
66.284539
 20
195.631180
 30
0.0
 10
66.815084
 20
195.093740
 30
0.0
 10
67.080356
 20
194.413333
 30
0.0
 10
67.080356
 20
193.589960
 30
0.0
  0
SPLINE
  5
147
100
AcDbEntity
  8
Layer_1
 62
7
100
AcDbSpline
 70
8
 71
3
 72
8
 73
4
 74
0
 40
0
 40
0
 40
0
 40
0
 40
1
 40
1
 40
1
 40
1
 10
67.080356
 20
193.589960
 30
0.0
 10
67.080356
 20
192.759693
 30
0.0
 10
66.811639
 20
192.070673
 30
0.0
 10
66.274204
 20
191.522900
 30
0.0
  0
SPLINE
  5
148
100
AcDbEntity
  8
Layer_1
 62
7
100
AcDbSpline
 70
8
 71
3
 72
8
 73
4
 74
0
 40
0
 40
0
 40
0
 40
0
 40
1
 40
1
 40
1
 40
1
 10
66.274204
 20
191.522900
 30
0.0
 10
65.740214
 20
190.978573
 30
0.0
 10
65.066698
 20
190.706410
 30
0.0
 10
64.253655
 20
190.706410
 30
0.0
  0
SPLINE
  5
149
100
AcDbEntity
  8
Layer_1
 62
7
100
AcDbSpline
 70
8
 71
3
 72
8
 73
4
 74
0
 40
0
 40
0
 40
0
 40
0
 40
1
 40
1
 40
1
 40
1
 10
64.253655
 20
190.706410
 30
0.0
 10
63.750672
 20
190.706410
 30
0.0
 10
63.270081
 20
190.820100
 30
0.0
 10
62.811883
 20
191.047480
 30
0.0
  0
SPLINE
  5
14a
100
AcDbEntity
  8
Layer_1
 62
7
100
AcDbSpline
 70
8
 71
3
 72
8
 73
4
 74
0
 40
0
 40
0
 40
0
 40
0
 40
1
 40
1
 40
1
 40
1
 10
62.811883
 20
191.047480
 30
0.0
 10
62.357130
 20
191.274853
 30
0.0
 10
62.010898
 20
191.607303
 30
0.0
 10
61.773187
 20
192.044830
 30
0.0
  0
SPLINE
  5
14b
100
AcDbEntity
  8
Layer_1
 62
7
100
AcDbSpline
 70
8
 71
3
 72
8
 73
4
 74
0
 40
0
 40
0
 40
0
 40
0
 40
1
 40
1
 40
1
 40
1
 10
61.773187
 20
192.044830
 30
0.0
 10
61.535475
 20
192.485803
 30
0.0
 10
61.416619
 20
193.021517
 30
0.0
 10
61.416619
 20
193.651970
 30
0.0
  0
LWPOLYLINE
  5
14c
100
AcDbEntity
  8
Layer_1
 62
7
100
AcDbPolyline
 90
6
 70
1
 10
55.334304
 20
190.830440
 30
0.0
 10
55.334304
 20
198.344190
 30
0.0
 10
56.863926
 20
198.344190
 30
0.0
 10
56.863926
 20
192.106840
 30
0.0
 10
60.667311
 20
192.106840
 30
0.0
 10
60.667311
 20
190.830440
 30
0.0
  0
SPLINE
  5
14d
100
AcDbEntity
  8
Layer_1
 62
7
100
AcDbSpline
 70
8
 71
3
 72
8
 73
4
 74
0
 40
0
 40
0
 40
0
 40
0
 40
1
 40
1
 40
1
 40
1
 10
62.904901
 20
193.574470
 30
0.0
 10
62.904901
 20
193.030143
 30
0.0
 10
63.034092
 20
192.613287
 30
0.0
 10
63.292474
 20
192.323900
 30
0.0
  0
SPLINE
  5
14e
100
AcDbEntity
  8
Layer_1
 62
7
100
AcDbSpline
 70
8
 71
3
 72
8
 73
4
 74
0
 40
0
 40
0
 40
0
 40
0
 40
1
 40
1
 40
1
 40
1
 10
63.292474
 20
192.323900
 30
0.0
 10
63.550856
 20
192.034507
 30
0.0
 10
63.869527
 20
191.889810
 30
0.0
 10
64.248488
 20
191.889810
 30
0.0
  0
SPLINE
  5
14f
100
AcDbEntity
  8
Layer_1
 62
7
100
AcDbSpline
 70
8
 71
3
 72
8
 73
4
 74
0
 40
0
 40
0
 40
0
 40
0
 40
1
 40
1
 40
1
 40
1
 10
64.248488
 20
191.889810
 30
0.0
 10
64.627449
 20
191.889810
 30
0.0
 10
64.944397
 20
192.034507
 30
0.0
 10
65.199334
 20
192.323900
 30
0.0
  0
SPLINE
  5
150
100
AcDbEntity
  8
Layer_1
 62
7
100
AcDbSpline
 70
8
 71
3
 72
8
 73
4
 74
0
 40
0
 40
0
 40
0
 40
0
 40
1
 40
1
 40
1
 40
1
 10
65.199334
 20
192.323900
 30
0.0
 10
65.457716
 20
192.613287
 30
0.0
 10
65.586907
 20
193.033587
 30
0.0
 10
65.586907
 20
193.584800
 30
0.0
  0
SPLINE
  5
151
100
AcDbEntity
  8
Layer_1
 62
7
100
AcDbSpline
 70
8
 71
3
 72
8
 73
4
 74
0
 40
0
 40
0
 40
0
 40
0
 40
1
 40
1
 40
1
 40
1
 10
65.586907
 20
193.584800
 30
0.0
 10
65.586907
 20
194.122233
 30
0.0
 10
65.457716
 20
194.535643
 30
0.0
 10
65.199334
 20
194.825030
 30
0.0
  0
SPLINE
  5
152
100
AcDbEntity
  8
Layer_1
 62
7
100
AcDbSpline
 70
8
 71
3
 72
8
 73
4
 74
0
 40
0
 40
0
 40
0
 40
0
 40
1
 40
1
 40
1
 40
1
 10
65.199334
 20
194.825030
 30
0.0
 10
64.944397
 20
195.114423
 30
0.0
 10
64.627449
 20
195.259120
 30
0.0
 10
64.248488
 20
195.259120
 30
0.0
  0
SPLINE
  5
153
100
AcDbEntity
  8
Layer_1
 62
7
100
AcDbSpline
 70
8
 71
3
 72
8
 73
4
 74
0
 40
0
 40
0
 40
0
 40
0
 40
1
 40
1
 40
1
 40
1
 10
64.248488
 20
195.259120
 30
0.0
 10
63.869527
 20
195.259120
 30
0.0
 10
63.550856
 20
195.114423
 30
0.0
 10
63.292474
 20
194.825030
 30
0.0
  0
SPLINE
  5
154
100
AcDbEntity
  8
Layer_1
 62
7
100
AcDbSpline
 70
8
 71
3
 72
8
 73
4
 74
0
 40
0
 40
0
 40
0
 40
0
 40
1
 40
1
 40
1
 40
1
 10
63.292474
 20
194.825030
 30
0.0
 10
63.034092
 20
194.535643
 30
0.0
 10
62.904901
 20
194.118790
 30
0.0
 10
62.904901
 20
193.574470
 30
0.0
  0
LWPOLYLINE
  5
155
100
AcDbEntity
  8
Layer_1
 62
7
100
AcDbPolyline
 90
1
 70
1
 10
61.416619
 20
193.651970
 30
0.0
  0
LWPOLYLINE
  5
156
100
AcDbEntity
  8
Layer_1
 62
7
100
AcDbPolyline
 90
1
 70
1
 10
62.904901
 20
193.574470
 30
0.0
  0
SPLINE
  5
157
100
AcDbEntity
  8
Layer_1
 62
7
100
AcDbSpline
 70
8
 71
3
 72
8
 73
4
 74
0
 40
0
 40
0
 40
0
 40
0
 40
1
 40
1
 40
1
 40
1
 10
71.762241
 20
193.631300
 30
0.0
 10
71.762241
 20
194.223853
 30
0.0
 10
71.731234
 20
194.606260
 30
0.0
 10
71.669221
 20
194.778520
 30
0.0
  0
SPLINE
  5
158
100
AcDbEntity
  8
Layer_1
 62
7
100
AcDbSpline
 70
8
 71
3
 72
8
 73
4
 74
0
 40
0
 40
0
 40
0
 40
0
 40
1
 40
1
 40
1
 40
1
 10
71.669221
 20
194.778520
 30
0.0
 10
71.607208
 20
194.954220
 30
0.0
 10
71.505577
 20
195.090300
 30
0.0
 10
71.364330
 20
195.186760
 30
0.0
  0
SPLINE
  5
159
100
AcDbEntity
  8
Layer_1
 62
7
100
AcDbSpline
 70
8
 71
3
 72
8
 73
4
 74
0
 40
0
 40
0
 40
0
 40
0
 40
1
 40
1
 40
1
 40
1
 10
71.364330
 20
195.186760
 30
0.0
 10
71.226527
 20
195.283220
 30
0.0
 10
71.059440
 20
195.331450
 30
0.0
 10
70.863069
 20
195.331450
 30
0.0
  0
SPLINE
  5
15a
100
AcDbEntity
  8
Layer_1
 62
7
100
AcDbSpline
 70
8
 71
3
 72
8
 73
4
 74
0
 40
0
 40
0
 40
0
 40
0
 40
1
 40
1
 40
1
 40
1
 10
70.863069
 20
195.331450
 30
0.0
 10
70.611577
 20
195.331450
 30
0.0
 10
70.385923
 20
195.262550
 30
0.0
 10
70.186108
 20
195.124750
 30
0.0
  0
SPLINE
  5
15b
100
AcDbEntity
  8
Layer_1
 62
7
100
AcDbSpline
 70
8
 71
3
 72
8
 73
4
 74
0
 40
0
 40
0
 40
0
 40
0
 40
1
 40
1
 40
1
 40
1
 10
70.186108
 20
195.124750
 30
0.0
 10
69.986292
 20
194.986943
 30
0.0
 10
69.848488
 20
194.804353
 30
0.0
 10
69.772696
 20
194.576980
 30
0.0
  0
SPLINE
  5
15c
100
AcDbEntity
  8
Layer_1
 62
7
100
AcDbSpline
 70
8
 71
3
 72
8
 73
4
 74
0
 40
0
 40
0
 40
0
 40
0
 40
1
 40
1
 40
1
 40
1
 10
69.772696
 20
194.576980
 30
0.0
 10
69.700349
 20
194.349600
 30
0.0
 10
69.664176
 20
193.929297
 30
0.0
 10
69.664176
 20
193.316070
 30
0.0
  0
LWPOLYLINE
  5
15d
100
AcDbEntity
  8
Layer_1
 62
7
100
AcDbPolyline
 90
3
 70
0
 10
73.214349
 20
190.830440
 30
0.0
 10
71.762241
 20
190.830440
 30
0.0
 10
71.762241
 20
193.631300
 30
0.0
  0
SPLINE
  5
15e
100
AcDbEntity
  8
Layer_1
 62
7
100
AcDbSpline
 70
8
 71
3
 72
8
 73
4
 74
0
 40
0
 40
0
 40
0
 40
0
 40
1
 40
1
 40
1
 40
1
 10
69.560825
 20
195.512320
 30
0.0
 10
70.039693
 20
196.132440
 30
0.0
 10
70.642585
 20
196.442500
 30
0.0
 10
71.369500
 20
196.442500
 30
0.0
  0
SPLINE
  5
15f
100
AcDbEntity
  8
Layer_1
 62
7
100
AcDbSpline
 70
8
 71
3
 72
8
 73
4
 74
0
 40
0
 40
0
 40
0
 40
0
 40
1
 40
1
 40
1
 40
1
 10
71.369500
 20
196.442500
 30
0.0
 10
71.689894
 20
196.442500
 30
0.0
 10
71.982727
 20
196.383933
 30
0.0
 10
72.247999
 20
196.266800
 30
0.0
  0
SPLINE
  5
160
100
AcDbEntity
  8
Layer_1
 62
7
100
AcDbSpline
 70
8
 71
3
 72
8
 73
4
 74
0
 40
0
 40
0
 40
0
 40
0
 40
1
 40
1
 40
1
 40
1
 10
72.247999
 20
196.266800
 30
0.0
 10
72.513272
 20
196.153107
 30
0.0
 10
72.713087
 20
196.006690
 30
0.0
 10
72.847446
 20
195.827550
 30
0.0
  0
SPLINE
  5
161
100
AcDbEntity
  8
Layer_1
 62
7
100
AcDbSpline
 70
8
 71
3
 72
8
 73
4
 74
0
 40
0
 40
0
 40
0
 40
0
 40
1
 40
1
 40
1
 40
1
 10
72.847446
 20
195.827550
 30
0.0
 10
72.985250
 20
195.648403
 30
0.0
 10
73.079990
 20
195.445143
 30
0.0
 10
73.131666
 20
195.217770
 30
0.0
  0
SPLINE
  5
162
100
AcDbEntity
  8
Layer_1
 62
7
100
AcDbSpline
 70
8
 71
3
 72
8
 73
4
 74
0
 40
0
 40
0
 40
0
 40
0
 40
1
 40
1
 40
1
 40
1
 10
73.131666
 20
195.217770
 30
0.0
 10
73.186786
 20
194.990390
 30
0.0
 10
73.214346
 20
194.664827
 30
0.0
 10
73.214346
 20
194.241080
 30
0.0
  0
LWPOLYLINE
  5
163
100
AcDbEntity
  8
Layer_1
 62
7
100
AcDbPolyline
 90
6
 70
0
 10
69.664176
 20
193.316070
 30
0.0
 10
69.664176
 20
190.830440
 30
0.0
 10
68.212070
 20
190.830440
 30
0.0
 10
68.212070
 20
196.318470
 30
0.0
 10
69.560825
 20
196.318470
 30
0.0
 10
69.560825
 20
195.512320
 30
0.0
  0
LWPOLYLINE
  5
164
100
AcDbEntity
  8
Layer_1
 62
7
100
AcDbPolyline
 90
2
 70
0
 10
73.214346
 20
194.241080
 30
0.0
 10
73.214349
 20
190.830440
 30
0.0
  0
SPLINE
  5
165
100
AcDbEntity
  8
Layer_1
 62
7
100
AcDbSpline
 70
8
 71
3
 72
8
 73
4
 74
0
 40
0
 40
0
 40
0
 40
0
 40
1
 40
1
 40
1
 40
1
 10
76.216750
 20
190.267160
 30
0.0
 10
76.244310
 20
190.074240
 30
0.0
 10
76.308044
 20
189.941607
 30
0.0
 10
76.407953
 20
189.869260
 30
0.0
  0
SPLINE
  5
166
100
AcDbEntity
  8
Layer_1
 62
7
100
AcDbSpline
 70
8
 71
3
 72
8
 73
4
 74
0
 40
0
 40
0
 40
0
 40
0
 40
1
 40
1
 40
1
 40
1
 10
76.407953
 20
189.869260
 30
0.0
 10
76.545756
 20
189.765907
 30
0.0
 10
76.762797
 20
189.714230
 30
0.0
 10
77.059076
 20
189.714230
 30
0.0
  0
SPLINE
  5
167
100
AcDbEntity
  8
Layer_1
 62
7
100
AcDbSpline
 70
8
 71
3
 72
8
 73
4
 74
0
 40
0
 40
0
 40
0
 40
0
 40
1
 40
1
 40
1
 40
1
 10
77.059076
 20
189.714230
 30
0.0
 10
77.438036
 20
189.714230
 30
0.0
 10
77.722256
 20
189.771073
 30
0.0
 10
77.911737
 20
189.884760
 30
0.0
  0
SPLINE
  5
168
100
AcDbEntity
  8
Layer_1
 62
7
100
AcDbSpline
 70
8
 71
3
 72
8
 73
4
 74
0
 40
0
 40
0
 40
0
 40
0
 40
1
 40
1
 40
1
 40
1
 10
77.911737
 20
189.884760
 30
0.0
 10
78.039205
 20
189.960553
 30
0.0
 10
78.135668
 20
190.082853
 30
0.0
 10
78.201125
 20
190.251660
 30
0.0
  0
SPLINE
  5
169
100
AcDbEntity
  8
Layer_1
 62
7
100
AcDbSpline
 70
8
 71
3
 72
8
 73
4
 74
0
 40
0
 40
0
 40
0
 40
0
 40
1
 40
1
 40
1
 40
1
 10
78.201125
 20
190.251660
 30
0.0
 10
78.245912
 20
190.372240
 30
0.0
 10
78.268305
 20
190.594450
 30
0.0
 10
78.268305
 20
190.918290
 30
0.0
  0
LWPOLYLINE
  5
16a
100
AcDbEntity
  8
Layer_1
 62
7
100
AcDbPolyline
 90
2
 70
0
 10
74.557936
 20
190.468700
 30
0.0
 10
76.216750
 20
190.267160
 30
0.0
  0
SPLINE
  5
16b
100
AcDbEntity
  8
Layer_1
 62
7
100
AcDbSpline
 70
8
 71
3
 72
8
 73
4
 74
0
 40
0
 40
0
 40
0
 40
0
 40
1
 40
1
 40
1
 40
1
 10
78.268305
 20
191.719270
 30
0.0
 10
77.834223
 20
191.126717
 30
0.0
 10
77.286453
 20
190.830440
 30
0.0
 10
76.624995
 20
190.830440
 30
0.0
  0
SPLINE
  5
16c
100
AcDbEntity
  8
Layer_1
 62
7
100
AcDbSpline
 70
8
 71
3
 72
8
 73
4
 74
0
 40
0
 40
0
 40
0
 40
0
 40
1
 40
1
 40
1
 40
1
 10
76.624995
 20
190.830440
 30
0.0
 10
75.887744
 20
190.830440
 30
0.0
 10
75.303801
 20
191.142220
 30
0.0
 10
74.873164
 20
191.765780
 30
0.0
  0
SPLINE
  5
16d
100
AcDbEntity
  8
Layer_1
 62
7
100
AcDbSpline
 70
8
 71
3
 72
8
 73
4
 74
0
 40
0
 40
0
 40
0
 40
0
 40
1
 40
1
 40
1
 40
1
 10
74.873164
 20
191.765780
 30
0.0
 10
74.535545
 20
192.258427
 30
0.0
 10
74.366735
 20
192.871653
 30
0.0
 10
74.366735
 20
193.605460
 30
0.0
  0
SPLINE
  5
16e
100
AcDbEntity
  8
Layer_1
 62
7
100
AcDbSpline
 70
8
 71
3
 72
8
 73
4
 74
0
 40
0
 40
0
 40
0
 40
0
 40
1
 40
1
 40
1
 40
1
 10
74.366735
 20
193.605460
 30
0.0
 10
74.366735
 20
194.525300
 30
0.0
 10
74.587221
 20
195.228100
 30
0.0
 10
75.028193
 20
195.713860
 30
0.0
  0
SPLINE
  5
16f
100
AcDbEntity
  8
Layer_1
 62
7
100
AcDbSpline
 70
8
 71
3
 72
8
 73
4
 74
0
 40
0
 40
0
 40
0
 40
0
 40
1
 40
1
 40
1
 40
1
 10
75.028193
 20
195.713860
 30
0.0
 10
75.472610
 20
196.199620
 30
0.0
 10
76.023826
 20
196.442500
 30
0.0
 10
76.681839
 20
196.442500
 30
0.0
  0
SPLINE
  5
170
100
AcDbEntity
  8
Layer_1
 62
7
100
AcDbSpline
 70
8
 71
3
 72
8
 73
4
 74
0
 40
0
 40
0
 40
0
 40
0
 40
1
 40
1
 40
1
 40
1
 10
76.681839
 20
196.442500
 30
0.0
 10
77.360522
 20
196.442500
 30
0.0
 10
77.920350
 20
196.144497
 30
0.0
 10
78.361323
 20
195.548490
 30
0.0
  0
LWPOLYLINE
  5
171
100
AcDbEntity
  8
Layer_1
 62
7
100
AcDbPolyline
 90
2
 70
0
 10
78.268305
 20
190.918290
 30
0.0
 10
78.268305
 20
191.719270
 30
0.0
  0
SPLINE
  5
172
100
AcDbEntity
  8
Layer_1
 62
7
100
AcDbSpline
 70
8
 71
3
 72
8
 73
4
 74
0
 40
0
 40
0
 40
0
 40
0
 40
1
 40
1
 40
1
 40
1
 10
79.720413
 20
191.393710
 30
0.0
 10
79.720413
 20
190.746030
 30
0.0
 10
79.667014
 20
190.261993
 30
0.0
 10
79.560216
 20
189.941600
 30
0.0
  0
SPLINE
  5
173
100
AcDbEntity
  8
Layer_1
 62
7
100
AcDbSpline
 70
8
 71
3
 72
8
 73
4
 74
0
 40
0
 40
0
 40
0
 40
0
 40
1
 40
1
 40
1
 40
1
 10
79.560216
 20
189.941600
 30
0.0
 10
79.453418
 20
189.621207
 30
0.0
 10
79.303556
 20
189.369717
 30
0.0
 10
79.110631
 20
189.187130
 30
0.0
  0
SPLINE
  5
174
100
AcDbEntity
  8
Layer_1
 62
7
100
AcDbSpline
 70
8
 71
3
 72
8
 73
4
 74
0
 40
0
 40
0
 40
0
 40
0
 40
1
 40
1
 40
1
 40
1
 10
79.110631
 20
189.187130
 30
0.0
 10
78.917706
 20
189.004537
 30
0.0
 10
78.659323
 20
188.861563
 30
0.0
 10
78.335484
 20
188.758210
 30
0.0
  0
SPLINE
  5
175
100
AcDbEntity
  8
Layer_1
 62
7
100
AcDbSpline
 70
8
 71
3
 72
8
 73
4
 74
0
 40
0
 40
0
 40
0
 40
0
 40
1
 40
1
 40
1
 40
1
 10
78.335484
 20
188.758210
 30
0.0
 10
78.015091
 20
188.654857
 30
0.0
 10
77.608570
 20
188.603180
 30
0.0
 10
77.115921
 20
188.603180
 30
0.0
  0
SPLINE
  5
176
100
AcDbEntity
  8
Layer_1
 62
7
100
AcDbSpline
 70
8
 71
3
 72
8
 73
4
 74
0
 40
0
 40
0
 40
0
 40
0
 40
1
 40
1
 40
1
 40
1
 10
77.115921
 20
188.603180
 30
0.0
 10
76.185745
 20
188.603180
 30
0.0
 10
75.526009
 20
188.763377
 30
0.0
 10
75.136713
 20
189.083770
 30
0.0
  0
SPLINE
  5
177
100
AcDbEntity
  8
Layer_1
 62
7
100
AcDbSpline
 70
8
 71
3
 72
8
 73
4
 74
0
 40
0
 40
0
 40
0
 40
0
 40
1
 40
1
 40
1
 40
1
 10
75.136713
 20
189.083770
 30
0.0
 10
74.747418
 20
189.400723
 30
0.0
 10
74.552770
 20
189.803800
 30
0.0
 10
74.552770
 20
190.293000
 30
0.0
  0
SPLINE
  5
178
100
AcDbEntity
  8
Layer_1
 62
7
100
AcDbSpline
 70
8
 71
3
 72
8
 73
4
 74
0
 40
0
 40
0
 40
0
 40
0
 40
1
 40
1
 40
1
 40
1
 10
74.552770
 20
190.293000
 30
0.0
 10
74.552770
 20
190.341267
 30
0.0
 10
74.554503
 20
190.399833
 30
0.0
 10
74.557970
 20
190.468700
 30
0.0
  0
LWPOLYLINE
  5
179
100
AcDbEntity
  8
Layer_1
 62
7
100
AcDbPolyline
 90
4
 70
0
 10
78.361323
 20
195.548490
 30
0.0
 10
78.361323
 20
196.318470
 30
0.0
 10
79.720413
 20
196.318470
 30
0.0
 10
79.720413
 20
191.393710
 30
0.0
  0
SPLINE
  5
17a
100
AcDbEntity
  8
Layer_1
 62
7
100
AcDbSpline
 70
8
 71
3
 72
8
 73
4
 74
0
 40
0
 40
0
 40
0
 40
0
 40
1
 40
1
 40
1
 40
1
 10
75.855015
 20
193.688140
 30
0.0
 10
75.855015
 20
193.105920
 30
0.0
 10
75.966981
 20
192.678730
 30
0.0
 10
76.190912
 20
192.406570
 30
0.0
  0
SPLINE
  5
17b
100
AcDbEntity
  8
Layer_1
 62
7
100
AcDbSpline
 70
8
 71
3
 72
8
 73
4
 74
0
 40
0
 40
0
 40
0
 40
0
 40
1
 40
1
 40
1
 40
1
 10
76.190912
 20
192.406570
 30
0.0
 10
76.418288
 20
192.137850
 30
0.0
 10
76.697341
 20
192.003490
 30
0.0
 10
77.028070
 20
192.003490
 30
0.0
  0
SPLINE
  5
17c
100
AcDbEntity
  8
Layer_1
 62
7
100
AcDbSpline
 70
8
 71
3
 72
8
 73
4
 74
0
 40
0
 40
0
 40
0
 40
0
 40
1
 40
1
 40
1
 40
1
 10
77.028070
 20
192.003490
 30
0.0
 10
77.382915
 20
192.003490
 30
0.0
 10
77.682638
 20
192.141293
 30
0.0
 10
77.927240
 20
192.416900
 30
0.0
  0
SPLINE
  5
17d
100
AcDbEntity
  8
Layer_1
 62
7
100
AcDbSpline
 70
8
 71
3
 72
8
 73
4
 74
0
 40
0
 40
0
 40
0
 40
0
 40
1
 40
1
 40
1
 40
1
 10
77.927240
 20
192.416900
 30
0.0
 10
78.171841
 20
192.695953
 30
0.0
 10
78.294142
 20
193.107643
 30
0.0
 10
78.294142
 20
193.651970
 30
0.0
  0
SPLINE
  5
17e
100
AcDbEntity
  8
Layer_1
 62
7
100
AcDbSpline
 70
8
 71
3
 72
8
 73
4
 74
0
 40
0
 40
0
 40
0
 40
0
 40
1
 40
1
 40
1
 40
1
 10
78.294142
 20
193.651970
 30
0.0
 10
78.294142
 20
194.220410
 30
0.0
 10
78.177009
 20
194.642433
 30
0.0
 10
77.942743
 20
194.918040
 30
0.0
  0
SPLINE
  5
17f
100
AcDbEntity
  8
Layer_1
 62
7
100
AcDbSpline
 70
8
 71
3
 72
8
 73
4
 74
0
 40
0
 40
0
 40
0
 40
0
 40
1
 40
1
 40
1
 40
1
 10
77.942743
 20
194.918040
 30
0.0
 10
77.708476
 20
195.193647
 30
0.0
 10
77.412198
 20
195.331450
 30
0.0
 10
77.053908
 20
195.331450
 30
0.0
  0
SPLINE
  5
180
100
AcDbEntity
  8
Layer_1
 62
7
100
AcDbSpline
 70
8
 71
3
 72
8
 73
4
 74
0
 40
0
 40
0
 40
0
 40
0
 40
1
 40
1
 40
1
 40
1
 10
77.053908
 20
195.331450
 30
0.0
 10
76.705953
 20
195.331450
 30
0.0
 10
76.418288
 20
195.195370
 30
0.0
 10
76.190912
 20
194.923210
 30
0.0
  0
SPLINE
  5
181
100
AcDbEntity
  8
Layer_1
 62
7
100
AcDbSpline
 70
8
 71
3
 72
8
 73
4
 74
0
 40
0
 40
0
 40
0
 40
0
 40
1
 40
1
 40
1
 40
1
 10
76.190912
 20
194.923210
 30
0.0
 10
75.966981
 20
194.654490
 30
0.0
 10
75.855015
 20
194.242800
 30
0.0
 10
75.855015
 20
193.688140
 30
0.0
  0
LWPOLYLINE
  5
182
100
AcDbEntity
  8
Layer_1
 62
7
100
AcDbPolyline
 90
1
 70
1
 10
74.557970
 20
190.468700
 30
0.0
  0
LWPOLYLINE
  5
183
100
AcDbEntity
  8
Layer_1
 62
7
100
AcDbPolyline
 90
1
 70
1
 10
75.855015
 20
193.688140
 30
0.0
  0
SPLINE
  5
184
100
AcDbEntity
  8
Layer_1
 62
7
100
AcDbSpline
 70
8
 71
3
 72
8
 73
4
 74
0
 40
0
 40
0
 40
0
 40
0
 40
1
 40
1
 40
1
 40
1
 10
83.317091
 20
192.582270
 30
0.0
 10
83.396328
 20
192.819983
 30
0.0
 10
83.446282
 20
192.976733
 30
0.0
 10
83.466953
 20
193.052520
 30
0.0
  0
SPLINE
  5
185
100
AcDbEntity
  8
Layer_1
 62
7
100
AcDbSpline
 70
8
 71
3
 72
8
 73
4
 74
0
 40
0
 40
0
 40
0
 40
0
 40
1
 40
1
 40
1
 40
1
 10
83.466953
 20
193.052520
 30
0.0
 10
83.515186
 20
193.207553
 30
0.0
 10
83.566863
 20
193.362583
 30
0.0
 10
83.621982
 20
193.517610
 30
0.0
  0
LWPOLYLINE
  5
186
100
AcDbEntity
  8
Layer_1
 62
7
100
AcDbPolyline
 90
5
 70
0
 10
82.671136
 20
190.830440
 30
0.0
 10
80.459384
 20
196.318470
 30
0.0
 10
81.983839
 20
196.318470
 30
0.0
 10
83.017368
 20
193.517610
 30
0.0
 10
83.317091
 20
192.582270
 30
0.0
  0
LWPOLYLINE
  5
187
100
AcDbEntity
  8
Layer_1
 62
7
100
AcDbPolyline
 90
5
 70
0
 10
83.621982
 20
193.517610
 30
0.0
 10
84.665846
 20
196.318470
 30
0.0
 10
86.159295
 20
196.318470
 30
0.0
 10
83.978549
 20
190.830440
 30
0.0
 10
82.671136
 20
190.830440
 30
0.0
  0
SPLINE
  5
188
100
AcDbEntity
  8
Layer_1
 62
7
100
AcDbSpline
 70
8
 71
3
 72
8
 73
4
 74
0
 40
0
 40
0
 40
0
 40
0
 40
1
 40
1
 40
1
 40
1
 10
86.841423
 20
194.881870
 30
0.0
 10
86.989562
 20
195.412417
 30
0.0
 10
87.244499
 20
195.805157
 30
0.0
 10
87.606234
 20
196.060090
 30
0.0
  0
SPLINE
  5
189
100
AcDbEntity
  8
Layer_1
 62
7
100
AcDbSpline
 70
8
 71
3
 72
8
 73
4
 74
0
 40
0
 40
0
 40
0
 40
0
 40
1
 40
1
 40
1
 40
1
 10
87.606234
 20
196.060090
 30
0.0
 10
87.967969
 20
196.315030
 30
0.0
 10
88.505404
 20
196.442500
 30
0.0
 10
89.218539
 20
196.442500
 30
0.0
  0
SPLINE
  5
18a
100
AcDbEntity
  8
Layer_1
 62
7
100
AcDbSpline
 70
8
 71
3
 72
8
 73
4
 74
0
 40
0
 40
0
 40
0
 40
0
 40
1
 40
1
 40
1
 40
1
 10
89.218539
 20
196.442500
 30
0.0
 10
89.866217
 20
196.442500
 30
0.0
 10
90.348530
 20
196.364983
 30
0.0
 10
90.665479
 20
196.209950
 30
0.0
  0
SPLINE
  5
18b
100
AcDbEntity
  8
Layer_1
 62
7
100
AcDbSpline
 70
8
 71
3
 72
8
 73
4
 74
0
 40
0
 40
0
 40
0
 40
0
 40
1
 40
1
 40
1
 40
1
 10
90.665479
 20
196.209950
 30
0.0
 10
90.982428
 20
196.058370
 30
0.0
 10
91.204636
 20
195.863723
 30
0.0
 10
91.332105
 20
195.626010
 30
0.0
  0
SPLINE
  5
18c
100
AcDbEntity
  8
Layer_1
 62
7
100
AcDbSpline
 70
8
 71
3
 72
8
 73
4
 74
0
 40
0
 40
0
 40
0
 40
0
 40
1
 40
1
 40
1
 40
1
 10
91.332105
 20
195.626010
 30
0.0
 10
91.463018
 20
195.391743
 30
0.0
 10
91.528475
 20
194.959383
 30
0.0
 10
91.528475
 20
194.328930
 30
0.0
  0
LWPOLYLINE
  5
18d
100
AcDbEntity
  8
Layer_1
 62
7
100
AcDbPolyline
 90
2
 70
0
 10
88.159172
 20
194.644160
 30
0.0
 10
86.841423
 20
194.881870
 30
0.0
  0
SPLINE
  5
18e
100
AcDbEntity
  8
Layer_1
 62
7
100
AcDbSpline
 70
8
 71
3
 72
8
 73
4
 74
0
 40
0
 40
0
 40
0
 40
0
 40
1
 40
1
 40
1
 40
1
 10
91.512975
 20
192.633940
 30
0.0
 10
91.512975
 20
192.151627
 30
0.0
 10
91.535368
 20
191.795060
 30
0.0
 10
91.580155
 20
191.564240
 30
0.0
  0
SPLINE
  5
18f
100
AcDbEntity
  8
Layer_1
 62
7
100
AcDbSpline
 70
8
 71
3
 72
8
 73
4
 74
0
 40
0
 40
0
 40
0
 40
0
 40
1
 40
1
 40
1
 40
1
 10
91.580155
 20
191.564240
 30
0.0
 10
91.628388
 20
191.336867
 30
0.0
 10
91.716238
 20
191.092267
 30
0.0
 10
91.843705
 20
190.830440
 30
0.0
  0
LWPOLYLINE
  5
190
100
AcDbEntity
  8
Layer_1
 62
7
100
AcDbPolyline
 90
2
 70
0
 10
91.528475
 20
194.328930
 30
0.0
 10
91.512975
 20
192.633940
 30
0.0
  0
SPLINE
  5
191
100
AcDbEntity
  8
Layer_1
 62
7
100
AcDbSpline
 70
8
 71
3
 72
8
 73
4
 74
0
 40
0
 40
0
 40
0
 40
0
 40
1
 40
1
 40
1
 40
1
 10
90.407100
 20
190.830440
 30
0.0
 10
90.369207
 20
190.926900
 30
0.0
 10
90.322698
 20
191.069870
 30
0.0
 10
90.267573
 20
191.259350
 30
0.0
  0
SPLINE
  5
192
100
AcDbEntity
  8
Layer_1
 62
7
100
AcDbSpline
 70
8
 71
3
 72
8
 73
4
 74
0
 40
0
 40
0
 40
0
 40
0
 40
1
 40
1
 40
1
 40
1
 10
90.267573
 20
191.259350
 30
0.0
 10
90.243460
 20
191.345477
 30
0.0
 10
90.226233
 20
191.402320
 30
0.0
 10
90.215893
 20
191.429880
 30
0.0
  0
SPLINE
  5
193
100
AcDbEntity
  8
Layer_1
 62
7
100
AcDbSpline
 70
8
 71
3
 72
8
 73
4
 74
0
 40
0
 40
0
 40
0
 40
0
 40
1
 40
1
 40
1
 40
1
 10
90.215893
 20
191.429880
 30
0.0
 10
89.967846
 20
191.188727
 30
0.0
 10
89.702574
 20
191.007860
 30
0.0
 10
89.420076
 20
190.887280
 30
0.0
  0
SPLINE
  5
194
100
AcDbEntity
  8
Layer_1
 62
7
100
AcDbSpline
 70
8
 71
3
 72
8
 73
4
 74
0
 40
0
 40
0
 40
0
 40
0
 40
1
 40
1
 40
1
 40
1
 10
89.420076
 20
190.887280
 30
0.0
 10
89.137578
 20
190.766700
 30
0.0
 10
88.836132
 20
190.706410
 30
0.0
 10
88.515738
 20
190.706410
 30
0.0
  0
SPLINE
  5
195
100
AcDbEntity
  8
Layer_1
 62
7
100
AcDbSpline
 70
8
 71
3
 72
8
 73
4
 74
0
 40
0
 40
0
 40
0
 40
0
 40
1
 40
1
 40
1
 40
1
 10
88.515738
 20
190.706410
 30
0.0
 10
87.950743
 20
190.706410
 30
0.0
 10
87.504603
 20
190.859717
 30
0.0
 10
87.177319
 20
191.166330
 30
0.0
  0
SPLINE
  5
196
100
AcDbEntity
  8
Layer_1
 62
7
100
AcDbSpline
 70
8
 71
3
 72
8
 73
4
 74
0
 40
0
 40
0
 40
0
 40
0
 40
1
 40
1
 40
1
 40
1
 10
87.177319
 20
191.166330
 30
0.0
 10
86.853480
 20
191.472943
 30
0.0
 10
86.691560
 20
191.860517
 30
0.0
 10
86.691560
 20
192.329050
 30
0.0
  0
SPLINE
  5
197
100
AcDbEntity
  8
Layer_1
 62
7
100
AcDbSpline
 70
8
 71
3
 72
8
 73
4
 74
0
 40
0
 40
0
 40
0
 40
0
 40
1
 40
1
 40
1
 40
1
 10
86.691560
 20
192.329050
 30
0.0
 10
86.691560
 20
192.639110
 30
0.0
 10
86.765630
 20
192.914720
 30
0.0
 10
86.913769
 20
193.155880
 30
0.0
  0
SPLINE
  5
198
100
AcDbEntity
  8
Layer_1
 62
7
100
AcDbSpline
 70
8
 71
3
 72
8
 73
4
 74
0
 40
0
 40
0
 40
0
 40
0
 40
1
 40
1
 40
1
 40
1
 10
86.913769
 20
193.155880
 30
0.0
 10
87.061908
 20
193.400480
 30
0.0
 10
87.268614
 20
193.586513
 30
0.0
 10
87.533886
 20
193.713980
 30
0.0
  0
SPLINE
  5
199
100
AcDbEntity
  8
Layer_1
 62
7
100
AcDbSpline
 70
8
 71
3
 72
8
 73
4
 74
0
 40
0
 40
0
 40
0
 40
0
 40
1
 40
1
 40
1
 40
1
 10
87.533886
 20
193.713980
 30
0.0
 10
87.802603
 20
193.844893
 30
0.0
 10
88.188454
 20
193.958583
 30
0.0
 10
88.691438
 20
194.055050
 30
0.0
  0
SPLINE
  5
19a
100
AcDbEntity
  8
Layer_1
 62
7
100
AcDbSpline
 70
8
 71
3
 72
8
 73
4
 74
0
 40
0
 40
0
 40
0
 40
0
 40
1
 40
1
 40
1
 40
1
 10
88.691438
 20
194.055050
 30
0.0
 10
89.370122
 20
194.182517
 30
0.0
 10
89.840378
 20
194.301370
 30
0.0
 10
90.102205
 20
194.411610
 30
0.0
  0
LWPOLYLINE
  5
19b
100
AcDbEntity
  8
Layer_1
 62
7
100
AcDbPolyline
 90
2
 70
0
 10
91.843705
 20
190.830440
 30
0.0
 10
90.407100
 20
190.830440
 30
0.0
  0
SPLINE
  5
19c
100
AcDbEntity
  8
Layer_1
 62
7
100
AcDbSpline
 70
8
 71
3
 72
8
 73
4
 74
0
 40
0
 40
0
 40
0
 40
0
 40
1
 40
1
 40
1
 40
1
 10
90.102205
 20
194.556310
 30
0.0
 10
90.102205
 20
194.835363
 30
0.0
 10
90.033303
 20
195.033457
 30
0.0
 10
89.895499
 20
195.150590
 30
0.0
  0
SPLINE
  5
19d
100
AcDbEntity
  8
Layer_1
 62
7
100
AcDbSpline
 70
8
 71
3
 72
8
 73
4
 74
0
 40
0
 40
0
 40
0
 40
0
 40
1
 40
1
 40
1
 40
1
 10
89.895499
 20
195.150590
 30
0.0
 10
89.757695
 20
195.271163
 30
0.0
 10
89.497590
 20
195.331450
 30
0.0
 10
89.115185
 20
195.331450
 30
0.0
  0
SPLINE
  5
19e
100
AcDbEntity
  8
Layer_1
 62
7
100
AcDbSpline
 70
8
 71
3
 72
8
 73
4
 74
0
 40
0
 40
0
 40
0
 40
0
 40
1
 40
1
 40
1
 40
1
 10
89.115185
 20
195.331450
 30
0.0
 10
88.856803
 20
195.331450
 30
0.0
 10
88.655265
 20
195.279773
 30
0.0
 10
88.510571
 20
195.176420
 30
0.0
  0
SPLINE
  5
19f
100
AcDbEntity
  8
Layer_1
 62
7
100
AcDbSpline
 70
8
 71
3
 72
8
 73
4
 74
0
 40
0
 40
0
 40
0
 40
0
 40
1
 40
1
 40
1
 40
1
 10
88.510571
 20
195.176420
 30
0.0
 10
88.365877
 20
195.076513
 30
0.0
 10
88.248744
 20
194.899093
 30
0.0
 10
88.159171
 20
194.644160
 30
0.0
  0
LWPOLYLINE
  5
1a0
100
AcDbEntity
  8
Layer_1
 62
7
100
AcDbPolyline
 90
2
 70
0
 10
90.102205
 20
194.411610
 30
0.0
 10
90.102205
 20
194.556310
 30
0.0
  0
SPLINE
  5
1a1
100
AcDbEntity
  8
Layer_1
 62
7
100
AcDbSpline
 70
8
 71
3
 72
8
 73
4
 74
0
 40
0
 40
0
 40
0
 40
0
 40
1
 40
1
 40
1
 40
1
 10
90.102206
 20
193.465930
 30
0.0
 10
89.916171
 20
193.403930
 30
0.0
 10
89.621615
 20
193.329863
 30
0.0
 10
89.218539
 20
193.243730
 30
0.0
  0
SPLINE
  5
1a2
100
AcDbEntity
  8
Layer_1
 62
7
100
AcDbSpline
 70
8
 71
3
 72
8
 73
4
 74
0
 40
0
 40
0
 40
0
 40
0
 40
1
 40
1
 40
1
 40
1
 10
89.218539
 20
193.243730
 30
0.0
 10
88.815463
 20
193.157597
 30
0.0
 10
88.551913
 20
193.073190
 30
0.0
 10
88.427889
 20
192.990510
 30
0.0
  0
SPLINE
  5
1a3
100
AcDbEntity
  8
Layer_1
 62
7
100
AcDbSpline
 70
8
 71
3
 72
8
 73
4
 74
0
 40
0
 40
0
 40
0
 40
0
 40
1
 40
1
 40
1
 40
1
 10
88.427889
 20
192.990510
 30
0.0
 10
88.238409
 20
192.856150
 30
0.0
 10
88.143669
 20
192.685617
 30
0.0
 10
88.143669
 20
192.478910
 30
0.0
  0
SPLINE
  5
1a4
100
AcDbEntity
  8
Layer_1
 62
7
100
AcDbSpline
 70
8
 71
3
 72
8
 73
4
 74
0
 40
0
 40
0
 40
0
 40
0
 40
1
 40
1
 40
1
 40
1
 10
88.143669
 20
192.478910
 30
0.0
 10
88.143669
 20
192.275650
 30
0.0
 10
88.219461
 20
192.099953
 30
0.0
 10
88.371045
 20
191.951820
 30
0.0
  0
SPLINE
  5
1a5
100
AcDbEntity
  8
Layer_1
 62
7
100
AcDbSpline
 70
8
 71
3
 72
8
 73
4
 74
0
 40
0
 40
0
 40
0
 40
0
 40
1
 40
1
 40
1
 40
1
 10
88.371045
 20
191.951820
 30
0.0
 10
88.522630
 20
191.803680
 30
0.0
 10
88.715555
 20
191.729610
 30
0.0
 10
88.949821
 20
191.729610
 30
0.0
  0
SPLINE
  5
1a6
100
AcDbEntity
  8
Layer_1
 62
7
100
AcDbSpline
 70
8
 71
3
 72
8
 73
4
 74
0
 40
0
 40
0
 40
0
 40
0
 40
1
 40
1
 40
1
 40
1
 10
88.949821
 20
191.729610
 30
0.0
 10
89.211648
 20
191.729610
 30
0.0
 10
89.461418
 20
191.815737
 30
0.0
 10
89.699130
 20
191.987990
 30
0.0
  0
SPLINE
  5
1a7
100
AcDbEntity
  8
Layer_1
 62
7
100
AcDbSpline
 70
8
 71
3
 72
8
 73
4
 74
0
 40
0
 40
0
 40
0
 40
0
 40
1
 40
1
 40
1
 40
1
 10
89.699130
 20
191.987990
 30
0.0
 10
89.874829
 20
192.118903
 30
0.0
 10
89.990240
 20
192.279100
 30
0.0
 10
90.045362
 20
192.468580
 30
0.0
  0
SPLINE
  5
1a8
100
AcDbEntity
  8
Layer_1
 62
7
100
AcDbSpline
 70
8
 71
3
 72
8
 73
4
 74
0
 40
0
 40
0
 40
0
 40
0
 40
1
 40
1
 40
1
 40
1
 10
90.045362
 20
192.468580
 30
0.0
 10
90.083255
 20
192.592600
 30
0.0
 10
90.102202
 20
192.828590
 30
0.0
 10
90.102202
 20
193.176550
 30
0.0
  0
LWPOLYLINE
  5
1a9
100
AcDbEntity
  8
Layer_1
 62
7
100
AcDbPolyline
 90
1
 70
1
 10
88.159171
 20
194.644160
 30
0.0
  0
LWPOLYLINE
  5
1aa
100
AcDbEntity
  8
Layer_1
 62
7
100
AcDbPolyline
 90
2
 70
0
 10
90.102202
 20
193.176550
 30
0.0
 10
90.102206
 20
193.465930
 30
0.0
  0
LWPOLYLINE
  5
1ab
100
AcDbEntity
  8
Layer_1
 62
7
100
AcDbPolyline
 90
12
 70
1
 10
74.536374
 20
180.139660
 30
0.0
 10
74.536374
 20
187.715430
 30
0.0
 10
80.153602
 20
187.715430
 30
0.0
 10
80.153602
 20
186.433850
 30
0.0
 10
76.065997
 20
186.433850
 30
0.0
 10
76.065997
 20
184.754370
 30
0.0
 10
79.869382
 20
184.754370
 30
0.0
 10
79.869382
 20
183.477960
 30
0.0
 10
76.065997
 20
183.477960
 30
0.0
 10
76.065997
 20
181.416070
 30
0.0
 10
80.298296
 20
181.416070
 30
0.0
 10
80.298296
 20
180.139660
 30
0.0
  0
SPLINE
  5
1ac
100
AcDbEntity
  8
Layer_1
 62
7
100
AcDbSpline
 70
8
 71
3
 72
8
 73
4
 74
0
 40
0
 40
0
 40
0
 40
0
 40
1
 40
1
 40
1
 40
1
 10
85.135211
 20
182.940530
 30
0.0
 10
85.135211
 20
183.533083
 30
0.0
 10
85.104204
 20
183.915487
 30
0.0
 10
85.042191
 20
184.087740
 30
0.0
  0
SPLINE
  5
1ad
100
AcDbEntity
  8
Layer_1
 62
7
100
AcDbSpline
 70
8
 71
3
 72
8
 73
4
 74
0
 40
0
 40
0
 40
0
 40
0
 40
1
 40
1
 40
1
 40
1
 10
85.042191
 20
184.087740
 30
0.0
 10
84.980178
 20
184.263440
 30
0.0
 10
84.878547
 20
184.399523
 30
0.0
 10
84.737300
 20
184.495990
 30
0.0
  0
SPLINE
  5
1ae
100
AcDbEntity
  8
Layer_1
 62
7
100
AcDbSpline
 70
8
 71
3
 72
8
 73
4
 74
0
 40
0
 40
0
 40
0
 40
0
 40
1
 40
1
 40
1
 40
1
 10
84.737300
 20
184.495990
 30
0.0
 10
84.599496
 20
184.592450
 30
0.0
 10
84.432409
 20
184.640680
 30
0.0
 10
84.236039
 20
184.640680
 30
0.0
  0
SPLINE
  5
1af
100
AcDbEntity
  8
Layer_1
 62
7
100
AcDbSpline
 70
8
 71
3
 72
8
 73
4
 74
0
 40
0
 40
0
 40
0
 40
0
 40
1
 40
1
 40
1
 40
1
 10
84.236039
 20
184.640680
 30
0.0
 10
83.984547
 20
184.640680
 30
0.0
 10
83.758893
 20
184.571780
 30
0.0
 10
83.559077
 20
184.433980
 30
0.0
  0
SPLINE
  5
1b0
100
AcDbEntity
  8
Layer_1
 62
7
100
AcDbSpline
 70
8
 71
3
 72
8
 73
4
 74
0
 40
0
 40
0
 40
0
 40
0
 40
1
 40
1
 40
1
 40
1
 10
83.559077
 20
184.433980
 30
0.0
 10
83.359262
 20
184.296173
 30
0.0
 10
83.221458
 20
184.113580
 30
0.0
 10
83.145666
 20
183.886200
 30
0.0
  0
SPLINE
  5
1b1
100
AcDbEntity
  8
Layer_1
 62
7
100
AcDbSpline
 70
8
 71
3
 72
8
 73
4
 74
0
 40
0
 40
0
 40
0
 40
0
 40
1
 40
1
 40
1
 40
1
 10
83.145666
 20
183.886200
 30
0.0
 10
83.073319
 20
183.658827
 30
0.0
 10
83.037145
 20
183.238527
 30
0.0
 10
83.037145
 20
182.625300
 30
0.0
  0
LWPOLYLINE
  5
1b2
100
AcDbEntity
  8
Layer_1
 62
7
100
AcDbPolyline
 90
3
 70
0
 10
86.587318
 20
180.139660
 30
0.0
 10
85.135211
 20
180.139660
 30
0.0
 10
85.135211
 20
182.940530
 30
0.0
  0
SPLINE
  5
1b3
100
AcDbEntity
  8
Layer_1
 62
7
100
AcDbSpline
 70
8
 71
3
 72
8
 73
4
 74
0
 40
0
 40
0
 40
0
 40
0
 40
1
 40
1
 40
1
 40
1
 10
82.933795
 20
184.821550
 30
0.0
 10
83.412663
 20
185.441663
 30
0.0
 10
84.015555
 20
185.751720
 30
0.0
 10
84.742470
 20
185.751720
 30
0.0
  0
SPLINE
  5
1b4
100
AcDbEntity
  8
Layer_1
 62
7
100
AcDbSpline
 70
8
 71
3
 72
8
 73
4
 74
0
 40
0
 40
0
 40
0
 40
0
 40
1
 40
1
 40
1
 40
1
 10
84.742470
 20
185.751720
 30
0.0
 10
85.062863
 20
185.751720
 30
0.0
 10
85.355696
 20
185.693153
 30
0.0
 10
85.620969
 20
185.576020
 30
0.0
  0
SPLINE
  5
1b5
100
AcDbEntity
  8
Layer_1
 62
7
100
AcDbSpline
 70
8
 71
3
 72
8
 73
4
 74
0
 40
0
 40
0
 40
0
 40
0
 40
1
 40
1
 40
1
 40
1
 10
85.620969
 20
185.576020
 30
0.0
 10
85.886242
 20
185.462333
 30
0.0
 10
86.086057
 20
185.315917
 30
0.0
 10
86.220416
 20
185.136770
 30
0.0
  0
SPLINE
  5
1b6
100
AcDbEntity
  8
Layer_1
 62
7
100
AcDbSpline
 70
8
 71
3
 72
8
 73
4
 74
0
 40
0
 40
0
 40
0
 40
0
 40
1
 40
1
 40
1
 40
1
 10
86.220416
 20
185.136770
 30
0.0
 10
86.358219
 20
184.957630
 30
0.0
 10
86.452959
 20
184.754370
 30
0.0
 10
86.504636
 20
184.526990
 30
0.0
  0
SPLINE
  5
1b7
100
AcDbEntity
  8
Layer_1
 62
7
100
AcDbSpline
 70
8
 71
3
 72
8
 73
4
 74
0
 40
0
 40
0
 40
0
 40
0
 40
1
 40
1
 40
1
 40
1
 10
86.504636
 20
184.526990
 30
0.0
 10
86.559756
 20
184.299617
 30
0.0
 10
86.587316
 20
183.974057
 30
0.0
 10
86.587316
 20
183.550310
 30
0.0
  0
LWPOLYLINE
  5
1b8
100
AcDbEntity
  8
Layer_1
 62
7
100
AcDbPolyline
 90
6
 70
0
 10
83.037145
 20
182.625300
 30
0.0
 10
83.037145
 20
180.139660
 30
0.0
 10
81.585040
 20
180.139660
 30
0.0
 10
81.585040
 20
185.627700
 30
0.0
 10
82.933795
 20
185.627700
 30
0.0
 10
82.933795
 20
184.821550
 30
0.0
  0
LWPOLYLINE
  5
1b9
100
AcDbEntity
  8
Layer_1
 62
7
100
AcDbPolyline
 90
2
 70
0
 10
86.587316
 20
183.550310
 30
0.0
 10
86.587318
 20
180.139660
 30
0.0
  0
SPLINE
  5
1ba
100
AcDbEntity
  8
Layer_1
 62
7
100
AcDbSpline
 70
8
 71
3
 72
8
 73
4
 74
0
 40
0
 40
0
 40
0
 40
0
 40
1
 40
1
 40
1
 40
1
 10
89.589718
 20
179.576390
 30
0.0
 10
89.617278
 20
179.383463
 30
0.0
 10
89.681012
 20
179.250827
 30
0.0
 10
89.780921
 20
179.178480
 30
0.0
  0
SPLINE
  5
1bb
100
AcDbEntity
  8
Layer_1
 62
7
100
AcDbSpline
 70
8
 71
3
 72
8
 73
4
 74
0
 40
0
 40
0
 40
0
 40
0
 40
1
 40
1
 40
1
 40
1
 10
89.780921
 20
179.178480
 30
0.0
 10
89.918725
 20
179.075127
 30
0.0
 10
90.135766
 20
179.023450
 30
0.0
 10
90.432044
 20
179.023450
 30
0.0
  0
SPLINE
  5
1bc
100
AcDbEntity
  8
Layer_1
 62
7
100
AcDbSpline
 70
8
 71
3
 72
8
 73
4
 74
0
 40
0
 40
0
 40
0
 40
0
 40
1
 40
1
 40
1
 40
1
 10
90.432044
 20
179.023450
 30
0.0
 10
90.811005
 20
179.023450
 30
0.0
 10
91.095225
 20
179.080297
 30
0.0
 10
91.284705
 20
179.193990
 30
0.0
  0
SPLINE
  5
1bd
100
AcDbEntity
  8
Layer_1
 62
7
100
AcDbSpline
 70
8
 71
3
 72
8
 73
4
 74
0
 40
0
 40
0
 40
0
 40
0
 40
1
 40
1
 40
1
 40
1
 10
91.284705
 20
179.193990
 30
0.0
 10
91.412174
 20
179.269777
 30
0.0
 10
91.508636
 20
179.392077
 30
0.0
 10
91.574093
 20
179.560890
 30
0.0
  0
SPLINE
  5
1be
100
AcDbEntity
  8
Layer_1
 62
7
100
AcDbSpline
 70
8
 71
3
 72
8
 73
4
 74
0
 40
0
 40
0
 40
0
 40
0
 40
1
 40
1
 40
1
 40
1
 10
91.574093
 20
179.560890
 30
0.0
 10
91.618880
 20
179.681470
 30
0.0
 10
91.641273
 20
179.903677
 30
0.0
 10
91.641273
 20
180.227510
 30
0.0
  0
LWPOLYLINE
  5
1bf
100
AcDbEntity
  8
Layer_1
 62
7
100
AcDbPolyline
 90
2
 70
0
 10
87.930905
 20
179.777930
 30
0.0
 10
89.589718
 20
179.576390
 30
0.0
  0
SPLINE
  5
1c0
100
AcDbEntity
  8
Layer_1
 62
7
100
AcDbSpline
 70
8
 71
3
 72
8
 73
4
 74
0
 40
0
 40
0
 40
0
 40
0
 40
1
 40
1
 40
1
 40
1
 10
91.641273
 20
181.028500
 30
0.0
 10
91.207191
 20
180.435940
 30
0.0
 10
90.659421
 20
180.139660
 30
0.0
 10
89.997962
 20
180.139660
 30
0.0
  0
SPLINE
  5
1c1
100
AcDbEntity
  8
Layer_1
 62
7
100
AcDbSpline
 70
8
 71
3
 72
8
 73
4
 74
0
 40
0
 40
0
 40
0
 40
0
 40
1
 40
1
 40
1
 40
1
 10
89.997962
 20
180.139660
 30
0.0
 10
89.260712
 20
180.139660
 30
0.0
 10
88.676768
 20
180.451443
 30
0.0
 10
88.246131
 20
181.075010
 30
0.0
  0
SPLINE
  5
1c2
100
AcDbEntity
  8
Layer_1
 62
7
100
AcDbSpline
 70
8
 71
3
 72
8
 73
4
 74
0
 40
0
 40
0
 40
0
 40
0
 40
1
 40
1
 40
1
 40
1
 10
88.246131
 20
181.075010
 30
0.0
 10
87.908512
 20
181.567657
 30
0.0
 10
87.739702
 20
182.180883
 30
0.0
 10
87.739702
 20
182.914690
 30
0.0
  0
SPLINE
  5
1c3
100
AcDbEntity
  8
Layer_1
 62
7
100
AcDbSpline
 70
8
 71
3
 72
8
 73
4
 74
0
 40
0
 40
0
 40
0
 40
0
 40
1
 40
1
 40
1
 40
1
 10
87.739702
 20
182.914690
 30
0.0
 10
87.739702
 20
183.834530
 30
0.0
 10
87.960188
 20
184.537330
 30
0.0
 10
88.401161
 20
185.023090
 30
0.0
  0
SPLINE
  5
1c4
100
AcDbEntity
  8
Layer_1
 62
7
100
AcDbSpline
 70
8
 71
3
 72
8
 73
4
 74
0
 40
0
 40
0
 40
0
 40
0
 40
1
 40
1
 40
1
 40
1
 10
88.401161
 20
185.023090
 30
0.0
 10
88.845578
 20
185.508843
 30
0.0
 10
89.396793
 20
185.751720
 30
0.0
 10
90.054806
 20
185.751720
 30
0.0
  0
SPLINE
  5
1c5
100
AcDbEntity
  8
Layer_1
 62
7
100
AcDbSpline
 70
8
 71
3
 72
8
 73
4
 74
0
 40
0
 40
0
 40
0
 40
0
 40
1
 40
1
 40
1
 40
1
 10
90.054806
 20
185.751720
 30
0.0
 10
90.733490
 20
185.751720
 30
0.0
 10
91.293318
 20
185.453720
 30
0.0
 10
91.734290
 20
184.857720
 30
0.0
  0
LWPOLYLINE
  5
1c6
100
AcDbEntity
  8
Layer_1
 62
7
100
AcDbPolyline
 90
2
 70
0
 10
91.641273
 20
180.227510
 30
0.0
 10
91.641273
 20
181.028500
 30
0.0
  0
SPLINE
  5
1c7
100
AcDbEntity
  8
Layer_1
 62
7
100
AcDbSpline
 70
8
 71
3
 72
8
 73
4
 74
0
 40
0
 40
0
 40
0
 40
0
 40
1
 40
1
 40
1
 40
1
 10
93.093380
 20
180.702940
 30
0.0
 10
93.093380
 20
180.055260
 30
0.0
 10
93.039981
 20
179.571223
 30
0.0
 10
92.933184
 20
179.250830
 30
0.0
  0
SPLINE
  5
1c8
100
AcDbEntity
  8
Layer_1
 62
7
100
AcDbSpline
 70
8
 71
3
 72
8
 73
4
 74
0
 40
0
 40
0
 40
0
 40
0
 40
1
 40
1
 40
1
 40
1
 10
92.933184
 20
179.250830
 30
0.0
 10
92.826386
 20
178.930437
 30
0.0
 10
92.676524
 20
178.678943
 30
0.0
 10
92.483599
 20
178.496350
 30
0.0
  0
SPLINE
  5
1c9
100
AcDbEntity
  8
Layer_1
 62
7
100
AcDbSpline
 70
8
 71
3
 72
8
 73
4
 74
0
 40
0
 40
0
 40
0
 40
0
 40
1
 40
1
 40
1
 40
1
 10
92.483599
 20
178.496350
 30
0.0
 10
92.290674
 20
178.313763
 30
0.0
 10
92.032291
 20
178.170793
 30
0.0
 10
91.708452
 20
178.067440
 30
0.0
  0
SPLINE
  5
1ca
100
AcDbEntity
  8
Layer_1
 62
7
100
AcDbSpline
 70
8
 71
3
 72
8
 73
4
 74
0
 40
0
 40
0
 40
0
 40
0
 40
1
 40
1
 40
1
 40
1
 10
91.708452
 20
178.067440
 30
0.0
 10
91.388058
 20
177.964087
 30
0.0
 10
90.981537
 20
177.912410
 30
0.0
 10
90.488888
 20
177.912410
 30
0.0
  0
SPLINE
  5
1cb
100
AcDbEntity
  8
Layer_1
 62
7
100
AcDbSpline
 70
8
 71
3
 72
8
 73
4
 74
0
 40
0
 40
0
 40
0
 40
0
 40
1
 40
1
 40
1
 40
1
 10
90.488888
 20
177.912410
 30
0.0
 10
89.558713
 20
177.912410
 30
0.0
 10
88.898977
 20
178.072607
 30
0.0
 10
88.509681
 20
178.393000
 30
0.0
  0
SPLINE
  5
1cc
100
AcDbEntity
  8
Layer_1
 62
7
100
AcDbSpline
 70
8
 71
3
 72
8
 73
4
 74
0
 40
0
 40
0
 40
0
 40
0
 40
1
 40
1
 40
1
 40
1
 10
88.509681
 20
178.393000
 30
0.0
 10
88.120385
 20
178.709947
 30
0.0
 10
87.925737
 20
179.113023
 30
0.0
 10
87.925737
 20
179.602230
 30
0.0
  0
SPLINE
  5
1cd
100
AcDbEntity
  8
Layer_1
 62
7
100
AcDbSpline
 70
8
 71
3
 72
8
 73
4
 74
0
 40
0
 40
0
 40
0
 40
0
 40
1
 40
1
 40
1
 40
1
 10
87.925737
 20
179.602230
 30
0.0
 10
87.925737
 20
179.650497
 30
0.0
 10
87.927470
 20
179.709063
 30
0.0
 10
87.930937
 20
179.777930
 30
0.0
  0
LWPOLYLINE
  5
1ce
100
AcDbEntity
  8
Layer_1
 62
7
100
AcDbPolyline
 90
4
 70
0
 10
91.734290
 20
184.857720
 30
0.0
 10
91.734290
 20
185.627700
 30
0.0
 10
93.093380
 20
185.627700
 30
0.0
 10
93.093380
 20
180.702940
 30
0.0
  0
SPLINE
  5
1cf
100
AcDbEntity
  8
Layer_1
 62
7
100
AcDbSpline
 70
8
 71
3
 72
8
 73
4
 74
0
 40
0
 40
0
 40
0
 40
0
 40
1
 40
1
 40
1
 40
1
 10
89.227983
 20
182.997370
 30
0.0
 10
89.227983
 20
182.415150
 30
0.0
 10
89.339949
 20
181.987957
 30
0.0
 10
89.563880
 20
181.715790
 30
0.0
  0
SPLINE
  5
1d0
100
AcDbEntity
  8
Layer_1
 62
7
100
AcDbSpline
 70
8
 71
3
 72
8
 73
4
 74
0
 40
0
 40
0
 40
0
 40
0
 40
1
 40
1
 40
1
 40
1
 10
89.563880
 20
181.715790
 30
0.0
 10
89.791257
 20
181.447077
 30
0.0
 10
90.070309
 20
181.312720
 30
0.0
 10
90.401038
 20
181.312720
 30
0.0
  0
SPLINE
  5
1d1
100
AcDbEntity
  8
Layer_1
 62
7
100
AcDbSpline
 70
8
 71
3
 72
8
 73
4
 74
0
 40
0
 40
0
 40
0
 40
0
 40
1
 40
1
 40
1
 40
1
 10
90.401038
 20
181.312720
 30
0.0
 10
90.755883
 20
181.312720
 30
0.0
 10
91.055607
 20
181.450523
 30
0.0
 10
91.300208
 20
181.726130
 30
0.0
  0
SPLINE
  5
1d2
100
AcDbEntity
  8
Layer_1
 62
7
100
AcDbSpline
 70
8
 71
3
 72
8
 73
4
 74
0
 40
0
 40
0
 40
0
 40
0
 40
1
 40
1
 40
1
 40
1
 10
91.300208
 20
181.726130
 30
0.0
 10
91.544810
 20
182.005183
 30
0.0
 10
91.667111
 20
182.416873
 30
0.0
 10
91.667111
 20
182.961200
 30
0.0
  0
SPLINE
  5
1d3
100
AcDbEntity
  8
Layer_1
 62
7
100
AcDbSpline
 70
8
 71
3
 72
8
 73
4
 74
0
 40
0
 40
0
 40
0
 40
0
 40
1
 40
1
 40
1
 40
1
 10
91.667111
 20
182.961200
 30
0.0
 10
91.667111
 20
183.529640
 30
0.0
 10
91.549978
 20
183.951663
 30
0.0
 10
91.315711
 20
184.227270
 30
0.0
  0
SPLINE
  5
1d4
100
AcDbEntity
  8
Layer_1
 62
7
100
AcDbSpline
 70
8
 71
3
 72
8
 73
4
 74
0
 40
0
 40
0
 40
0
 40
0
 40
1
 40
1
 40
1
 40
1
 10
91.315711
 20
184.227270
 30
0.0
 10
91.081444
 20
184.502877
 30
0.0
 10
90.785166
 20
184.640680
 30
0.0
 10
90.426877
 20
184.640680
 30
0.0
  0
SPLINE
  5
1d5
100
AcDbEntity
  8
Layer_1
 62
7
100
AcDbSpline
 70
8
 71
3
 72
8
 73
4
 74
0
 40
0
 40
0
 40
0
 40
0
 40
1
 40
1
 40
1
 40
1
 10
90.426877
 20
184.640680
 30
0.0
 10
90.078922
 20
184.640680
 30
0.0
 10
89.791257
 20
184.504600
 30
0.0
 10
89.563880
 20
184.232440
 30
0.0
  0
SPLINE
  5
1d6
100
AcDbEntity
  8
Layer_1
 62
7
100
AcDbSpline
 70
8
 71
3
 72
8
 73
4
 74
0
 40
0
 40
0
 40
0
 40
0
 40
1
 40
1
 40
1
 40
1
 10
89.563880
 20
184.232440
 30
0.0
 10
89.339949
 20
183.963720
 30
0.0
 10
89.227983
 20
183.552030
 30
0.0
 10
89.227983
 20
182.997370
 30
0.0
  0
LWPOLYLINE
  5
1d7
100
AcDbEntity
  8
Layer_1
 62
7
100
AcDbPolyline
 90
1
 70
1
 10
87.930937
 20
179.777930
 30
0.0
  0
LWPOLYLINE
  5
1d8
100
AcDbEntity
  8
Layer_1
 62
7
100
AcDbPolyline
 90
1
 70
1
 10
89.227983
 20
182.997370
 30
0.0
  0
LWPOLYLINE
  5
1d9
100
AcDbEntity
  8
Layer_1
 62
7
100
AcDbPolyline
 90
4
 70
1
 10
94.535152
 20
186.371840
 30
0.0
 10
94.535152
 20
187.715430
 30
0.0
 10
95.987260
 20
187.715430
 30
0.0
 10
95.987260
 20
186.371840
 30
0.0
  0
LWPOLYLINE
  5
1da
100
AcDbEntity
  8
Layer_1
 62
7
100
AcDbPolyline
 90
4
 70
1
 10
94.535152
 20
180.139660
 30
0.0
 10
94.535152
 20
185.627700
 30
0.0
 10
95.987260
 20
185.627700
 30
0.0
 10
95.987260
 20
180.139660
 30
0.0
  0
SPLINE
  5
1db
100
AcDbEntity
  8
Layer_1
 62
7
100
AcDbSpline
 70
8
 71
3
 72
8
 73
4
 74
0
 40
0
 40
0
 40
0
 40
0
 40
1
 40
1
 40
1
 40
1
 10
101.010210
 20
182.940530
 30
0.0
 10
101.010210
 20
183.533083
 30
0.0
 10
100.979210
 20
183.915487
 30
0.0
 10
100.917210
 20
184.087740
 30
0.0
  0
SPLINE
  5
1dc
100
AcDbEntity
  8
Layer_1
 62
7
100
AcDbSpline
 70
8
 71
3
 72
8
 73
4
 74
0
 40
0
 40
0
 40
0
 40
0
 40
1
 40
1
 40
1
 40
1
 10
100.917210
 20
184.087740
 30
0.0
 10
100.855210
 20
184.263440
 30
0.0
 10
100.753580
 20
184.399523
 30
0.0
 10
100.612320
 20
184.495990
 30
0.0
  0
SPLINE
  5
1dd
100
AcDbEntity
  8
Layer_1
 62
7
100
AcDbSpline
 70
8
 71
3
 72
8
 73
4
 74
0
 40
0
 40
0
 40
0
 40
0
 40
1
 40
1
 40
1
 40
1
 10
100.612320
 20
184.495990
 30
0.0
 10
100.474520
 20
184.592450
 30
0.0
 10
100.307433
 20
184.640680
 30
0.0
 10
100.111060
 20
184.640680
 30
0.0
  0
SPLINE
  5
1de
100
AcDbEntity
  8
Layer_1
 62
7
100
AcDbSpline
 70
8
 71
3
 72
8
 73
4
 74
0
 40
0
 40
0
 40
0
 40
0
 40
1
 40
1
 40
1
 40
1
 10
100.111060
 20
184.640680
 30
0.0
 10
99.859569
 20
184.640680
 30
0.0
 10
99.633915
 20
184.571780
 30
0.0
 10
99.434099
 20
184.433980
 30
0.0
  0
SPLINE
  5
1df
100
AcDbEntity
  8
Layer_1
 62
7
100
AcDbSpline
 70
8
 71
3
 72
8
 73
4
 74
0
 40
0
 40
0
 40
0
 40
0
 40
1
 40
1
 40
1
 40
1
 10
99.434099
 20
184.433980
 30
0.0
 10
99.234284
 20
184.296173
 30
0.0
 10
99.096480
 20
184.113580
 30
0.0
 10
99.020688
 20
183.886200
 30
0.0
  0
SPLINE
  5
1e0
100
AcDbEntity
  8
Layer_1
 62
7
100
AcDbSpline
 70
8
 71
3
 72
8
 73
4
 74
0
 40
0
 40
0
 40
0
 40
0
 40
1
 40
1
 40
1
 40
1
 10
99.020688
 20
183.886200
 30
0.0
 10
98.948341
 20
183.658827
 30
0.0
 10
98.912167
 20
183.238527
 30
0.0
 10
98.912167
 20
182.625300
 30
0.0
  0
LWPOLYLINE
  5
1e1
100
AcDbEntity
  8
Layer_1
 62
7
100
AcDbPolyline
 90
3
 70
0
 10
102.462320
 20
180.139660
 30
0.0
 10
101.010210
 20
180.139660
 30
0.0
 10
101.010210
 20
182.940530
 30
0.0
  0
SPLINE
  5
1e2
100
AcDbEntity
  8
Layer_1
 62
7
100
AcDbSpline
 70
8
 71
3
 72
8
 73
4
 74
0
 40
0
 40
0
 40
0
 40
0
 40
1
 40
1
 40
1
 40
1
 10
98.808795
 20
184.821550
 30
0.0
 10
99.287663
 20
185.441663
 30
0.0
 10
99.890555
 20
185.751720
 30
0.0
 10
100.617470
 20
185.751720
 30
0.0
  0
SPLINE
  5
1e3
100
AcDbEntity
  8
Layer_1
 62
7
100
AcDbSpline
 70
8
 71
3
 72
8
 73
4
 74
0
 40
0
 40
0
 40
0
 40
0
 40
1
 40
1
 40
1
 40
1
 10
100.617470
 20
185.751720
 30
0.0
 10
100.937863
 20
185.751720
 30
0.0
 10
101.230697
 20
185.693153
 30
0.0
 10
101.495970
 20
185.576020
 30
0.0
  0
SPLINE
  5
1e4
100
AcDbEntity
  8
Layer_1
 62
7
100
AcDbSpline
 70
8
 71
3
 72
8
 73
4
 74
0
 40
0
 40
0
 40
0
 40
0
 40
1
 40
1
 40
1
 40
1
 10
101.495970
 20
185.576020
 30
0.0
 10
101.761243
 20
185.462333
 30
0.0
 10
101.961060
 20
185.315917
 30
0.0
 10
102.095420
 20
185.136770
 30
0.0
  0
SPLINE
  5
1e5
100
AcDbEntity
  8
Layer_1
 62
7
100
AcDbSpline
 70
8
 71
3
 72
8
 73
4
 74
0
 40
0
 40
0
 40
0
 40
0
 40
1
 40
1
 40
1
 40
1
 10
102.095420
 20
185.136770
 30
0.0
 10
102.233220
 20
184.957630
 30
0.0
 10
102.327960
 20
184.754370
 30
0.0
 10
102.379640
 20
184.526990
 30
0.0
  0
SPLINE
  5
1e6
100
AcDbEntity
  8
Layer_1
 62
7
100
AcDbSpline
 70
8
 71
3
 72
8
 73
4
 74
0
 40
0
 40
0
 40
0
 40
0
 40
1
 40
1
 40
1
 40
1
 10
102.379640
 20
184.526990
 30
0.0
 10
102.434773
 20
184.299617
 30
0.0
 10
102.462340
 20
183.974057
 30
0.0
 10
102.462340
 20
183.550310
 30
0.0
  0
LWPOLYLINE
  5
1e7
100
AcDbEntity
  8
Layer_1
 62
7
100
AcDbPolyline
 90
6
 70
0
 10
98.912167
 20
182.625300
 30
0.0
 10
98.912167
 20
180.139660
 30
0.0
 10
97.460040
 20
180.139660
 30
0.0
 10
97.460040
 20
185.627700
 30
0.0
 10
98.808795
 20
185.627700
 30
0.0
 10
98.808795
 20
184.821550
 30
0.0
  0
LWPOLYLINE
  5
1e8
100
AcDbEntity
  8
Layer_1
 62
7
100
AcDbPolyline
 90
2
 70
0
 10
102.462340
 20
183.550310
 30
0.0
 10
102.462320
 20
180.139660
 30
0.0
  0
SPLINE
  5
1e9
100
AcDbEntity
  8
Layer_1
 62
7
100
AcDbSpline
 70
8
 71
3
 72
8
 73
4
 74
0
 40
0
 40
0
 40
0
 40
0
 40
1
 40
1
 40
1
 40
1
 10
108.565300
 20
181.643450
 30
0.0
 10
108.379267
 20
181.112903
 30
0.0
 10
108.084713
 20
180.708103
 30
0.0
 10
107.681640
 20
180.429050
 30
0.0
  0
SPLINE
  5
1ea
100
AcDbEntity
  8
Layer_1
 62
7
100
AcDbSpline
 70
8
 71
3
 72
8
 73
4
 74
0
 40
0
 40
0
 40
0
 40
0
 40
1
 40
1
 40
1
 40
1
 10
107.681640
 20
180.429050
 30
0.0
 10
107.282007
 20
180.153443
 30
0.0
 10
106.780743
 20
180.015640
 30
0.0
 10
106.177850
 20
180.015640
 30
0.0
  0
SPLINE
  5
1eb
100
AcDbEntity
  8
Layer_1
 62
7
100
AcDbSpline
 70
8
 71
3
 72
8
 73
4
 74
0
 40
0
 40
0
 40
0
 40
0
 40
1
 40
1
 40
1
 40
1
 10
106.177850
 20
180.015640
 30
0.0
 10
105.223563
 20
180.015640
 30
0.0
 10
104.517320
 20
180.327420
 30
0.0
 10
104.059120
 20
180.950980
 30
0.0
  0
SPLINE
  5
1ec
100
AcDbEntity
  8
Layer_1
 62
7
100
AcDbSpline
 70
8
 71
3
 72
8
 73
4
 74
0
 40
0
 40
0
 40
0
 40
0
 40
1
 40
1
 40
1
 40
1
 10
104.059120
 20
180.950980
 30
0.0
 10
103.697387
 20
181.450520
 30
0.0
 10
103.516520
 20
182.080973
 30
0.0
 10
103.516520
 20
182.842340
 30
0.0
  0
SPLINE
  5
1ed
100
AcDbEntity
  8
Layer_1
 62
7
100
AcDbSpline
 70
8
 71
3
 72
8
 73
4
 74
0
 40
0
 40
0
 40
0
 40
0
 40
1
 40
1
 40
1
 40
1
 10
103.516520
 20
182.842340
 30
0.0
 10
103.516520
 20
183.751847
 30
0.0
 10
103.754230
 20
184.463260
 30
0.0
 10
104.229650
 20
184.976580
 30
0.0
  0
SPLINE
  5
1ee
100
AcDbEntity
  8
Layer_1
 62
7
100
AcDbSpline
 70
8
 71
3
 72
8
 73
4
 74
0
 40
0
 40
0
 40
0
 40
0
 40
1
 40
1
 40
1
 40
1
 10
104.229650
 20
184.976580
 30
0.0
 10
104.705077
 20
185.493340
 30
0.0
 10
105.306247
 20
185.751720
 30
0.0
 10
106.033160
 20
185.751720
 30
0.0
  0
SPLINE
  5
1ef
100
AcDbEntity
  8
Layer_1
 62
7
100
AcDbSpline
 70
8
 71
3
 72
8
 73
4
 74
0
 40
0
 40
0
 40
0
 40
0
 40
1
 40
1
 40
1
 40
1
 10
106.033160
 20
185.751720
 30
0.0
 10
106.849647
 20
185.751720
 30
0.0
 10
107.493880
 20
185.481280
 30
0.0
 10
107.965860
 20
184.940400
 30
0.0
  0
SPLINE
  5
1f0
100
AcDbEntity
  8
Layer_1
 62
7
100
AcDbSpline
 70
8
 71
3
 72
8
 73
4
 74
0
 40
0
 40
0
 40
0
 40
0
 40
1
 40
1
 40
1
 40
1
 10
107.965860
 20
184.940400
 30
0.0
 10
108.437833
 20
184.402967
 30
0.0
 10
108.663487
 20
183.577867
 30
0.0
 10
108.642820
 20
182.465100
 30
0.0
  0
LWPOLYLINE
  5
1f1
100
AcDbEntity
  8
Layer_1
 62
7
100
AcDbPolyline
 90
2
 70
0
 10
107.118360
 20
181.886330
 30
0.0
 10
108.565300
 20
181.643450
 30
0.0
  0
SPLINE
  5
1f2
100
AcDbEntity
  8
Layer_1
 62
7
100
AcDbSpline
 70
8
 71
3
 72
8
 73
4
 74
0
 40
0
 40
0
 40
0
 40
0
 40
1
 40
1
 40
1
 40
1
 10
105.004800
 20
182.465100
 30
0.0
 10
105.015133
 20
182.034467
 30
0.0
 10
105.132267
 20
181.698570
 30
0.0
 10
105.356200
 20
181.457410
 30
0.0
  0
SPLINE
  5
1f3
100
AcDbEntity
  8
Layer_1
 62
7
100
AcDbSpline
 70
8
 71
3
 72
8
 73
4
 74
0
 40
0
 40
0
 40
0
 40
0
 40
1
 40
1
 40
1
 40
1
 10
105.356200
 20
181.457410
 30
0.0
 10
105.580127
 20
181.219703
 30
0.0
 10
105.859180
 20
181.100850
 30
0.0
 10
106.193360
 20
181.100850
 30
0.0
  0
SPLINE
  5
1f4
100
AcDbEntity
  8
Layer_1
 62
7
100
AcDbSpline
 70
8
 71
3
 72
8
 73
4
 74
0
 40
0
 40
0
 40
0
 40
0
 40
1
 40
1
 40
1
 40
1
 10
106.193360
 20
181.100850
 30
0.0
 10
106.420733
 20
181.100850
 30
0.0
 10
106.611933
 20
181.162860
 30
0.0
 10
106.766960
 20
181.286880
 30
0.0
  0
SPLINE
  5
1f5
100
AcDbEntity
  8
Layer_1
 62
7
100
AcDbSpline
 70
8
 71
3
 72
8
 73
4
 74
0
 40
0
 40
0
 40
0
 40
0
 40
1
 40
1
 40
1
 40
1
 10
106.766960
 20
181.286880
 30
0.0
 10
106.921993
 20
181.410907
 30
0.0
 10
107.039127
 20
181.610723
 30
0.0
 10
107.118360
 20
181.886330
 30
0.0
  0
LWPOLYLINE
  5
1f6
100
AcDbEntity
  8
Layer_1
 62
7
100
AcDbPolyline
 90
2
 70
0
 10
108.642820
 20
182.465100
 30
0.0
 10
105.004800
 20
182.465100
 30
0.0
  0
SPLINE
  5
1f7
100
AcDbEntity
  8
Layer_1
 62
7
100
AcDbSpline
 70
8
 71
3
 72
8
 73
4
 74
0
 40
0
 40
0
 40
0
 40
0
 40
1
 40
1
 40
1
 40
1
 10
107.201060
 20
183.353940
 30
0.0
 10
107.190727
 20
183.774240
 30
0.0
 10
107.082203
 20
184.092910
 30
0.0
 10
106.875490
 20
184.309950
 30
0.0
  0
SPLINE
  5
1f8
100
AcDbEntity
  8
Layer_1
 62
7
100
AcDbSpline
 70
8
 71
3
 72
8
 73
4
 74
0
 40
0
 40
0
 40
0
 40
0
 40
1
 40
1
 40
1
 40
1
 10
106.875490
 20
184.309950
 30
0.0
 10
106.668790
 20
184.530437
 30
0.0
 10
106.417300
 20
184.640680
 30
0.0
 10
106.121020
 20
184.640680
 30
0.0
  0
SPLINE
  5
1f9
100
AcDbEntity
  8
Layer_1
 62
7
100
AcDbSpline
 70
8
 71
3
 72
8
 73
4
 74
0
 40
0
 40
0
 40
0
 40
0
 40
1
 40
1
 40
1
 40
1
 10
106.121020
 20
184.640680
 30
0.0
 10
105.804073
 20
184.640680
 30
0.0
 10
105.542247
 20
184.525270
 30
0.0
 10
105.335540
 20
184.294450
 30
0.0
  0
SPLINE
  5
1fa
100
AcDbEntity
  8
Layer_1
 62
7
100
AcDbSpline
 70
8
 71
3
 72
8
 73
4
 74
0
 40
0
 40
0
 40
0
 40
0
 40
1
 40
1
 40
1
 40
1
 10
105.335540
 20
184.294450
 30
0.0
 10
105.128833
 20
184.063630
 30
0.0
 10
105.027203
 20
183.750127
 30
0.0
 10
105.030650
 20
183.353940
 30
0.0
  0
LWPOLYLINE
  5
1fb
100
AcDbEntity
  8
Layer_1
 62
7
100
AcDbPolyline
 90
1
 70
1
 10
107.118360
 20
181.886330
 30
0.0
  0
LWPOLYLINE
  5
1fc
100
AcDbEntity
  8
Layer_1
 62
7
100
AcDbPolyline
 90
2
 70
0
 10
105.030650
 20
183.353940
 30
0.0
 10
107.201060
 20
183.353940
 30
0.0
  0
SPLINE
  5
1fd
100
AcDbEntity
  8
Layer_1
 62
7
100
AcDbSpline
 70
8
 71
3
 72
8
 73
4
 74
0
 40
0
 40
0
 40
0
 40
0
 40
1
 40
1
 40
1
 40
1
 10
114.456420
 20
181.643450
 30
0.0
 10
114.270380
 20
181.112903
 30
0.0
 10
113.975823
 20
180.708103
 30
0.0
 10
113.572750
 20
180.429050
 30
0.0
  0
SPLINE
  5
1fe
100
AcDbEntity
  8
Layer_1
 62
7
100
AcDbSpline
 70
8
 71
3
 72
8
 73
4
 74
0
 40
0
 40
0
 40
0
 40
0
 40
1
 40
1
 40
1
 40
1
 10
113.572750
 20
180.429050
 30
0.0
 10
113.173117
 20
180.153443
 30
0.0
 10
112.671853
 20
180.015640
 30
0.0
 10
112.068960
 20
180.015640
 30
0.0
  0
SPLINE
  5
1ff
100
AcDbEntity
  8
Layer_1
 62
7
100
AcDbSpline
 70
8
 71
3
 72
8
 73
4
 74
0
 40
0
 40
0
 40
0
 40
0
 40
1
 40
1
 40
1
 40
1
 10
112.068960
 20
180.015640
 30
0.0
 10
111.114673
 20
180.015640
 30
0.0
 10
110.408430
 20
180.327420
 30
0.0
 10
109.950230
 20
180.950980
 30
0.0
  0
SPLINE
  5
200
100
AcDbEntity
  8
Layer_1
 62
7
100
AcDbSpline
 70
8
 71
3
 72
8
 73
4
 74
0
 40
0
 40
0
 40
0
 40
0
 40
1
 40
1
 40
1
 40
1
 10
109.950230
 20
180.950980
 30
0.0
 10
109.588497
 20
181.450520
 30
0.0
 10
109.407630
 20
182.080973
 30
0.0
 10
109.407630
 20
182.842340
 30
0.0
  0
SPLINE
  5
201
100
AcDbEntity
  8
Layer_1
 62
7
100
AcDbSpline
 70
8
 71
3
 72
8
 73
4
 74
0
 40
0
 40
0
 40
0
 40
0
 40
1
 40
1
 40
1
 40
1
 10
109.407630
 20
182.842340
 30
0.0
 10
109.407630
 20
183.751847
 30
0.0
 10
109.645340
 20
184.463260
 30
0.0
 10
110.120760
 20
184.976580
 30
0.0
  0
SPLINE
  5
202
100
AcDbEntity
  8
Layer_1
 62
7
100
AcDbSpline
 70
8
 71
3
 72
8
 73
4
 74
0
 40
0
 40
0
 40
0
 40
0
 40
1
 40
1
 40
1
 40
1
 10
110.120760
 20
184.976580
 30
0.0
 10
110.596187
 20
185.493340
 30
0.0
 10
111.197357
 20
185.751720
 30
0.0
 10
111.924270
 20
185.751720
 30
0.0
  0
SPLINE
  5
203
100
AcDbEntity
  8
Layer_1
 62
7
100
AcDbSpline
 70
8
 71
3
 72
8
 73
4
 74
0
 40
0
 40
0
 40
0
 40
0
 40
1
 40
1
 40
1
 40
1
 10
111.924270
 20
185.751720
 30
0.0
 10
112.740757
 20
185.751720
 30
0.0
 10
113.384990
 20
185.481280
 30
0.0
 10
113.856970
 20
184.940400
 30
0.0
  0
SPLINE
  5
204
100
AcDbEntity
  8
Layer_1
 62
7
100
AcDbSpline
 70
8
 71
3
 72
8
 73
4
 74
0
 40
0
 40
0
 40
0
 40
0
 40
1
 40
1
 40
1
 40
1
 10
113.856970
 20
184.940400
 30
0.0
 10
114.328950
 20
184.402967
 30
0.0
 10
114.554603
 20
183.577867
 30
0.0
 10
114.533930
 20
182.465100
 30
0.0
  0
LWPOLYLINE
  5
205
100
AcDbEntity
  8
Layer_1
 62
7
100
AcDbPolyline
 90
2
 70
0
 10
113.009480
 20
181.886330
 30
0.0
 10
114.456420
 20
181.643450
 30
0.0
  0
SPLINE
  5
206
100
AcDbEntity
  8
Layer_1
 62
7
100
AcDbSpline
 70
8
 71
3
 72
8
 73
4
 74
0
 40
0
 40
0
 40
0
 40
0
 40
1
 40
1
 40
1
 40
1
 10
110.895910
 20
182.465100
 30
0.0
 10
110.906243
 20
182.034467
 30
0.0
 10
111.023377
 20
181.698570
 30
0.0
 10
111.247310
 20
181.457410
 30
0.0
  0
SPLINE
  5
207
100
AcDbEntity
  8
Layer_1
 62
7
100
AcDbSpline
 70
8
 71
3
 72
8
 73
4
 74
0
 40
0
 40
0
 40
0
 40
0
 40
1
 40
1
 40
1
 40
1
 10
111.247310
 20
181.457410
 30
0.0
 10
111.471243
 20
181.219703
 30
0.0
 10
111.750297
 20
181.100850
 30
0.0
 10
112.084470
 20
181.100850
 30
0.0
  0
SPLINE
  5
208
100
AcDbEntity
  8
Layer_1
 62
7
100
AcDbSpline
 70
8
 71
3
 72
8
 73
4
 74
0
 40
0
 40
0
 40
0
 40
0
 40
1
 40
1
 40
1
 40
1
 10
112.084470
 20
181.100850
 30
0.0
 10
112.311843
 20
181.100850
 30
0.0
 10
112.503047
 20
181.162860
 30
0.0
 10
112.658080
 20
181.286880
 30
0.0
  0
SPLINE
  5
209
100
AcDbEntity
  8
Layer_1
 62
7
100
AcDbSpline
 70
8
 71
3
 72
8
 73
4
 74
0
 40
0
 40
0
 40
0
 40
0
 40
1
 40
1
 40
1
 40
1
 10
112.658080
 20
181.286880
 30
0.0
 10
112.813107
 20
181.410907
 30
0.0
 10
112.930240
 20
181.610723
 30
0.0
 10
113.009480
 20
181.886330
 30
0.0
  0
LWPOLYLINE
  5
20a
100
AcDbEntity
  8
Layer_1
 62
7
100
AcDbPolyline
 90
2
 70
0
 10
114.533930
 20
182.465100
 30
0.0
 10
110.895910
 20
182.465100
 30
0.0
  0
SPLINE
  5
20b
100
AcDbEntity
  8
Layer_1
 62
7
100
AcDbSpline
 70
8
 71
3
 72
8
 73
4
 74
0
 40
0
 40
0
 40
0
 40
0
 40
1
 40
1
 40
1
 40
1
 10
113.092180
 20
183.353940
 30
0.0
 10
113.081847
 20
183.774240
 30
0.0
 10
112.973327
 20
184.092910
 30
0.0
 10
112.766620
 20
184.309950
 30
0.0
  0
SPLINE
  5
20c
100
AcDbEntity
  8
Layer_1
 62
7
100
AcDbSpline
 70
8
 71
3
 72
8
 73
4
 74
0
 40
0
 40
0
 40
0
 40
0
 40
1
 40
1
 40
1
 40
1
 10
112.766620
 20
184.309950
 30
0.0
 10
112.559913
 20
184.530437
 30
0.0
 10
112.308420
 20
184.640680
 30
0.0
 10
112.012140
 20
184.640680
 30
0.0
  0
SPLINE
  5
20d
100
AcDbEntity
  8
Layer_1
 62
7
100
AcDbSpline
 70
8
 71
3
 72
8
 73
4
 74
0
 40
0
 40
0
 40
0
 40
0
 40
1
 40
1
 40
1
 40
1
 10
112.012140
 20
184.640680
 30
0.0
 10
111.695193
 20
184.640680
 30
0.0
 10
111.433367
 20
184.525270
 30
0.0
 10
111.226660
 20
184.294450
 30
0.0
  0
SPLINE
  5
20e
100
AcDbEntity
  8
Layer_1
 62
7
100
AcDbSpline
 70
8
 71
3
 72
8
 73
4
 74
0
 40
0
 40
0
 40
0
 40
0
 40
1
 40
1
 40
1
 40
1
 10
111.226660
 20
184.294450
 30
0.0
 10
111.019953
 20
184.063630
 30
0.0
 10
110.918323
 20
183.750127
 30
0.0
 10
110.921770
 20
183.353940
 30
0.0
  0
LWPOLYLINE
  5
20f
100
AcDbEntity
  8
Layer_1
 62
7
100
AcDbPolyline
 90
1
 70
1
 10
113.009480
 20
181.886330
 30
0.0
  0
LWPOLYLINE
  5
210
100
AcDbEntity
  8
Layer_1
 62
7
100
AcDbPolyline
 90
2
 70
0
 10
110.921770
 20
183.353940
 30
0.0
 10
113.092180
 20
183.353940
 30
0.0
  0
SPLINE
  5
211
100
AcDbEntity
  8
Layer_1
 62
7
100
AcDbSpline
 70
8
 71
3
 72
8
 73
4
 74
0
 40
0
 40
0
 40
0
 40
0
 40
1
 40
1
 40
1
 40
1
 10
117.009230
 20
184.847390
 30
0.0
 10
117.240050
 20
185.216010
 30
0.0
 10
117.446757
 20
185.458887
 30
0.0
 10
117.629350
 20
185.576020
 30
0.0
  0
SPLINE
  5
212
100
AcDbEntity
  8
Layer_1
 62
7
100
AcDbSpline
 70
8
 71
3
 72
8
 73
4
 74
0
 40
0
 40
0
 40
0
 40
0
 40
1
 40
1
 40
1
 40
1
 10
117.629350
 20
185.576020
 30
0.0
 10
117.815383
 20
185.693153
 30
0.0
 10
118.025533
 20
185.751720
 30
0.0
 10
118.259800
 20
185.751720
 30
0.0
  0
SPLINE
  5
213
100
AcDbEntity
  8
Layer_1
 62
7
100
AcDbSpline
 70
8
 71
3
 72
8
 73
4
 74
0
 40
0
 40
0
 40
0
 40
0
 40
1
 40
1
 40
1
 40
1
 10
118.259800
 20
185.751720
 30
0.0
 10
118.590527
 20
185.751720
 30
0.0
 10
118.909200
 20
185.660427
 30
0.0
 10
119.215820
 20
185.477840
 30
0.0
  0
LWPOLYLINE
  5
214
100
AcDbEntity
  8
Layer_1
 62
7
100
AcDbPolyline
 90
5
 70
0
 10
117.112580
 20
180.139660
 30
0.0
 10
115.660480
 20
180.139660
 30
0.0
 10
115.660480
 20
185.627700
 30
0.0
 10
117.009230
 20
185.627700
 30
0.0
 10
117.009230
 20
184.847390
 30
0.0
  0
SPLINE
  5
215
100
AcDbEntity
  8
Layer_1
 62
7
100
AcDbSpline
 70
8
 71
3
 72
8
 73
4
 74
0
 40
0
 40
0
 40
0
 40
0
 40
1
 40
1
 40
1
 40
1
 10
118.766230
 20
184.211770
 30
0.0
 10
118.521630
 20
184.370243
 30
0.0
 10
118.294253
 20
184.449480
 30
0.0
 10
118.084100
 20
184.449480
 30
0.0
  0
SPLINE
  5
216
100
AcDbEntity
  8
Layer_1
 62
7
100
AcDbSpline
 70
8
 71
3
 72
8
 73
4
 74
0
 40
0
 40
0
 40
0
 40
0
 40
1
 40
1
 40
1
 40
1
 10
118.084100
 20
184.449480
 30
0.0
 10
117.880840
 20
184.449480
 30
0.0
 10
117.708587
 20
184.392637
 30
0.0
 10
117.567340
 20
184.278950
 30
0.0
  0
SPLINE
  5
217
100
AcDbEntity
  8
Layer_1
 62
7
100
AcDbSpline
 70
8
 71
3
 72
8
 73
4
 74
0
 40
0
 40
0
 40
0
 40
0
 40
1
 40
1
 40
1
 40
1
 10
117.567340
 20
184.278950
 30
0.0
 10
117.426087
 20
184.168703
 30
0.0
 10
117.314120
 20
183.967163
 30
0.0
 10
117.231440
 20
183.674330
 30
0.0
  0
SPLINE
  5
218
100
AcDbEntity
  8
Layer_1
 62
7
100
AcDbSpline
 70
8
 71
3
 72
8
 73
4
 74
0
 40
0
 40
0
 40
0
 40
0
 40
1
 40
1
 40
1
 40
1
 10
117.231440
 20
183.674330
 30
0.0
 10
117.152200
 20
183.381497
 30
0.0
 10
117.112580
 20
182.768270
 30
0.0
 10
117.112580
 20
181.834650
 30
0.0
  0
LWPOLYLINE
  5
219
100
AcDbEntity
  8
Layer_1
 62
7
100
AcDbPolyline
 90
2
 70
0
 10
119.215820
 20
185.477840
 30
0.0
 10
118.766230
 20
184.211770
 30
0.0
  0
LWPOLYLINE
  5
21a
100
AcDbEntity
  8
Layer_1
 62
7
100
AcDbPolyline
 90
2
 70
0
 10
117.112580
 20
181.834650
 30
0.0
 10
117.112580
 20
180.139660
 30
0.0
  0
LWPOLYLINE
  5
21b
100
AcDbEntity
  8
Layer_1
 62
7
100
AcDbPolyline
 90
4
 70
1
 10
119.835930
 20
186.371840
 30
0.0
 10
119.835930
 20
187.715430
 30
0.0
 10
121.288040
 20
187.715430
 30
0.0
 10
121.288040
 20
186.371840
 30
0.0
  0
LWPOLYLINE
  5
21c
100
AcDbEntity
  8
Layer_1
 62
7
100
AcDbPolyline
 90
4
 70
1
 10
119.835930
 20
180.139660
 30
0.0
 10
119.835930
 20
185.627700
 30
0.0
 10
121.288040
 20
185.627700
 30
0.0
 10
121.288040
 20
180.139660
 30
0.0
  0
SPLINE
  5
21d
100
AcDbEntity
  8
Layer_1
 62
7
100
AcDbSpline
 70
8
 71
3
 72
8
 73
4
 74
0
 40
0
 40
0
 40
0
 40
0
 40
1
 40
1
 40
1
 40
1
 10
126.310990
 20
182.940530
 30
0.0
 10
126.310990
 20
183.533083
 30
0.0
 10
126.279990
 20
183.915487
 30
0.0
 10
126.217990
 20
184.087740
 30
0.0
  0
SPLINE
  5
21e
100
AcDbEntity
  8
Layer_1
 62
7
100
AcDbSpline
 70
8
 71
3
 72
8
 73
4
 74
0
 40
0
 40
0
 40
0
 40
0
 40
1
 40
1
 40
1
 40
1
 10
126.217990
 20
184.087740
 30
0.0
 10
126.155990
 20
184.263440
 30
0.0
 10
126.054360
 20
184.399523
 30
0.0
 10
125.913100
 20
184.495990
 30
0.0
  0
SPLINE
  5
21f
100
AcDbEntity
  8
Layer_1
 62
7
100
AcDbSpline
 70
8
 71
3
 72
8
 73
4
 74
0
 40
0
 40
0
 40
0
 40
0
 40
1
 40
1
 40
1
 40
1
 10
125.913100
 20
184.495990
 30
0.0
 10
125.775300
 20
184.592450
 30
0.0
 10
125.608213
 20
184.640680
 30
0.0
 10
125.411840
 20
184.640680
 30
0.0
  0
SPLINE
  5
220
100
AcDbEntity
  8
Layer_1
 62
7
100
AcDbSpline
 70
8
 71
3
 72
8
 73
4
 74
0
 40
0
 40
0
 40
0
 40
0
 40
1
 40
1
 40
1
 40
1
 10
125.411840
 20
184.640680
 30
0.0
 10
125.160347
 20
184.640680
 30
0.0
 10
124.934693
 20
184.571780
 30
0.0
 10
124.734880
 20
184.433980
 30
0.0
  0
SPLINE
  5
221
100
AcDbEntity
  8
Layer_1
 62
7
100
AcDbSpline
 70
8
 71
3
 72
8
 73
4
 74
0
 40
0
 40
0
 40
0
 40
0
 40
1
 40
1
 40
1
 40
1
 10
124.734880
 20
184.433980
 30
0.0
 10
124.535067
 20
184.296173
 30
0.0
 10
124.397263
 20
184.113580
 30
0.0
 10
124.321470
 20
183.886200
 30
0.0
  0
SPLINE
  5
222
100
AcDbEntity
  8
Layer_1
 62
7
100
AcDbSpline
 70
8
 71
3
 72
8
 73
4
 74
0
 40
0
 40
0
 40
0
 40
0
 40
1
 40
1
 40
1
 40
1
 10
124.321470
 20
183.886200
 30
0.0
 10
124.249123
 20
183.658827
 30
0.0
 10
124.212950
 20
183.238527
 30
0.0
 10
124.212950
 20
182.625300
 30
0.0
  0
LWPOLYLINE
  5
223
100
AcDbEntity
  8
Layer_1
 62
7
100
AcDbPolyline
 90
3
 70
0
 10
127.763100
 20
180.139660
 30
0.0
 10
126.310990
 20
180.139660
 30
0.0
 10
126.310990
 20
182.940530
 30
0.0
  0
SPLINE
  5
224
100
AcDbEntity
  8
Layer_1
 62
7
100
AcDbSpline
 70
8
 71
3
 72
8
 73
4
 74
0
 40
0
 40
0
 40
0
 40
0
 40
1
 40
1
 40
1
 40
1
 10
124.109600
 20
184.821550
 30
0.0
 10
124.588467
 20
185.441663
 30
0.0
 10
125.191357
 20
185.751720
 30
0.0
 10
125.918270
 20
185.751720
 30
0.0
  0
SPLINE
  5
225
100
AcDbEntity
  8
Layer_1
 62
7
100
AcDbSpline
 70
8
 71
3
 72
8
 73
4
 74
0
 40
0
 40
0
 40
0
 40
0
 40
1
 40
1
 40
1
 40
1
 10
125.918270
 20
185.751720
 30
0.0
 10
126.238663
 20
185.751720
 30
0.0
 10
126.531497
 20
185.693153
 30
0.0
 10
126.796770
 20
185.576020
 30
0.0
  0
SPLINE
  5
226
100
AcDbEntity
  8
Layer_1
 62
7
100
AcDbSpline
 70
8
 71
3
 72
8
 73
4
 74
0
 40
0
 40
0
 40
0
 40
0
 40
1
 40
1
 40
1
 40
1
 10
126.796770
 20
185.576020
 30
0.0
 10
127.062043
 20
185.462333
 30
0.0
 10
127.261860
 20
185.315917
 30
0.0
 10
127.396220
 20
185.136770
 30
0.0
  0
SPLINE
  5
227
100
AcDbEntity
  8
Layer_1
 62
7
100
AcDbSpline
 70
8
 71
3
 72
8
 73
4
 74
0
 40
0
 40
0
 40
0
 40
0
 40
1
 40
1
 40
1
 40
1
 10
127.396220
 20
185.136770
 30
0.0
 10
127.534020
 20
184.957630
 30
0.0
 10
127.628760
 20
184.754370
 30
0.0
 10
127.680440
 20
184.526990
 30
0.0
  0
SPLINE
  5
228
100
AcDbEntity
  8
Layer_1
 62
7
100
AcDbSpline
 70
8
 71
3
 72
8
 73
4
 74
0
 40
0
 40
0
 40
0
 40
0
 40
1
 40
1
 40
1
 40
1
 10
127.680440
 20
184.526990
 30
0.0
 10
127.735573
 20
184.299617
 30
0.0
 10
127.763140
 20
183.974057
 30
0.0
 10
127.763140
 20
183.550310
 30
0.0
  0
LWPOLYLINE
  5
229
100
AcDbEntity
  8
Layer_1
 62
7
100
AcDbPolyline
 90
6
 70
0
 10
124.212950
 20
182.625300
 30
0.0
 10
124.212950
 20
180.139660
 30
0.0
 10
122.760840
 20
180.139660
 30
0.0
 10
122.760840
 20
185.627700
 30
0.0
 10
124.109600
 20
185.627700
 30
0.0
 10
124.109600
 20
184.821550
 30
0.0
  0
LWPOLYLINE
  5
22a
100
AcDbEntity
  8
Layer_1
 62
7
100
AcDbPolyline
 90
2
 70
0
 10
127.763140
 20
183.550310
 30
0.0
 10
127.763100
 20
180.139660
 30
0.0
  0
SPLINE
  5
22b
100
AcDbEntity
  8
Layer_1
 62
7
100
AcDbSpline
 70
8
 71
3
 72
8
 73
4
 74
0
 40
0
 40
0
 40
0
 40
0
 40
1
 40
1
 40
1
 40
1
 10
130.765500
 20
179.576390
 30
0.0
 10
130.793033
 20
179.383463
 30
0.0
 10
130.856767
 20
179.250827
 30
0.0
 10
130.956700
 20
179.178480
 30
0.0
  0
SPLINE
  5
22c
100
AcDbEntity
  8
Layer_1
 62
7
100
AcDbSpline
 70
8
 71
3
 72
8
 73
4
 74
0
 40
0
 40
0
 40
0
 40
0
 40
1
 40
1
 40
1
 40
1
 10
130.956700
 20
179.178480
 30
0.0
 10
131.094507
 20
179.075127
 30
0.0
 10
131.311547
 20
179.023450
 30
0.0
 10
131.607820
 20
179.023450
 30
0.0
  0
SPLINE
  5
22d
100
AcDbEntity
  8
Layer_1
 62
7
100
AcDbSpline
 70
8
 71
3
 72
8
 73
4
 74
0
 40
0
 40
0
 40
0
 40
0
 40
1
 40
1
 40
1
 40
1
 10
131.607820
 20
179.023450
 30
0.0
 10
131.986780
 20
179.023450
 30
0.0
 10
132.271000
 20
179.080297
 30
0.0
 10
132.460480
 20
179.193990
 30
0.0
  0
SPLINE
  5
22e
100
AcDbEntity
  8
Layer_1
 62
7
100
AcDbSpline
 70
8
 71
3
 72
8
 73
4
 74
0
 40
0
 40
0
 40
0
 40
0
 40
1
 40
1
 40
1
 40
1
 10
132.460480
 20
179.193990
 30
0.0
 10
132.587953
 20
179.269777
 30
0.0
 10
132.684417
 20
179.392077
 30
0.0
 10
132.749870
 20
179.560890
 30
0.0
  0
SPLINE
  5
22f
100
AcDbEntity
  8
Layer_1
 62
7
100
AcDbSpline
 70
8
 71
3
 72
8
 73
4
 74
0
 40
0
 40
0
 40
0
 40
0
 40
1
 40
1
 40
1
 40
1
 10
132.749870
 20
179.560890
 30
0.0
 10
132.794670
 20
179.681470
 30
0.0
 10
132.817070
 20
179.903677
 30
0.0
 10
132.817070
 20
180.227510
 30
0.0
  0
LWPOLYLINE
  5
230
100
AcDbEntity
  8
Layer_1
 62
7
100
AcDbPolyline
 90
2
 70
0
 10
129.106680
 20
179.777930
 30
0.0
 10
130.765500
 20
179.576390
 30
0.0
  0
SPLINE
  5
231
100
AcDbEntity
  8
Layer_1
 62
7
100
AcDbSpline
 70
8
 71
3
 72
8
 73
4
 74
0
 40
0
 40
0
 40
0
 40
0
 40
1
 40
1
 40
1
 40
1
 10
132.817070
 20
181.028500
 30
0.0
 10
132.382990
 20
180.435940
 30
0.0
 10
131.835220
 20
180.139660
 30
0.0
 10
131.173760
 20
180.139660
 30
0.0
  0
SPLINE
  5
232
100
AcDbEntity
  8
Layer_1
 62
7
100
AcDbSpline
 70
8
 71
3
 72
8
 73
4
 74
0
 40
0
 40
0
 40
0
 40
0
 40
1
 40
1
 40
1
 40
1
 10
131.173760
 20
180.139660
 30
0.0
 10
130.436513
 20
180.139660
 30
0.0
 10
129.852570
 20
180.451443
 30
0.0
 10
129.421930
 20
181.075010
 30
0.0
  0
SPLINE
  5
233
100
AcDbEntity
  8
Layer_1
 62
7
100
AcDbSpline
 70
8
 71
3
 72
8
 73
4
 74
0
 40
0
 40
0
 40
0
 40
0
 40
1
 40
1
 40
1
 40
1
 10
129.421930
 20
181.075010
 30
0.0
 10
129.084310
 20
181.567657
 30
0.0
 10
128.915500
 20
182.180883
 30
0.0
 10
128.915500
 20
182.914690
 30
0.0
  0
SPLINE
  5
234
100
AcDbEntity
  8
Layer_1
 62
7
100
AcDbSpline
 70
8
 71
3
 72
8
 73
4
 74
0
 40
0
 40
0
 40
0
 40
0
 40
1
 40
1
 40
1
 40
1
 10
128.915500
 20
182.914690
 30
0.0
 10
128.915500
 20
183.834530
 30
0.0
 10
129.135987
 20
184.537330
 30
0.0
 10
129.576960
 20
185.023090
 30
0.0
  0
SPLINE
  5
235
100
AcDbEntity
  8
Layer_1
 62
7
100
AcDbSpline
 70
8
 71
3
 72
8
 73
4
 74
0
 40
0
 40
0
 40
0
 40
0
 40
1
 40
1
 40
1
 40
1
 10
129.576960
 20
185.023090
 30
0.0
 10
130.021380
 20
185.508843
 30
0.0
 10
130.572597
 20
185.751720
 30
0.0
 10
131.230610
 20
185.751720
 30
0.0
  0
SPLINE
  5
236
100
AcDbEntity
  8
Layer_1
 62
7
100
AcDbSpline
 70
8
 71
3
 72
8
 73
4
 74
0
 40
0
 40
0
 40
0
 40
0
 40
1
 40
1
 40
1
 40
1
 10
131.230610
 20
185.751720
 30
0.0
 10
131.909290
 20
185.751720
 30
0.0
 10
132.469117
 20
185.453720
 30
0.0
 10
132.910090
 20
184.857720
 30
0.0
  0
LWPOLYLINE
  5
237
100
AcDbEntity
  8
Layer_1
 62
7
100
AcDbPolyline
 90
2
 70
0
 10
132.817070
 20
180.227510
 30
0.0
 10
132.817070
 20
181.028500
 30
0.0
  0
SPLINE
  5
238
100
AcDbEntity
  8
Layer_1
 62
7
100
AcDbSpline
 70
8
 71
3
 72
8
 73
4
 74
0
 40
0
 40
0
 40
0
 40
0
 40
1
 40
1
 40
1
 40
1
 10
134.269180
 20
180.702940
 30
0.0
 10
134.269180
 20
180.055260
 30
0.0
 10
134.215780
 20
179.571223
 30
0.0
 10
134.108980
 20
179.250830
 30
0.0
  0
SPLINE
  5
239
100
AcDbEntity
  8
Layer_1
 62
7
100
AcDbSpline
 70
8
 71
3
 72
8
 73
4
 74
0
 40
0
 40
0
 40
0
 40
0
 40
1
 40
1
 40
1
 40
1
 10
134.108980
 20
179.250830
 30
0.0
 10
134.002187
 20
178.930437
 30
0.0
 10
133.852327
 20
178.678943
 30
0.0
 10
133.659400
 20
178.496350
 30
0.0
  0
SPLINE
  5
23a
100
AcDbEntity
  8
Layer_1
 62
7
100
AcDbSpline
 70
8
 71
3
 72
8
 73
4
 74
0
 40
0
 40
0
 40
0
 40
0
 40
1
 40
1
 40
1
 40
1
 10
133.659400
 20
178.496350
 30
0.0
 10
133.466473
 20
178.313763
 30
0.0
 10
133.208090
 20
178.170793
 30
0.0
 10
132.884250
 20
178.067440
 30
0.0
  0
SPLINE
  5
23b
100
AcDbEntity
  8
Layer_1
 62
7
100
AcDbSpline
 70
8
 71
3
 72
8
 73
4
 74
0
 40
0
 40
0
 40
0
 40
0
 40
1
 40
1
 40
1
 40
1
 10
132.884250
 20
178.067440
 30
0.0
 10
132.563857
 20
177.964087
 30
0.0
 10
132.157337
 20
177.912410
 30
0.0
 10
131.664690
 20
177.912410
 30
0.0
  0
SPLINE
  5
23c
100
AcDbEntity
  8
Layer_1
 62
7
100
AcDbSpline
 70
8
 71
3
 72
8
 73
4
 74
0
 40
0
 40
0
 40
0
 40
0
 40
1
 40
1
 40
1
 40
1
 10
131.664690
 20
177.912410
 30
0.0
 10
130.734510
 20
177.912410
 30
0.0
 10
130.074773
 20
178.072607
 30
0.0
 10
129.685480
 20
178.393000
 30
0.0
  0
SPLINE
  5
23d
100
AcDbEntity
  8
Layer_1
 62
7
100
AcDbSpline
 70
8
 71
3
 72
8
 73
4
 74
0
 40
0
 40
0
 40
0
 40
0
 40
1
 40
1
 40
1
 40
1
 10
129.685480
 20
178.393000
 30
0.0
 10
129.296187
 20
178.709947
 30
0.0
 10
129.101540
 20
179.113023
 30
0.0
 10
129.101540
 20
179.602230
 30
0.0
  0
SPLINE
  5
23e
100
AcDbEntity
  8
Layer_1
 62
7
100
AcDbSpline
 70
8
 71
3
 72
8
 73
4
 74
0
 40
0
 40
0
 40
0
 40
0
 40
1
 40
1
 40
1
 40
1
 10
129.101540
 20
179.602230
 30
0.0
 10
129.101540
 20
179.650497
 30
0.0
 10
129.103207
 20
179.709063
 30
0.0
 10
129.106540
 20
179.777930
 30
0.0
  0
LWPOLYLINE
  5
23f
100
AcDbEntity
  8
Layer_1
 62
7
100
AcDbPolyline
 90
4
 70
0
 10
132.910090
 20
184.857720
 30
0.0
 10
132.910090
 20
185.627700
 30
0.0
 10
134.269180
 20
185.627700
 30
0.0
 10
134.269180
 20
180.702940
 30
0.0
  0
SPLINE
  5
240
100
AcDbEntity
  8
Layer_1
 62
7
100
AcDbSpline
 70
8
 71
3
 72
8
 73
4
 74
0
 40
0
 40
0
 40
0
 40
0
 40
1
 40
1
 40
1
 40
1
 10
130.403760
 20
182.997370
 30
0.0
 10
130.403760
 20
182.415150
 30
0.0
 10
130.515727
 20
181.987957
 30
0.0
 10
130.739660
 20
181.715790
 30
0.0
  0
SPLINE
  5
241
100
AcDbEntity
  8
Layer_1
 62
7
100
AcDbSpline
 70
8
 71
3
 72
8
 73
4
 74
0
 40
0
 40
0
 40
0
 40
0
 40
1
 40
1
 40
1
 40
1
 10
130.739660
 20
181.715790
 30
0.0
 10
130.967033
 20
181.447077
 30
0.0
 10
131.246087
 20
181.312720
 30
0.0
 10
131.576820
 20
181.312720
 30
0.0
  0
SPLINE
  5
242
100
AcDbEntity
  8
Layer_1
 62
7
100
AcDbSpline
 70
8
 71
3
 72
8
 73
4
 74
0
 40
0
 40
0
 40
0
 40
0
 40
1
 40
1
 40
1
 40
1
 10
131.576820
 20
181.312720
 30
0.0
 10
131.931660
 20
181.312720
 30
0.0
 10
132.231383
 20
181.450523
 30
0.0
 10
132.475990
 20
181.726130
 30
0.0
  0
SPLINE
  5
243
100
AcDbEntity
  8
Layer_1
 62
7
100
AcDbSpline
 70
8
 71
3
 72
8
 73
4
 74
0
 40
0
 40
0
 40
0
 40
0
 40
1
 40
1
 40
1
 40
1
 10
132.475990
 20
181.726130
 30
0.0
 10
132.720590
 20
182.005183
 30
0.0
 10
132.842890
 20
182.416873
 30
0.0
 10
132.842890
 20
182.961200
 30
0.0
  0
SPLINE
  5
244
100
AcDbEntity
  8
Layer_1
 62
7
100
AcDbSpline
 70
8
 71
3
 72
8
 73
4
 74
0
 40
0
 40
0
 40
0
 40
0
 40
1
 40
1
 40
1
 40
1
 10
132.842890
 20
182.961200
 30
0.0
 10
132.842890
 20
183.529640
 30
0.0
 10
132.725757
 20
183.951663
 30
0.0
 10
132.491490
 20
184.227270
 30
0.0
  0
SPLINE
  5
245
100
AcDbEntity
  8
Layer_1
 62
7
100
AcDbSpline
 70
8
 71
3
 72
8
 73
4
 74
0
 40
0
 40
0
 40
0
 40
0
 40
1
 40
1
 40
1
 40
1
 10
132.491490
 20
184.227270
 30
0.0
 10
132.257223
 20
184.502877
 30
0.0
 10
131.960947
 20
184.640680
 30
0.0
 10
131.602660
 20
184.640680
 30
0.0
  0
SPLINE
  5
246
100
AcDbEntity
  8
Layer_1
 62
7
100
AcDbSpline
 70
8
 71
3
 72
8
 73
4
 74
0
 40
0
 40
0
 40
0
 40
0
 40
1
 40
1
 40
1
 40
1
 10
131.602660
 20
184.640680
 30
0.0
 10
131.254700
 20
184.640680
 30
0.0
 10
130.967033
 20
184.504600
 30
0.0
 10
130.739660
 20
184.232440
 30
0.0
  0
SPLINE
  5
247
100
AcDbEntity
  8
Layer_1
 62
7
100
AcDbSpline
 70
8
 71
3
 72
8
 73
4
 74
0
 40
0
 40
0
 40
0
 40
0
 40
1
 40
1
 40
1
 40
1
 10
130.739660
 20
184.232440
 30
0.0
 10
130.515727
 20
183.963720
 30
0.0
 10
130.403760
 20
183.552030
 30
0.0
 10
130.403760
 20
182.997370
 30
0.0
  0
LWPOLYLINE
  5
248
100
AcDbEntity
  8
Layer_1
 62
7
100
AcDbPolyline
 90
2
 70
0
 10
129.106540
 20
179.777930
 30
0.0
 10
129.106680
 20
179.777930
 30
0.0
  0
LWPOLYLINE
  5
249
100
AcDbEntity
  8
Layer_1
 62
7
100
AcDbPolyline
 90
1
 70
1
 10
130.403760
 20
182.997370
 30
0.0
  0
ENDSEC
  0
SECTION
  2
OBJECTS
  0
DICTIONARY
  5
C
330
0
100
AcDbDictionary
  3
ACAD_GROUP
350
D
  3
ACAD_MLINESTYLE
350
17
  0
DICTIONARY
  5
D
330
C
100
AcDbDictionary
  0
DICTIONARY
  5
1A
330
C
100
AcDbDictionary
  0
DICTIONARY
  5
17
330
C
100
AcDbDictionary
  3
STANDARD
350
18
  0
DICTIONARY
  5
19
330
C
100
AcDbDictionary
  0
ENDSEC
  0
EOF
