<?xml version="1.0" encoding="UTF-8" standalone="no"?>
<!-- Created with Inkscape (http://www.inkscape.org/) -->

<svg
   xmlns:dc="http://purl.org/dc/elements/1.1/"
   xmlns:cc="http://creativecommons.org/ns#"
   xmlns:rdf="http://www.w3.org/1999/02/22-rdf-syntax-ns#"
   xmlns:svg="http://www.w3.org/2000/svg"
   xmlns="http://www.w3.org/2000/svg"
   xmlns:sodipodi="http://sodipodi.sourceforge.net/DTD/sodipodi-0.dtd"
   xmlns:inkscape="http://www.inkscape.org/namespaces/inkscape"
   width="300mm"
   height="250mm"
   viewBox="0 0 300 250"
   version="1.1"
   id="svg3278"
   sodipodi:docname="front.svg"
   inkscape:version="0.92.1 r15371">
  <defs
     id="defs3272" />
  <sodipodi:namedview
     id="base"
     pagecolor="#ffffff"
     bordercolor="#666666"
     borderopacity="1.0"
     inkscape:pageopacity="0.0"
     inkscape:pageshadow="2"
     inkscape:zoom="0.49497475"
     inkscape:cx="811.32296"
     inkscape:cy="586.86406"
     inkscape:document-units="mm"
     inkscape:current-layer="layer1"
     showgrid="false"
     inkscape:window-width="1920"
     inkscape:window-height="1017"
     inkscape:window-x="1912"
     inkscape:window-y="-8"
     inkscape:window-maximized="1"
     inkscape:snap-global="false"
     inkscape:measure-start="928.33,507.097"
     inkscape:measure-end="768.726,93.9442"
     showguides="false" />
  <metadata
     id="metadata3275">
    <rdf:RDF>
      <cc:Work
         rdf:about="">
        <dc:format>image/svg+xml</dc:format>
        <dc:type
           rdf:resource="http://purl.org/dc/dcmitype/StillImage" />
        <dc:title></dc:title>
      </cc:Work>
    </rdf:RDF>
  </metadata>
  <g
     inkscape:label="Layer 1"
     inkscape:groupmode="layer"
     id="layer1"
     transform="translate(0,-47)">
    <g
       id="g1083">
      <g
         transform="rotate(90,103.5,193.50001)"
         id="g999">
        <path
           inkscape:connector-curvature="0"
           id="path3193"
           inkscape:label="part"
           style="fill:none;stroke:#000000;stroke-width:1"
           d="m 3.5,143.5 h 3.39559 v -3 h 6.15 v 3 h 6.32059 v -3 h 6.15 v 3 h 6.32058 v -3 h 6.15 v 3 h 6.32059 v -3 h 6.15 v 3 h 6.32059 v -3 h 6.15 v 3 h 6.32059 v -3 h 6.15 v 3 h 6.32059 v -3 h 6.15 v 3 h 6.32059 v -3 h 6.15 v 3 h 6.32058 v -3 h 6.15 v 3 h 6.32059 v -3 h 6.15 v 3 h 6.32059 v -3 h 6.15 v 3 h 6.32059 v -3 h 6.15 v 3 h 6.32059 v -3 h 6.15 v 3 h 6.32059 v -3 h 6.15 v 3 h 6.32058 v -3 h 6.15 v 3 h 6.32059 v -3 h 6.15 v 3 H 203.5" />
        <path
           inkscape:connector-curvature="0"
           id="path3195"
           inkscape:label="part"
           style="fill:none;stroke:#000000;stroke-width:1"
           d="m 203.5,143.5 v 3.38654 h 3 v 6.15 h -3 v 6.31154 h 3 v 6.15 h -3 v 6.31154 h 3 v 6.15 h -3 v 6.31153 h 3 v 6.15 h -3 v 6.31154 h 3 v 6.15 h -3 v 6.31154 h 3 v 6.15 h -3 v 6.31154 h 3 v 6.15 h -3 v 6.31154 h 3 v 6.15 h -3 v 6.31154 h 3 v 6.15 h -3 v 6.31153 h 3 v 6.15 h -3 v 6.31154 h 3 v 6.15 h -3 v 6.31154 h 3 v 6.15 h -3 V 293.5" />
        <path
           inkscape:connector-curvature="0"
           id="path3197"
           inkscape:label="part"
           style="fill:none;stroke:#000000;stroke-width:1"
           d="m 203.5,293.5 h -3.39559 v 3 h -6.15 v -3 h -6.32059 v 3 h -6.15 v -3 h -6.32058 v 3 h -6.15 v -3 h -6.32059 v 3 h -6.15 v -3 h -6.32059 v 3 h -6.15 v -3 h -6.32059 v 3 h -6.15 v -3 h -6.32059 v 3 h -6.15 v -3 h -6.32059 v 3 h -6.15 v -3 h -6.32058 v 3 h -6.15 v -3 h -6.32059 v 3 h -6.15 v -3 h -6.32059 v 3 h -6.15 v -3 h -6.32059 v 3 h -6.15 v -3 h -6.32059 v 3 h -6.15 v -3 h -6.32059 v 3 h -6.15 v -3 h -6.32058 v 3 h -6.15 v -3 h -6.32059 v 3 h -6.15 v -3 H 3.5" />
        <path
           inkscape:connector-curvature="0"
           id="path3199"
           inkscape:label="part"
           style="fill:none;stroke:#000000;stroke-width:1"
           d="m 3.5,293.5 v -3.38654 h -3 v -6.15 h 3 v -6.31154 h -3 v -6.15 h 3 v -6.31154 h -3 v -6.15 h 3 v -6.31153 h -3 v -6.15 h 3 v -6.31154 h -3 v -6.15 h 3 v -6.31154 h -3 v -6.15 h 3 v -6.31154 h -3 v -6.15 h 3 v -6.31154 h -3 v -6.15 h 3 v -6.31154 h -3 v -6.15 h 3 v -6.31153 h -3 v -6.15 h 3 v -6.31154 h -3 v -6.15 h 3 v -6.31154 h -3 v -6.15 h 3 V 143.5" />
        <path
           id="rect3682"
           d="m 23.154764,255.33112 h 28.66 v 21.5 h -28.66 z"
           style="stroke-width:0.26458332" />
        <path
           inkscape:connector-curvature="0"
           style="opacity:1;fill:#000000;fill-opacity:1;stroke:#2d2d2d;stroke-width:0.01241349;stroke-linejoin:round;stroke-miterlimit:4;stroke-dasharray:none;stroke-opacity:1;paint-order:stroke fill markers"
           d="m 74.140307,278.12769 0.0298,-23.9874 11.98759,0.0149 -0.0298,23.98741 z"
           id="rect1786-2" />
        <path
           inkscape:connector-curvature="0"
           style="opacity:1;fill:#000000;fill-opacity:1;stroke:#2d2d2d;stroke-width:0.00650354;stroke-linejoin:round;stroke-miterlimit:4;stroke-dasharray:none;stroke-opacity:1;paint-order:stroke fill markers"
           d="m 69.21742,276.20113 a 1.2467482,1.2467482 0 0 1 1.2452,1.2483 1.2467482,1.2467482 0 0 1 -1.24831,1.24519 1.2467482,1.2467482 0 0 1 -1.2452,-1.2483 1.2467482,1.2467482 0 0 1 1.24831,-1.24519 z"
           id="path874" />
        <path
           inkscape:connector-curvature="0"
           style="opacity:1;fill:#000000;fill-opacity:1;stroke:#2d2d2d;stroke-width:0.00650354;stroke-linejoin:round;stroke-miterlimit:4;stroke-dasharray:none;stroke-opacity:1;paint-order:stroke fill markers"
           d="m 69.246007,253.20114 a 1.2467482,1.2467482 0 0 1 1.2452,1.2483 1.2467482,1.2467482 0 0 1 -1.2483,1.24519 1.2467482,1.2467482 0 0 1 -1.24519,-1.24829 1.2467482,1.2467482 0 0 1 1.24829,-1.2452 z"
           id="path874-6" />
        <path
           inkscape:connector-curvature="0"
           style="opacity:1;fill:#000000;fill-opacity:1;stroke:#2d2d2d;stroke-width:0.00650354;stroke-linejoin:round;stroke-miterlimit:4;stroke-dasharray:none;stroke-opacity:1;paint-order:stroke fill markers"
           d="m 93.245992,253.23098 a 1.2467482,1.2467482 0 0 1 1.2452,1.2483 1.2467482,1.2467482 0 0 1 -1.2483,1.24519 1.2467482,1.2467482 0 0 1 -1.24521,-1.24829 1.2467482,1.2467482 0 0 1 1.24831,-1.2452 z"
           id="path874-1" />
        <path
           inkscape:connector-curvature="0"
           style="opacity:1;fill:#000000;fill-opacity:1;stroke:#2d2d2d;stroke-width:0.00650354;stroke-linejoin:round;stroke-miterlimit:4;stroke-dasharray:none;stroke-opacity:1;paint-order:stroke fill markers"
           d="m 93.217396,276.23097 a 1.2467482,1.2467482 0 0 1 1.24519,1.24829 1.2467482,1.2467482 0 0 1 -1.24829,1.2452 1.2467482,1.2467482 0 0 1 -1.2452,-1.2483 1.2467482,1.2467482 0 0 1 1.2483,-1.24519 z"
           id="path874-61" />
        <path
           id="path839"
           d="m 115.91698,266.23651 a 3.4449999,3.4449999 0 0 1 -3.445,3.445 3.4449999,3.4449999 0 0 1 -3.445,-3.445 3.4449999,3.4449999 0 0 1 3.445,-3.445 3.4449999,3.4449999 0 0 1 3.445,3.445 z"
           style="stroke-width:0.16562249" />
        <path
           id="path849"
           d="m 159.62548,266.69293 a 10.975,10.975 0 0 1 -10.975,10.975 10.975,10.975 0 0 1 -10.975,-10.975 10.975,10.975 0 0 1 10.975,-10.975 10.975,10.975 0 0 1 10.975,10.975 z"
           style="stroke-width:0.47790095" />
        <g
           id="g962"
           transform="rotate(-90,48.191967,206.4747)">
          <path
             inkscape:connector-curvature="0"
             id="path865"
             d="m 50.386192,204.01787 a 3.875,3.875 0 0 1 3.875,-3.875 3.875,3.875 0 0 1 3.875,3.875 3.875,3.875 0 0 1 -3.875,3.875 3.875,3.875 0 0 1 -3.875,-3.875 z"
             style="stroke-width:0.37576115" />
          <path
             inkscape:connector-curvature="0"
             id="path865-7"
             d="m 62.816193,204.01784 a 3.875,3.875 0 0 1 3.875,-3.875 3.875,3.875 0 0 1 3.875,3.875 3.875,3.875 0 0 1 -3.875,3.875 3.875,3.875 0 0 1 -3.875,-3.875 z"
             style="stroke-width:0.37576115" />
        </g>
      </g>
      <g
         id="text1003"
         style="font-style:normal;font-variant:normal;font-weight:bold;font-stretch:normal;font-size:10.58333302px;line-height:1.25;font-family:Arial;-inkscape-font-specification:'Arial Bold';letter-spacing:0px;word-spacing:0px;fill:#000000;fill-opacity:1;stroke:none;stroke-width:0.26458332"
         aria-label="Longva">
        <path
           id="path1032"
           style="font-style:normal;font-variant:normal;font-weight:bold;font-stretch:normal;font-family:Arial;-inkscape-font-specification:'Arial Bold';stroke-width:0.26458332"
           d="m 55.334304,106.16956 v -7.51375 h 1.529622 v 6.23735 h 3.803385 v 1.2764 z" />
        <path
           id="path1034"
           style="font-style:normal;font-variant:normal;font-weight:bold;font-stretch:normal;font-family:Arial;-inkscape-font-specification:'Arial Bold';stroke-width:0.26458332"
           d="m 61.416619,103.34803 q 0,-0.72347 0.356568,-1.40043 0.356567,-0.67696 1.00769,-1.03353 0.656291,-0.35657 1.462443,-0.35657 1.245402,0 2.041219,0.81132 0.795817,0.80616 0.795817,2.04122 0,1.2454 -0.806152,2.06706 -0.800985,0.81649 -2.020549,0.81649 -0.754475,0 -1.441772,-0.34107 -0.682129,-0.34106 -1.038696,-0.99735 -0.356568,-0.66146 -0.356568,-1.60714 z m 1.488282,0.0775 q 0,0.81649 0.387573,1.25057 0.387573,0.43409 0.956014,0.43409 0.568441,0 0.950846,-0.43409 0.387573,-0.43408 0.387573,-1.2609 0,-0.80615 -0.387573,-1.24023 -0.382405,-0.43409 -0.950846,-0.43409 -0.568441,0 -0.956014,0.43409 -0.387573,0.43408 -0.387573,1.25056 z" />
        <path
           id="path1036"
           style="font-style:normal;font-variant:normal;font-weight:bold;font-stretch:normal;font-family:Arial;-inkscape-font-specification:'Arial Bold';stroke-width:0.26458332"
           d="m 73.214349,106.16956 h -1.452108 v -2.80086 q 0,-0.88883 -0.09302,-1.14722 -0.09302,-0.26355 -0.304891,-0.40824 -0.206705,-0.14469 -0.501261,-0.14469 -0.377238,0 -0.676961,0.2067 -0.299724,0.20671 -0.413412,0.54777 -0.10852,0.34107 -0.10852,1.26091 v 2.48563 H 68.21207 v -5.48803 h 1.348755 v 0.80615 q 0.718302,-0.93018 1.808675,-0.93018 0.480591,0 0.878499,0.1757 0.397909,0.17054 0.599447,0.43925 0.206706,0.26872 0.28422,0.60978 0.08268,0.34107 0.08268,0.97669 z" />
        <path
           id="path1038"
           style="font-style:normal;font-variant:normal;font-weight:bold;font-stretch:normal;font-family:Arial;-inkscape-font-specification:'Arial Bold';stroke-width:0.26458332"
           d="m 74.557936,106.5313 1.658814,0.20154 q 0.04134,0.28938 0.191203,0.3979 0.206705,0.15503 0.651123,0.15503 0.56844,0 0.852661,-0.17053 0.191202,-0.11369 0.289388,-0.3669 0.06718,-0.18087 0.06718,-0.66663 v -0.80098 q -0.651123,0.88883 -1.64331,0.88883 -1.105876,0 -1.751831,-0.93534 -0.506429,-0.73897 -0.506429,-1.83968 0,-1.37976 0.661458,-2.1084 0.666626,-0.72864 1.653646,-0.72864 1.018025,0 1.679484,0.89401 v -0.76998 h 1.35909 v 4.92476 q 0,0.97152 -0.160197,1.45211 -0.160197,0.48059 -0.449585,0.75447 -0.289388,0.27389 -0.775147,0.42892 -0.48059,0.15503 -1.219563,0.15503 -1.395264,0 -1.979208,-0.48059 -0.583943,-0.47543 -0.583943,-1.20923 0,-0.0724 0.0052,-0.1757 z m 1.297079,-3.21944 q 0,0.87333 0.335897,1.28157 0.341064,0.40308 0.837158,0.40308 0.532267,0 0.89917,-0.41341 0.366902,-0.41858 0.366902,-1.23507 0,-0.85266 -0.351399,-1.26607 -0.3514,-0.41341 -0.888835,-0.41341 -0.521932,0 -0.862996,0.40824 -0.335897,0.40308 -0.335897,1.23507 z" />
        <path
           id="path1040"
           style="font-style:normal;font-variant:normal;font-weight:bold;font-stretch:normal;font-family:Arial;-inkscape-font-specification:'Arial Bold';stroke-width:0.26458332"
           d="m 82.671136,106.16956 -2.211752,-5.48803 h 1.524455 l 1.033529,2.80086 0.299723,0.93534 q 0.118856,-0.35657 0.149862,-0.47025 0.07235,-0.23255 0.155029,-0.46509 l 1.043864,-2.80086 h 1.493449 l -2.180746,5.48803 z" />
        <path
           id="path1042"
           style="font-style:normal;font-variant:normal;font-weight:bold;font-stretch:normal;font-family:Arial;-inkscape-font-specification:'Arial Bold';stroke-width:0.26458332"
           d="m 88.159172,102.35584 -1.317749,-0.23771 q 0.222209,-0.79582 0.764811,-1.17822 0.542603,-0.38241 1.612305,-0.38241 0.971517,0 1.44694,0.23255 0.475423,0.22737 0.666626,0.58394 0.19637,0.3514 0.19637,1.29708 l -0.0155,1.69499 q 0,0.72347 0.06718,1.0697 0.07235,0.34106 0.26355,0.7338 h -1.436605 q -0.05684,-0.14469 -0.139527,-0.42891 -0.03617,-0.12919 -0.05168,-0.17053 -0.37207,0.36173 -0.795817,0.5426 -0.423747,0.18087 -0.904338,0.18087 -0.847493,0 -1.338419,-0.45992 -0.485759,-0.45992 -0.485759,-1.16272 0,-0.46509 0.222209,-0.82683 0.222209,-0.3669 0.620117,-0.5581 0.403076,-0.19637 1.157552,-0.34107 1.018026,-0.1912 1.410767,-0.35656 v -0.1447 q 0,-0.41858 -0.206706,-0.59428 -0.206706,-0.18086 -0.780314,-0.18086 -0.387573,0 -0.604614,0.15503 -0.217041,0.14986 -0.3514,0.53226 z m 1.943034,1.17823 q -0.279053,0.093 -0.883667,0.2222 -0.604614,0.1292 -0.79065,0.25322 -0.28422,0.20154 -0.28422,0.5116 0,0.30489 0.227376,0.52709 0.227377,0.22221 0.578776,0.22221 0.392741,0 0.749309,-0.25838 0.263549,-0.19637 0.346232,-0.48059 0.05684,-0.18603 0.05684,-0.70797 z" />
      </g>
      <g
         id="text1007"
         style="font-style:normal;font-variant:normal;font-weight:bold;font-stretch:normal;font-size:10.58333302px;line-height:1.25;font-family:Arial;-inkscape-font-specification:'Arial Bold';letter-spacing:0px;word-spacing:0px;fill:#000000;fill-opacity:1;stroke:none;stroke-width:0.26458332"
         aria-label="Engineering">
        <path
           id="path1009"
           style="font-style:normal;font-variant:normal;font-weight:bold;font-stretch:normal;font-family:Arial;-inkscape-font-specification:'Arial Bold';stroke-width:0.26458332"
           d="m 74.536374,116.86034 v -7.57577 h 5.617228 v 1.28158 h -4.087605 v 1.67948 h 3.803385 v 1.27641 h -3.803385 v 2.06189 h 4.232299 v 1.27641 z" />
        <path
           id="path1011"
           style="font-style:normal;font-variant:normal;font-weight:bold;font-stretch:normal;font-family:Arial;-inkscape-font-specification:'Arial Bold';stroke-width:0.26458332"
           d="m 86.587318,116.86034 h -1.452107 v -2.80087 q 0,-0.88883 -0.09302,-1.14721 -0.09302,-0.26355 -0.304891,-0.40825 -0.206706,-0.14469 -0.501261,-0.14469 -0.377238,0 -0.676962,0.2067 -0.299723,0.20671 -0.413411,0.54778 -0.108521,0.34106 -0.108521,1.2609 v 2.48564 H 81.58504 v -5.48804 h 1.348755 v 0.80615 q 0.718302,-0.93017 1.808675,-0.93017 0.48059,0 0.878499,0.1757 0.397909,0.17053 0.599447,0.43925 0.206705,0.26871 0.28422,0.60978 0.08268,0.34106 0.08268,0.97668 z" />
        <path
           id="path1013"
           style="font-style:normal;font-variant:normal;font-weight:bold;font-stretch:normal;font-family:Arial;-inkscape-font-specification:'Arial Bold';stroke-width:0.26458332"
           d="m 87.930905,117.22207 1.658813,0.20154 q 0.04134,0.28939 0.191203,0.39791 0.206706,0.15503 0.651123,0.15503 0.568441,0 0.852661,-0.17054 0.191203,-0.11368 0.289388,-0.3669 0.06718,-0.18087 0.06718,-0.66662 v -0.80099 q -0.651123,0.88884 -1.643311,0.88884 -1.105875,0 -1.751831,-0.93535 -0.506429,-0.73897 -0.506429,-1.83968 0,-1.37976 0.661459,-2.1084 0.666625,-0.72863 1.653645,-0.72863 1.018026,0 1.679484,0.894 v -0.76998 h 1.35909 v 4.92476 q 0,0.97152 -0.160196,1.45211 -0.160197,0.48059 -0.449585,0.75448 -0.289388,0.27388 -0.775147,0.42891 -0.480591,0.15503 -1.219564,0.15503 -1.395263,0 -1.979207,-0.48059 -0.583944,-0.47542 -0.583944,-1.20923 0,-0.0724 0.0052,-0.1757 z m 1.297078,-3.21944 q 0,0.87333 0.335897,1.28158 0.341065,0.40307 0.837158,0.40307 0.532268,0 0.89917,-0.41341 0.366903,-0.41858 0.366903,-1.23507 0,-0.85266 -0.3514,-1.26607 -0.3514,-0.41341 -0.888834,-0.41341 -0.521932,0 -0.862997,0.40824 -0.335897,0.40308 -0.335897,1.23507 z" />
        <path
           id="path1015"
           style="font-style:normal;font-variant:normal;font-weight:bold;font-stretch:normal;font-family:Arial;-inkscape-font-specification:'Arial Bold';stroke-width:0.26458332"
           d="m 94.535152,110.62816 v -1.34359 h 1.452108 v 1.34359 z m 0,6.23218 v -5.48804 h 1.452108 v 5.48804 z" />
        <path
           id="path1017"
           style="font-style:normal;font-variant:normal;font-weight:bold;font-stretch:normal;font-family:Arial;-inkscape-font-specification:'Arial Bold';stroke-width:0.26458332"
           d="m 102.46232,116.86034 h -1.45211 v -2.80087 q 0,-0.88883 -0.093,-1.14721 -0.093,-0.26355 -0.30489,-0.40825 -0.2067,-0.14469 -0.50126,-0.14469 -0.377237,0 -0.676961,0.2067 -0.299723,0.20671 -0.413411,0.54778 -0.108521,0.34106 -0.108521,1.2609 v 2.48564 H 97.46004 v -5.48804 h 1.348755 v 0.80615 q 0.718302,-0.93017 1.808675,-0.93017 0.48059,0 0.8785,0.1757 0.39791,0.17053 0.59945,0.43925 0.2067,0.26871 0.28422,0.60978 0.0827,0.34106 0.0827,0.97668 z" />
        <path
           id="path1019"
           style="font-style:normal;font-variant:normal;font-weight:bold;font-stretch:normal;font-family:Arial;-inkscape-font-specification:'Arial Bold';stroke-width:0.26458332"
           d="m 107.11836,115.11367 1.44694,0.24288 q -0.27905,0.79582 -0.88366,1.2144 -0.59945,0.41341 -1.50379,0.41341 -1.43143,0 -2.11873,-0.93534 -0.5426,-0.74931 -0.5426,-1.89136 0,-1.36426 0.71313,-2.13424 0.71314,-0.77514 1.80351,-0.77514 1.22473,0 1.9327,0.81132 0.70796,0.80615 0.67696,2.4753 h -3.63802 q 0.0155,0.64595 0.3514,1.00769 0.33589,0.35656 0.83716,0.35656 0.34106,0 0.5736,-0.18603 0.23255,-0.18604 0.3514,-0.59945 z m 0.0827,-1.46761 q -0.0155,-0.63045 -0.32557,-0.95601 -0.31005,-0.33073 -0.75447,-0.33073 -0.47542,0 -0.78548,0.34623 -0.31006,0.34623 -0.30489,0.94051 z" />
        <path
           id="path1021"
           style="font-style:normal;font-variant:normal;font-weight:bold;font-stretch:normal;font-family:Arial;-inkscape-font-specification:'Arial Bold';stroke-width:0.26458332"
           d="m 113.00948,115.11367 1.44694,0.24288 q -0.27906,0.79582 -0.88367,1.2144 -0.59945,0.41341 -1.50379,0.41341 -1.43143,0 -2.11873,-0.93534 -0.5426,-0.74931 -0.5426,-1.89136 0,-1.36426 0.71313,-2.13424 0.71314,-0.77514 1.80351,-0.77514 1.22473,0 1.9327,0.81132 0.70797,0.80615 0.67696,2.4753 h -3.63802 q 0.0155,0.64595 0.3514,1.00769 0.3359,0.35656 0.83716,0.35656 0.34106,0 0.57361,-0.18603 0.23254,-0.18604 0.3514,-0.59945 z m 0.0827,-1.46761 q -0.0155,-0.63045 -0.32556,-0.95601 -0.31006,-0.33073 -0.75448,-0.33073 -0.47542,0 -0.78548,0.34623 -0.31006,0.34623 -0.30489,0.94051 z" />
        <path
           id="path1023"
           style="font-style:normal;font-variant:normal;font-weight:bold;font-stretch:normal;font-family:Arial;-inkscape-font-specification:'Arial Bold';stroke-width:0.26458332"
           d="m 117.11258,116.86034 h -1.4521 v -5.48804 h 1.34875 v 0.78031 q 0.34623,-0.55293 0.62012,-0.72863 0.27905,-0.1757 0.63045,-0.1757 0.49609,0 0.95602,0.27388 l -0.44959,1.26607 q -0.3669,-0.23771 -0.68213,-0.23771 -0.30489,0 -0.51676,0.17053 -0.21188,0.16537 -0.3359,0.60462 -0.11886,0.43925 -0.11886,1.83968 z" />
        <path
           id="path1025"
           style="font-style:normal;font-variant:normal;font-weight:bold;font-stretch:normal;font-family:Arial;-inkscape-font-specification:'Arial Bold';stroke-width:0.26458332"
           d="m 119.83593,110.62816 v -1.34359 h 1.45211 v 1.34359 z m 0,6.23218 v -5.48804 h 1.45211 v 5.48804 z" />
        <path
           id="path1027"
           style="font-style:normal;font-variant:normal;font-weight:bold;font-stretch:normal;font-family:Arial;-inkscape-font-specification:'Arial Bold';stroke-width:0.26458332"
           d="m 127.7631,116.86034 h -1.45211 v -2.80087 q 0,-0.88883 -0.093,-1.14721 -0.093,-0.26355 -0.30489,-0.40825 -0.2067,-0.14469 -0.50126,-0.14469 -0.37724,0 -0.67696,0.2067 -0.29972,0.20671 -0.41341,0.54778 -0.10852,0.34106 -0.10852,1.2609 v 2.48564 h -1.45211 v -5.48804 h 1.34876 v 0.80615 q 0.7183,-0.93017 1.80867,-0.93017 0.48059,0 0.8785,0.1757 0.39791,0.17053 0.59945,0.43925 0.2067,0.26871 0.28422,0.60978 0.0827,0.34106 0.0827,0.97668 z" />
        <path
           id="path1029"
           style="font-style:normal;font-variant:normal;font-weight:bold;font-stretch:normal;font-family:Arial;-inkscape-font-specification:'Arial Bold';stroke-width:0.26458332"
           d="m 129.10668,117.22207 1.65882,0.20154 q 0.0413,0.28939 0.1912,0.39791 0.20671,0.15503 0.65112,0.15503 0.56844,0 0.85266,-0.17054 0.19121,-0.11368 0.28939,-0.3669 0.0672,-0.18087 0.0672,-0.66662 v -0.80099 q -0.65112,0.88884 -1.64331,0.88884 -1.10587,0 -1.75183,-0.93535 -0.50643,-0.73897 -0.50643,-1.83968 0,-1.37976 0.66146,-2.1084 0.66663,-0.72863 1.65365,-0.72863 1.01802,0 1.67948,0.894 v -0.76998 h 1.35909 v 4.92476 q 0,0.97152 -0.1602,1.45211 -0.16019,0.48059 -0.44958,0.75448 -0.28939,0.27388 -0.77515,0.42891 -0.48059,0.15503 -1.21956,0.15503 -1.39527,0 -1.97921,-0.48059 -0.58394,-0.47542 -0.58394,-1.20923 0,-0.0724 0.005,-0.1757 z m 1.29708,-3.21944 q 0,0.87333 0.3359,1.28158 0.34106,0.40307 0.83716,0.40307 0.53226,0 0.89917,-0.41341 0.3669,-0.41858 0.3669,-1.23507 0,-0.85266 -0.3514,-1.26607 -0.3514,-0.41341 -0.88883,-0.41341 -0.52194,0 -0.863,0.40824 -0.3359,0.40308 -0.3359,1.23507 z" />
      </g>
    </g>
  </g>
</svg>
