<?xml version="1.0" encoding="UTF-8" standalone="no"?>
<!-- Created with Inkscape (http://www.inkscape.org/) -->

<svg
   xmlns:dc="http://purl.org/dc/elements/1.1/"
   xmlns:cc="http://creativecommons.org/ns#"
   xmlns:rdf="http://www.w3.org/1999/02/22-rdf-syntax-ns#"
   xmlns:svg="http://www.w3.org/2000/svg"
   xmlns="http://www.w3.org/2000/svg"
   xmlns:sodipodi="http://sodipodi.sourceforge.net/DTD/sodipodi-0.dtd"
   xmlns:inkscape="http://www.inkscape.org/namespaces/inkscape"
   width="300mm"
   height="250mm"
   viewBox="0 0 300 250"
   version="1.1"
   id="svg3278"
   sodipodi:docname="side2.svg"
   inkscape:version="0.92.1 r15371">
  <defs
     id="defs3272" />
  <sodipodi:namedview
     id="base"
     pagecolor="#ffffff"
     bordercolor="#666666"
     borderopacity="1.0"
     inkscape:pageopacity="0.0"
     inkscape:pageshadow="2"
     inkscape:zoom="0.98994949"
     inkscape:cx="261.39559"
     inkscape:cy="428.63935"
     inkscape:document-units="mm"
     inkscape:current-layer="layer1"
     showgrid="false"
     inkscape:window-width="1920"
     inkscape:window-height="1017"
     inkscape:window-x="1912"
     inkscape:window-y="-8"
     inkscape:window-maximized="1" />
  <metadata
     id="metadata3275">
    <rdf:RDF>
      <cc:Work
         rdf:about="">
        <dc:format>image/svg+xml</dc:format>
        <dc:type
           rdf:resource="http://purl.org/dc/dcmitype/StillImage" />
        <dc:title />
      </cc:Work>
    </rdf:RDF>
  </metadata>
  <g
     inkscape:label="Layer 1"
     inkscape:groupmode="layer"
     id="layer1"
     transform="translate(0,-47)">
    <path
       inkscape:connector-curvature="0"
       id="path3169"
       inkscape:label="part"
       style="fill:none;stroke:#000000;stroke-width:1"
       d="m 0.5,93.499995 h 6.39559 v -3 h 6.15 v 3 h 6.32059 v -3 h 6.15 v 3 h 6.32058 v -3 h 6.15 v 3 h 6.32059 v -3 h 6.15 v 3 h 6.32059 v -3 h 6.15 v 3 h 6.32059 v -3 h 6.15 v 3 h 6.32059 v -3 h 6.15 v 3 h 6.32059 v -3 h 6.15 v 3 h 6.32058 v -3 h 6.15 v 3 h 6.32059 v -3 h 6.15 v 3 h 6.32059 v -3 h 6.15 v 3 h 6.32059 v -3 h 6.15 v 3 h 6.32059 v -3 h 6.15 v 3 h 6.32059 v -3 h 6.15 v 3 h 6.32058 v -3 h 6.15 v 3 h 6.32059 v -3 h 6.15 v 3 H 206.5" />
    <path
       inkscape:connector-curvature="0"
       id="path3171"
       inkscape:label="part"
       style="fill:none;stroke:#000000;stroke-width:1"
       d="m 206.5,93.499995 v 3.54559 h -3 v 5.849995 h 3 v 6.6206 h -3 v 5.84999 h 3 v 6.62059 h -3 v 5.85 h 3 v 6.62058 h -3 v 5.85001 h 3 v 6.62058 h -3 v 5.85001 h 3 v 6.62058 h -3 v 5.85 h 3 v 6.6206 h -3 v 5.85 h 3 v 6.62059 h -3 v 5.85 h 3 v 6.62057 h -3 v 5.85 h 3 v 6.62059 h -3 v 5.85 h 3 v 6.62059 h -3 v 5.85 h 3 v 6.62059 h -3 v 5.85 h 3 v 6.62059 h -3 v 5.85 h 3 v 6.62059 h -3 v 5.85 h 3 v 6.62058 h -3 v 5.85 h 3 v 6.6206 h -3 v 5.85 h 3 V 293.5" />
    <path
       inkscape:connector-curvature="0"
       id="path3173"
       inkscape:label="part"
       style="fill:none;stroke:#000000;stroke-width:1"
       d="m 206.5,293.5 h -6.39559 v 3 h -6.15 v -3 h -6.32059 v 3 h -6.15 v -3 h -6.32058 v 3 h -6.15 v -3 h -6.32059 v 3 h -6.15 v -3 h -6.32059 v 3 h -6.15 v -3 h -6.32059 v 3 h -6.15 v -3 h -6.32059 v 3 h -6.15 v -3 h -6.32059 v 3 h -6.15 v -3 h -6.32058 v 3 h -6.15 v -3 h -6.32059 v 3 h -6.15 v -3 h -6.32059 v 3 h -6.15 v -3 h -6.32059 v 3 h -6.15 v -3 h -6.32059 v 3 h -6.15 v -3 h -6.32059 v 3 h -6.15 v -3 h -6.32058 v 3 h -6.15 v -3 h -6.32059 v 3 h -6.15 v -3 H 0.5" />
    <path
       inkscape:connector-curvature="0"
       id="path3175"
       inkscape:label="part"
       style="fill:none;stroke:#000000;stroke-width:1"
       d="m 0.5,293.5 v -3.54559 h 3 v -5.85 h -3 v -6.6206 h 3 v -5.84999 h -3 v -6.62059 h 3 v -5.85 h -3 v -6.62058 h 3 v -5.85 h -3 v -6.62059 h 3 v -5.85001 h -3 v -6.62058 h 3 v -5.85 h -3 v -6.6206 h 3 v -5.85 h -3 v -6.62058 h 3 v -5.85 h -3 v -6.62058 h 3 v -5.85 h -3 v -6.62059 h 3 v -5.85001 h -3 v -6.62059 h 3 v -5.85 h -3 v -6.62058 h 3 v -5.85001 h -3 v -6.62058 h 3 v -5.85001 h -3 v -6.62058 h 3 v -5.85001 h -3 v -6.62058 h 3 v -5.84999 h -3 v -6.62059 h 3 v -5.850005 h -3 v -3.54559" />
    <path
       style="fill:#000000;stroke-width:0.30096462"
       d="M 80,201.99993 V 277 h 3.99976 v -75.00007 z m 7.00009,0 V 277 h 3.99976 v -75.00007 z m 7.00009,0 V 277 h 3.99976 v -75.00007 z m 6.99957,0 V 277 h 4.00028 v -75.00007 z m 7.00009,0 V 277 h 4.00028 v -75.00007 z m 7.00009,0 V 277 h 4.00027 v -75.00007 z m 7.00009,0 V 277 h 3.99976 v -75.00007 z m 7.00009,0 V 277 h 3.99976 v -75.00007 z m 7.00009,0 V 277 h 3.99976 v -75.00007 z m 6.99958,0 V 277 h 4.00027 v -75.00007 z m 7.00009,0 V 277 h 5.0002 v -75.00007 z"
       id="rect11"
       inkscape:connector-curvature="0" />
  </g>
</svg>
