  0
SECTION
  2
HEADER
  9
$ACADVER
  1
AC1014
  9
$HANDSEED
  5
FFFF
  9
$MEASUREMENT
 70
     1
  0
ENDSEC
  0
SECTION
  2
TABLES
  0
TABLE
  2
VPORT
  5
8
330
0
100
AcDbSymbolTable
 70
     4
  0
VPORT
  5
2E
330
8
100
AcDbSymbolTableRecord
100
AcDbViewportTableRecord
  2
*ACTIVE
 70
     0
 10
0.0
 20
0.0
 11
1.0
 21
1.0
 12
210.0
 22
148.5
 13
0.0
 23
0.0
 14
10.0
 24
10.0
 15
10.0
 25
10.0
 16
0.0
 26
0.0
 36
1.0
 17
0.0
 27
0.0
 37
0.0
 40
341.0
 41
1.24
 42
50.0
 43
0.0
 44
0.0
 50
0.0
 51
0.0
 71
     0
 72
   100
 73
     1
 74
     3
 75
     0
 76
     0
 77
     0
 78
     0
  0
ENDTAB
  0
TABLE
  2
LTYPE
  5
5
330
0
100
AcDbSymbolTable
 70
     1
  0
LTYPE
  5
14
330
5
100
AcDbSymbolTableRecord
100
AcDbLinetypeTableRecord
  2
BYBLOCK
 70
     0
  3

 72
    65
 73
     0
 40
0.0
  0
LTYPE
  5
15
330
5
100
AcDbSymbolTableRecord
100
AcDbLinetypeTableRecord
  2
BYLAYER
 70
     0
  3

 72
    65
 73
     0
 40
0.0
  0
LTYPE
  5
16
330
5
100
AcDbSymbolTableRecord
100
AcDbLinetypeTableRecord
  2
CONTINUOUS
 70
     0
  3
Solid line
 72
    65
 73
     0
 40
0.0
  0
ENDTAB
  0
TABLE
  2
LAYER
  5
2
100
AcDbSymbolTable
 70
2
  0
LAYER
  5
50
100
AcDbSymbolTableRecord
100
AcDbLayerTableRecord
  2
0
 70
0
  6
CONTINUOUS
  0
LAYER
  5
51
100
AcDbSymbolTableRecord
100
AcDbLayerTableRecord
  2
Layer_1
 70
0
  6
CONTINUOUS
  0
ENDTAB
  0
TABLE
  2
STYLE
  5
3
330
0
100
AcDbSymbolTable
 70
     1
  0
STYLE
  5
11
330
3
100
AcDbSymbolTableRecord
100
AcDbTextStyleTableRecord
  2
STANDARD
 70
     0
 40
0.0
 41
1.0
 50
0.0
 71
     0
 42
2.5
  3
txt
  4

  0
ENDTAB
  0
TABLE
  2
VIEW
  5
6
330
0
100
AcDbSymbolTable
 70
     0
  0
ENDTAB
  0
TABLE
  2
UCS
  5
7
330
0
100
AcDbSymbolTable
 70
     0
  0
ENDTAB
  0
TABLE
  2
APPID
  5
9
330
0
100
AcDbSymbolTable
 70
     2
  0
APPID
  5
12
330
9
100
AcDbSymbolTableRecord
100
AcDbRegAppTableRecord
  2
ACAD
 70
     0
  0
ENDTAB
  0
TABLE
  2
DIMSTYLE
  5
A
330
0
100
AcDbSymbolTable
 70
     1
  0
DIMSTYLE
105
27
330
A
100
AcDbSymbolTableRecord
100
AcDbDimStyleTableRecord
  2
ISO-25
 70
     0
  3

  4

  5

  6

  7

 40
1.0
 41
2.5
 42
0.625
 43
3.75
 44
1.25
 45
0.0
 46
0.0
 47
0.0
 48
0.0
140
2.5
141
2.5
142
0.0
143
0.03937007874016
144
1.0
145
0.0
146
1.0
147
0.625
 71
     0
 72
     0
 73
     0
 74
     0
 75
     0
 76
     0
 77
     1
 78
     8
170
     0
171
     3
172
     1
173
     0
174
     0
175
     0
176
     0
177
     0
178
     0
270
     2
271
     2
272
     2
273
     2
274
     3
340
11
275
     0
280
     0
281
     0
282
     0
283
     0
284
     8
285
     0
286
     0
287
     3
288
     0
  0
ENDTAB
  0
TABLE
  2
BLOCK_RECORD
  5
1
330
0
100
AcDbSymbolTable
 70
     1
  0
BLOCK_RECORD
  5
1F
330
1
100
AcDbSymbolTableRecord
100
AcDbBlockTableRecord
  2
*MODEL_SPACE
  0
BLOCK_RECORD
  5
1B
330
1
100
AcDbSymbolTableRecord
100
AcDbBlockTableRecord
  2
*PAPER_SPACE
  0
ENDTAB
  0
ENDSEC
  0
SECTION
  2
BLOCKS
  0
BLOCK
  5
20
330
1F
100
AcDbEntity
  8
0
100
AcDbBlockBegin
  2
*MODEL_SPACE
 70
     0
 10
0.0
 20
0.0
 30
0.0
  3
*MODEL_SPACE
  1

  0
ENDBLK
  5
21
330
1F
100
AcDbEntity
  8
0
100
AcDbBlockEnd
  0
BLOCK
  5
1C
330
1B
100
AcDbEntity
 67
     1
  8
0
100
AcDbBlockBegin
  2
*PAPER_SPACE
  1

  0
ENDBLK
  5
1D
330
1B
100
AcDbEntity
 67
     1
  8
0
100
AcDbBlockEnd
  0
ENDSEC
  0
SECTION
  2
ENTITIES
  0
LWPOLYLINE
  5
100
100
AcDbEntity
  8
Layer_1
 62
7
100
AcDbPolyline
 90
260
 70
1
 10
0.500000
 20
203.500000
 30
0.0
 10
6.895590
 20
203.500000
 30
0.0
 10
6.895590
 20
206.500000
 30
0.0
 10
13.045590
 20
206.500000
 30
0.0
 10
13.045590
 20
203.500000
 30
0.0
 10
19.366180
 20
203.500000
 30
0.0
 10
19.366180
 20
206.500000
 30
0.0
 10
25.516180
 20
206.500000
 30
0.0
 10
25.516180
 20
203.500000
 30
0.0
 10
31.836760
 20
203.500000
 30
0.0
 10
31.836760
 20
206.500000
 30
0.0
 10
37.986761
 20
206.500000
 30
0.0
 10
37.986761
 20
203.500000
 30
0.0
 10
44.307350
 20
203.500000
 30
0.0
 10
44.307350
 20
206.500000
 30
0.0
 10
50.457351
 20
206.500000
 30
0.0
 10
50.457351
 20
203.500000
 30
0.0
 10
56.777940
 20
203.500000
 30
0.0
 10
56.777940
 20
206.500000
 30
0.0
 10
62.927942
 20
206.500000
 30
0.0
 10
62.927942
 20
203.500000
 30
0.0
 10
69.248531
 20
203.500000
 30
0.0
 10
69.248531
 20
206.500000
 30
0.0
 10
75.398532
 20
206.500000
 30
0.0
 10
75.398532
 20
203.500000
 30
0.0
 10
81.719121
 20
203.500000
 30
0.0
 10
81.719121
 20
206.500000
 30
0.0
 10
87.869120
 20
206.500000
 30
0.0
 10
87.869120
 20
203.500000
 30
0.0
 10
94.189711
 20
203.500000
 30
0.0
 10
94.189711
 20
206.500000
 30
0.0
 10
100.339710
 20
206.500000
 30
0.0
 10
100.339710
 20
203.500000
 30
0.0
 10
106.660290
 20
203.500000
 30
0.0
 10
106.660290
 20
206.500000
 30
0.0
 10
112.810290
 20
206.500000
 30
0.0
 10
112.810290
 20
203.500000
 30
0.0
 10
119.130880
 20
203.500000
 30
0.0
 10
119.130880
 20
206.500000
 30
0.0
 10
125.280880
 20
206.500000
 30
0.0
 10
125.280880
 20
203.500000
 30
0.0
 10
131.601470
 20
203.500000
 30
0.0
 10
131.601470
 20
206.500000
 30
0.0
 10
137.751470
 20
206.500000
 30
0.0
 10
137.751470
 20
203.500000
 30
0.0
 10
144.072060
 20
203.500000
 30
0.0
 10
144.072060
 20
206.500000
 30
0.0
 10
150.222060
 20
206.500000
 30
0.0
 10
150.222060
 20
203.500000
 30
0.0
 10
156.542650
 20
203.500000
 30
0.0
 10
156.542650
 20
206.500000
 30
0.0
 10
162.692650
 20
206.500000
 30
0.0
 10
162.692650
 20
203.500000
 30
0.0
 10
169.013240
 20
203.500000
 30
0.0
 10
169.013240
 20
206.500000
 30
0.0
 10
175.163240
 20
206.500000
 30
0.0
 10
175.163240
 20
203.500000
 30
0.0
 10
181.483820
 20
203.500000
 30
0.0
 10
181.483820
 20
206.500000
 30
0.0
 10
187.633820
 20
206.500000
 30
0.0
 10
187.633820
 20
203.500000
 30
0.0
 10
193.954410
 20
203.500000
 30
0.0
 10
193.954410
 20
206.500000
 30
0.0
 10
200.104410
 20
206.500000
 30
0.0
 10
200.104410
 20
203.500000
 30
0.0
 10
206.500000
 20
203.500000
 30
0.0
 10
206.500000
 20
199.954410
 30
0.0
 10
203.500000
 20
199.954410
 30
0.0
 10
203.500000
 20
194.104410
 30
0.0
 10
206.500000
 20
194.104410
 30
0.0
 10
206.500000
 20
187.483820
 30
0.0
 10
203.500000
 20
187.483820
 30
0.0
 10
203.500000
 20
181.633820
 30
0.0
 10
206.500000
 20
181.633820
 30
0.0
 10
206.500000
 20
175.013230
 30
0.0
 10
203.500000
 20
175.013230
 30
0.0
 10
203.500000
 20
169.163230
 30
0.0
 10
206.500000
 20
169.163230
 30
0.0
 10
206.500000
 20
162.542640
 30
0.0
 10
203.500000
 20
162.542640
 30
0.0
 10
203.500000
 20
156.692640
 30
0.0
 10
206.500000
 20
156.692640
 30
0.0
 10
206.500000
 20
150.072060
 30
0.0
 10
203.500000
 20
150.072060
 30
0.0
 10
203.500000
 20
144.222060
 30
0.0
 10
206.500000
 20
144.222060
 30
0.0
 10
206.500000
 20
137.601470
 30
0.0
 10
203.500000
 20
137.601470
 30
0.0
 10
203.500000
 20
131.751470
 30
0.0
 10
206.500000
 20
131.751470
 30
0.0
 10
206.500000
 20
125.130880
 30
0.0
 10
203.500000
 20
125.130880
 30
0.0
 10
203.500000
 20
119.280880
 30
0.0
 10
206.500000
 20
119.280880
 30
0.0
 10
206.500000
 20
112.660290
 30
0.0
 10
203.500000
 20
112.660290
 30
0.0
 10
203.500000
 20
106.810290
 30
0.0
 10
206.500000
 20
106.810290
 30
0.0
 10
206.500000
 20
100.189710
 30
0.0
 10
203.500000
 20
100.189710
 30
0.0
 10
203.500000
 20
94.339710
 30
0.0
 10
206.500000
 20
94.339710
 30
0.0
 10
206.500000
 20
87.719120
 30
0.0
 10
203.500000
 20
87.719120
 30
0.0
 10
203.500000
 20
81.869120
 30
0.0
 10
206.500000
 20
81.869120
 30
0.0
 10
206.500000
 20
75.248530
 30
0.0
 10
203.500000
 20
75.248530
 30
0.0
 10
203.500000
 20
69.398530
 30
0.0
 10
206.500000
 20
69.398530
 30
0.0
 10
206.500000
 20
62.777940
 30
0.0
 10
203.500000
 20
62.777940
 30
0.0
 10
203.500000
 20
56.927940
 30
0.0
 10
206.500000
 20
56.927940
 30
0.0
 10
206.500000
 20
50.307350
 30
0.0
 10
203.500000
 20
50.307350
 30
0.0
 10
203.500000
 20
44.457350
 30
0.0
 10
206.500000
 20
44.457350
 30
0.0
 10
206.500000
 20
37.836760
 30
0.0
 10
203.500000
 20
37.836760
 30
0.0
 10
203.500000
 20
31.986760
 30
0.0
 10
206.500000
 20
31.986760
 30
0.0
 10
206.500000
 20
25.366180
 30
0.0
 10
203.500000
 20
25.366180
 30
0.0
 10
203.500000
 20
19.516180
 30
0.0
 10
206.500000
 20
19.516180
 30
0.0
 10
206.500000
 20
12.895590
 30
0.0
 10
203.500000
 20
12.895590
 30
0.0
 10
203.500000
 20
7.045590
 30
0.0
 10
206.500000
 20
7.045590
 30
0.0
 10
206.500000
 20
3.500000
 30
0.0
 10
200.104410
 20
3.500000
 30
0.0
 10
200.104410
 20
0.500000
 30
0.0
 10
193.954410
 20
0.500000
 30
0.0
 10
193.954410
 20
3.500000
 30
0.0
 10
187.633820
 20
3.500000
 30
0.0
 10
187.633820
 20
0.500000
 30
0.0
 10
181.483820
 20
0.500000
 30
0.0
 10
181.483820
 20
3.500000
 30
0.0
 10
175.163240
 20
3.500000
 30
0.0
 10
175.163240
 20
0.500000
 30
0.0
 10
169.013240
 20
0.500000
 30
0.0
 10
169.013240
 20
3.500000
 30
0.0
 10
162.692650
 20
3.500000
 30
0.0
 10
162.692650
 20
0.500000
 30
0.0
 10
156.542650
 20
0.500000
 30
0.0
 10
156.542650
 20
3.500000
 30
0.0
 10
150.222060
 20
3.500000
 30
0.0
 10
150.222060
 20
0.500000
 30
0.0
 10
144.072060
 20
0.500000
 30
0.0
 10
144.072060
 20
3.500000
 30
0.0
 10
137.751470
 20
3.500000
 30
0.0
 10
137.751470
 20
0.500000
 30
0.0
 10
131.601470
 20
0.500000
 30
0.0
 10
131.601470
 20
3.500000
 30
0.0
 10
125.280880
 20
3.500000
 30
0.0
 10
125.280880
 20
0.500000
 30
0.0
 10
119.130880
 20
0.500000
 30
0.0
 10
119.130880
 20
3.500000
 30
0.0
 10
112.810290
 20
3.500000
 30
0.0
 10
112.810290
 20
0.500000
 30
0.0
 10
106.660290
 20
0.500000
 30
0.0
 10
106.660290
 20
3.500000
 30
0.0
 10
100.339710
 20
3.500000
 30
0.0
 10
100.339710
 20
0.500000
 30
0.0
 10
94.189711
 20
0.500000
 30
0.0
 10
94.189711
 20
3.500000
 30
0.0
 10
87.869120
 20
3.500000
 30
0.0
 10
87.869120
 20
0.500000
 30
0.0
 10
81.719121
 20
0.500000
 30
0.0
 10
81.719121
 20
3.500000
 30
0.0
 10
75.398532
 20
3.500000
 30
0.0
 10
75.398532
 20
0.500000
 30
0.0
 10
69.248531
 20
0.500000
 30
0.0
 10
69.248531
 20
3.500000
 30
0.0
 10
62.927942
 20
3.500000
 30
0.0
 10
62.927942
 20
0.500000
 30
0.0
 10
56.777940
 20
0.500000
 30
0.0
 10
56.777940
 20
3.500000
 30
0.0
 10
50.457351
 20
3.500000
 30
0.0
 10
50.457351
 20
0.500000
 30
0.0
 10
44.307350
 20
0.500000
 30
0.0
 10
44.307350
 20
3.500000
 30
0.0
 10
37.986761
 20
3.500000
 30
0.0
 10
37.986761
 20
0.500000
 30
0.0
 10
31.836760
 20
0.500000
 30
0.0
 10
31.836760
 20
3.500000
 30
0.0
 10
25.516180
 20
3.500000
 30
0.0
 10
25.516180
 20
0.500000
 30
0.0
 10
19.366180
 20
0.500000
 30
0.0
 10
19.366180
 20
3.500000
 30
0.0
 10
13.045590
 20
3.500000
 30
0.0
 10
13.045590
 20
0.500000
 30
0.0
 10
6.895590
 20
0.500000
 30
0.0
 10
6.895590
 20
3.500000
 30
0.0
 10
0.500000
 20
3.500000
 30
0.0
 10
0.500000
 20
7.045590
 30
0.0
 10
3.500000
 20
7.045590
 30
0.0
 10
3.500000
 20
12.895590
 30
0.0
 10
0.500000
 20
12.895590
 30
0.0
 10
0.500000
 20
19.516180
 30
0.0
 10
3.500000
 20
19.516180
 30
0.0
 10
3.500000
 20
25.366180
 30
0.0
 10
0.500000
 20
25.366180
 30
0.0
 10
0.500000
 20
31.986760
 30
0.0
 10
3.500000
 20
31.986760
 30
0.0
 10
3.500000
 20
37.836760
 30
0.0
 10
0.500000
 20
37.836760
 30
0.0
 10
0.500000
 20
44.457350
 30
0.0
 10
3.500000
 20
44.457350
 30
0.0
 10
3.500000
 20
50.307350
 30
0.0
 10
0.500000
 20
50.307350
 30
0.0
 10
0.500000
 20
56.927940
 30
0.0
 10
3.500000
 20
56.927940
 30
0.0
 10
3.500000
 20
62.777940
 30
0.0
 10
0.500000
 20
62.777940
 30
0.0
 10
0.500000
 20
69.398530
 30
0.0
 10
3.500000
 20
69.398530
 30
0.0
 10
3.500000
 20
75.248530
 30
0.0
 10
0.500000
 20
75.248530
 30
0.0
 10
0.500000
 20
81.869120
 30
0.0
 10
3.500000
 20
81.869120
 30
0.0
 10
3.500000
 20
87.719120
 30
0.0
 10
0.500000
 20
87.719120
 30
0.0
 10
0.500000
 20
94.339710
 30
0.0
 10
3.500000
 20
94.339710
 30
0.0
 10
3.500000
 20
100.189710
 30
0.0
 10
0.500000
 20
100.189710
 30
0.0
 10
0.500000
 20
106.810290
 30
0.0
 10
3.500000
 20
106.810290
 30
0.0
 10
3.500000
 20
112.660290
 30
0.0
 10
0.500000
 20
112.660290
 30
0.0
 10
0.500000
 20
119.280880
 30
0.0
 10
3.500000
 20
119.280880
 30
0.0
 10
3.500000
 20
125.130880
 30
0.0
 10
0.500000
 20
125.130880
 30
0.0
 10
0.500000
 20
131.751470
 30
0.0
 10
3.500000
 20
131.751470
 30
0.0
 10
3.500000
 20
137.601470
 30
0.0
 10
0.500000
 20
137.601470
 30
0.0
 10
0.500000
 20
144.222060
 30
0.0
 10
3.500000
 20
144.222060
 30
0.0
 10
3.500000
 20
150.072060
 30
0.0
 10
0.500000
 20
150.072060
 30
0.0
 10
0.500000
 20
156.692640
 30
0.0
 10
3.500000
 20
156.692640
 30
0.0
 10
3.500000
 20
162.542640
 30
0.0
 10
0.500000
 20
162.542640
 30
0.0
 10
0.500000
 20
169.163230
 30
0.0
 10
3.500000
 20
169.163230
 30
0.0
 10
3.500000
 20
175.013230
 30
0.0
 10
0.500000
 20
175.013230
 30
0.0
 10
0.500000
 20
181.633820
 30
0.0
 10
3.500000
 20
181.633820
 30
0.0
 10
3.500000
 20
187.483820
 30
0.0
 10
0.500000
 20
187.483820
 30
0.0
 10
0.500000
 20
194.104410
 30
0.0
 10
3.500000
 20
194.104410
 30
0.0
 10
3.500000
 20
199.954410
 30
0.0
 10
0.500000
 20
199.954410
 30
0.0
  0
LWPOLYLINE
  5
101
100
AcDbEntity
  8
Layer_1
 62
7
100
AcDbPolyline
 90
4
 70
1
 10
155.000070
 20
20.000000
 30
0.0
 10
155.000070
 20
95.000070
 30
0.0
 10
151.000310
 20
95.000070
 30
0.0
 10
151.000310
 20
20.000000
 30
0.0
  0
LWPOLYLINE
  5
102
100
AcDbEntity
  8
Layer_1
 62
7
100
AcDbPolyline
 90
4
 70
1
 10
147.999980
 20
20.000000
 30
0.0
 10
147.999980
 20
95.000070
 30
0.0
 10
144.000220
 20
95.000070
 30
0.0
 10
144.000220
 20
20.000000
 30
0.0
  0
LWPOLYLINE
  5
103
100
AcDbEntity
  8
Layer_1
 62
7
100
AcDbPolyline
 90
4
 70
1
 10
140.999890
 20
20.000000
 30
0.0
 10
140.999890
 20
95.000070
 30
0.0
 10
137.000130
 20
95.000070
 30
0.0
 10
137.000130
 20
20.000000
 30
0.0
  0
LWPOLYLINE
  5
104
100
AcDbEntity
  8
Layer_1
 62
7
100
AcDbPolyline
 90
4
 70
1
 10
134.000320
 20
20.000000
 30
0.0
 10
134.000320
 20
95.000070
 30
0.0
 10
130.000040
 20
95.000070
 30
0.0
 10
130.000040
 20
20.000000
 30
0.0
  0
LWPOLYLINE
  5
105
100
AcDbEntity
  8
Layer_1
 62
7
100
AcDbPolyline
 90
4
 70
1
 10
127.000230
 20
20.000000
 30
0.0
 10
127.000230
 20
95.000070
 30
0.0
 10
122.999960
 20
95.000070
 30
0.0
 10
122.999960
 20
20.000000
 30
0.0
  0
LWPOLYLINE
  5
106
100
AcDbEntity
  8
Layer_1
 62
7
100
AcDbPolyline
 90
4
 70
1
 10
120.000140
 20
20.000000
 30
0.0
 10
120.000140
 20
95.000070
 30
0.0
 10
115.999870
 20
95.000070
 30
0.0
 10
115.999870
 20
20.000000
 30
0.0
  0
LWPOLYLINE
  5
107
100
AcDbEntity
  8
Layer_1
 62
7
100
AcDbPolyline
 90
4
 70
1
 10
113.000050
 20
20.000000
 30
0.0
 10
113.000050
 20
95.000070
 30
0.0
 10
109.000290
 20
95.000070
 30
0.0
 10
109.000290
 20
20.000000
 30
0.0
  0
LWPOLYLINE
  5
108
100
AcDbEntity
  8
Layer_1
 62
7
100
AcDbPolyline
 90
4
 70
1
 10
105.999960
 20
20.000000
 30
0.0
 10
105.999960
 20
95.000070
 30
0.0
 10
102.000200
 20
95.000070
 30
0.0
 10
102.000200
 20
20.000000
 30
0.0
  0
LWPOLYLINE
  5
109
100
AcDbEntity
  8
Layer_1
 62
7
100
AcDbPolyline
 90
4
 70
1
 10
98.999870
 20
20.000000
 30
0.0
 10
98.999870
 20
95.000070
 30
0.0
 10
95.000110
 20
95.000070
 30
0.0
 10
95.000110
 20
20.000000
 30
0.0
  0
LWPOLYLINE
  5
10a
100
AcDbEntity
  8
Layer_1
 62
7
100
AcDbPolyline
 90
4
 70
1
 10
92.000300
 20
20.000000
 30
0.0
 10
92.000300
 20
95.000070
 30
0.0
 10
88.000020
 20
95.000070
 30
0.0
 10
88.000020
 20
20.000000
 30
0.0
  0
LWPOLYLINE
  5
10b
100
AcDbEntity
  8
Layer_1
 62
7
100
AcDbPolyline
 90
4
 70
1
 10
85.000210
 20
20.000000
 30
0.0
 10
85.000210
 20
95.000070
 30
0.0
 10
80.000000
 20
95.000070
 30
0.0
 10
80.000000
 20
20.000000
 30
0.0
  0
ENDSEC
  0
SECTION
  2
OBJECTS
  0
DICTIONARY
  5
C
330
0
100
AcDbDictionary
  3
ACAD_GROUP
350
D
  3
ACAD_MLINESTYLE
350
17
  0
DICTIONARY
  5
D
330
C
100
AcDbDictionary
  0
DICTIONARY
  5
1A
330
C
100
AcDbDictionary
  0
DICTIONARY
  5
17
330
C
100
AcDbDictionary
  3
STANDARD
350
18
  0
DICTIONARY
  5
19
330
C
100
AcDbDictionary
  0
ENDSEC
  0
EOF
