<?xml version="1.0" encoding="UTF-8" standalone="no"?>
<!-- Created with Inkscape (http://www.inkscape.org/) -->

<svg
   xmlns:dc="http://purl.org/dc/elements/1.1/"
   xmlns:cc="http://creativecommons.org/ns#"
   xmlns:rdf="http://www.w3.org/1999/02/22-rdf-syntax-ns#"
   xmlns:svg="http://www.w3.org/2000/svg"
   xmlns="http://www.w3.org/2000/svg"
   xmlns:sodipodi="http://sodipodi.sourceforge.net/DTD/sodipodi-0.dtd"
   xmlns:inkscape="http://www.inkscape.org/namespaces/inkscape"
   width="300mm"
   height="250mm"
   viewBox="0 0 300 250"
   version="1.1"
   id="svg3278"
   inkscape:version="0.92.1 r15371"
   sodipodi:docname="side.svg">
  <defs
     id="defs3272" />
  <sodipodi:namedview
     id="base"
     pagecolor="#ffffff"
     bordercolor="#666666"
     borderopacity="1.0"
     inkscape:pageopacity="0.0"
     inkscape:pageshadow="2"
     inkscape:zoom="0.7"
     inkscape:cx="848.84044"
     inkscape:cy="420.24088"
     inkscape:document-units="mm"
     inkscape:current-layer="layer1"
     showgrid="false"
     inkscape:window-width="1920"
     inkscape:window-height="1017"
     inkscape:window-x="-8"
     inkscape:window-y="-8"
     inkscape:window-maximized="1"
     inkscape:snap-global="false" />
  <metadata
     id="metadata3275">
    <rdf:RDF>
      <cc:Work
         rdf:about="">
        <dc:format>image/svg+xml</dc:format>
        <dc:type
           rdf:resource="http://purl.org/dc/dcmitype/StillImage" />
        <dc:title />
      </cc:Work>
    </rdf:RDF>
  </metadata>
  <g
     inkscape:label="Layer 1"
     inkscape:groupmode="layer"
     id="layer1"
     transform="translate(0,-47)">
    <path
       inkscape:connector-curvature="0"
       id="path3209"
       inkscape:label="part"
       style="fill:none;stroke:#000000;stroke-width:1"
       d="m 0.5,93.5 h 6.39559 v -3 h 6.15 v 3 h 6.32059 v -3 h 6.15 v 3 h 6.32058 v -3 h 6.150001 v 3 h 6.320589 v -3 h 6.150001 v 3 h 6.320589 v -3 h 6.150002 v 3 h 6.320589 v -3 h 6.150001 v 3 h 6.320589 v -3 h 6.149999 v 3 h 6.320591 v -3 h 6.149999 v 3 h 6.32058 v -3 h 6.15 v 3 h 6.32059 v -3 h 6.15 v 3 h 6.32059 v -3 h 6.15 v 3 h 6.32059 v -3 h 6.15 v 3 h 6.32059 v -3 h 6.15 v 3 h 6.32059 v -3 h 6.15 v 3 h 6.32058 v -3 h 6.15 v 3 h 6.32059 v -3 h 6.15 v 3 H 206.5" />
    <path
       inkscape:connector-curvature="0"
       id="path3211"
       inkscape:label="part"
       style="fill:none;stroke:#000000;stroke-width:1"
       d="m 206.5,93.5 v 3.54559 h -3 v 5.85 h 3 v 6.62059 h -3 v 5.85 h 3 v 6.62059 h -3 v 5.85 h 3 v 6.62059 h -3 v 5.85 h 3 v 6.62058 h -3 v 5.85 h 3 v 6.62059 h -3 v 5.85 h 3 v 6.62059 h -3 v 5.85 h 3 v 6.62059 h -3 v 5.85 h 3 v 6.62058 h -3 v 5.85 h 3 v 6.62059 h -3 v 5.85 h 3 v 6.62059 h -3 v 5.85 h 3 v 6.62059 h -3 v 5.85 h 3 v 6.62059 h -3 v 5.85 h 3 v 6.62059 h -3 v 5.85 h 3 v 6.62058 h -3 v 5.85 h 3 v 6.62059 h -3 v 5.85 h 3 V 293.5" />
    <path
       inkscape:connector-curvature="0"
       id="path3213"
       inkscape:label="part"
       style="fill:none;stroke:#000000;stroke-width:1"
       d="m 206.5,293.5 h -6.39559 v 3 h -6.15 v -3 h -6.32059 v 3 h -6.15 v -3 h -6.32058 v 3 h -6.15 v -3 h -6.32059 v 3 h -6.15 v -3 h -6.32059 v 3 h -6.15 v -3 h -6.32059 v 3 h -6.15 v -3 h -6.32059 v 3 h -6.15 v -3 h -6.32059 v 3 h -6.15 v -3 h -6.32058 v 3 h -6.149999 v -3 H 87.86912 v 3 h -6.149999 v -3 h -6.320589 v 3 h -6.150001 v -3 h -6.320589 v 3 H 56.77794 v -3 h -6.320589 v 3 H 44.30735 v -3 h -6.320589 v 3 H 31.83676 v -3 h -6.32058 v 3 h -6.15 v -3 h -6.32059 v 3 h -6.15 v -3 H 0.5" />
    <path
       inkscape:connector-curvature="0"
       id="path3215"
       inkscape:label="part"
       style="fill:none;stroke:#000000;stroke-width:1"
       d="m 0.5,293.5 v -3.54559 h 3 v -5.85 h -3 v -6.62059 h 3 v -5.85 h -3 v -6.62058 h 3 v -5.85 h -3 v -6.62059 h 3 v -5.85 h -3 v -6.62059 h 3 v -5.85 h -3 v -6.62059 h 3 v -5.85 h -3 v -6.62059 h 3 v -5.85 h -3 v -6.62059 h 3 v -5.85 h -3 v -6.62058 h 3 v -5.85 h -3 v -6.62059 h 3 v -5.85 h -3 v -6.62059 h 3 v -5.85 h -3 v -6.62059 h 3 v -5.85 h -3 v -6.62058 h 3 v -5.85 h -3 v -6.62059 h 3 v -5.85 h -3 v -6.62059 h 3 v -5.85 h -3 v -6.62059 h 3 v -5.85 h -3 V 93.5" />
    <path
       style="fill:#000000;stroke-width:0.30096462"
       d="m 155.00007,277 v -75.00007 h -3.99976 V 277 Z m -7.00009,0 v -75.00007 h -3.99976 V 277 Z m -7.00009,0 v -75.00007 h -3.99976 V 277 Z m -6.99957,0 v -75.00007 h -4.00028 V 277 Z m -7.00009,0 v -75.00007 h -4.00027 V 277 Z m -7.00009,0 v -75.00007 h -4.00027 V 277 Z m -7.00009,0 v -75.00007 h -3.99976 V 277 Z m -7.00009,0 V 201.99993 H 102.0002 V 277 Z m -7.00009,0 V 201.99993 H 95.00011 V 277 Z m -6.99957,0 V 201.99993 H 88.00002 V 277 Z m -7.00009,0 V 201.99993 H 80 V 277 Z"
       id="rect11"
       inkscape:connector-curvature="0" />
  </g>
</svg>
